<svg width="526" height="531" viewBox="0 0 526 531" fill="none" xmlns="http://www.w3.org/2000/svg">
<g opacity="0.5">
<path d="M62.8146 72.6321C35.0731 114.745 23.1168 170.517 15.053 225.034C6.74464 281.433 1.78132 338.582 0.207115 395.975C-0.724237 429.659 0.788214 467.454 19.5665 490.601C26.5875 499.269 35.4154 504.968 44.2274 510.158C59.933 519.438 76.2675 527.628 93.406 530.14C121.808 534.292 150.027 522.676 177.212 511.144C225.101 490.83 274.892 470.09 324.859 478.311C348.031 482.121 370.352 492.086 393.381 497.182C416.41 502.279 441.349 502.04 461.568 486.802C475.634 476.183 486.245 459.149 494.62 440.984C513.414 400.221 522.289 352.752 525.131 305.304C526.532 281.876 526.508 258.137 523.03 235.082C519.05 208.737 510.675 183.918 502.222 159.442C491.873 129.412 481.151 99.2989 466.353 72.6114C451.554 45.9239 432.243 22.5788 408.752 10.5274C364.039 -12.3817 315.147 7.88042 269.965 17.098C246.88 21.7795 222.999 24.8002 199.962 18.0219C188.874 14.7625 179.974 8.05689 168.599 7.5275C156.603 6.97734 143.747 10.6416 132.3 14.9493C105.577 25.0078 80.972 45.0519 62.8146 72.6321Z" fill="#D8EDFB"/>
<path d="M255.078 224.557H217.064V265.756H255.078V224.557Z" fill="#68E1FD"/>
<path d="M255.078 224.557H217.064V265.756H255.078V224.557Z" fill="url(#paint0_linear_521_47)"/>
<path d="M287.068 140.032H190.024C183.695 140.032 178.564 146.84 178.564 155.239V225.593C178.564 233.992 183.695 240.8 190.024 240.8H287.068C293.397 240.8 298.528 233.992 298.528 225.593V155.239C298.528 146.84 293.397 140.032 287.068 140.032Z" fill="white"/>
<path d="M349.061 265.291H147.141V273.825H349.061V265.291Z" fill="white"/>
<path d="M349.061 270.261H147.141V273.825H349.061V270.261Z" fill="#D9DBE2"/>
<path d="M261.111 471.67C380.16 471.67 476.667 456.917 476.667 438.719C476.667 420.52 380.16 405.767 261.111 405.767C142.063 405.767 45.5552 420.52 45.5552 438.719C45.5552 456.917 142.063 471.67 261.111 471.67Z" fill="#FFAACC"/>
<path d="M421.726 336.682C421.726 336.682 443.897 431.581 441.49 433.907C439.084 436.234 437.561 429.91 437.561 429.91L415.199 341.716L421.726 336.682Z" fill="#68E1FD"/>
<path d="M374.069 347.637L373.862 348.325L348.599 434.33C348.217 435.659 347.64 436.874 346.902 437.904C346.758 438.133 346.581 438.321 346.381 438.456C346.18 438.59 345.961 438.669 345.737 438.687C345.513 438.704 345.289 438.661 345.078 438.559C344.867 438.458 344.674 438.299 344.511 438.095C342.232 435.62 365.964 347.352 365.964 347.352L374.069 347.637Z" fill="#68E1FD"/>
<path d="M392.981 341.324C392.981 341.324 392.184 440.664 389.371 441.902C386.557 443.139 386.557 436.498 386.557 436.498L385.601 343.439L392.981 341.324Z" fill="#68E1FD"/>
<path d="M417.766 337.835C417.766 337.835 441.897 429.836 439.482 432.12C437.067 434.404 437.561 429.899 437.561 429.899L415.199 341.705L417.766 337.835Z" fill="url(#paint1_linear_521_47)"/>
<path d="M373.854 348.325L348.591 434.33C348.209 435.659 347.632 436.874 346.894 437.904C346.981 428.049 368.483 348.166 368.483 348.166L373.854 348.325Z" fill="url(#paint2_linear_521_47)"/>
<path d="M392.981 341.324C392.981 341.324 392.184 440.664 389.371 441.902C386.557 443.139 388.295 434.415 388.295 434.415L389.291 342.414L392.981 341.324Z" fill="url(#paint3_linear_521_47)"/>
<path d="M442.008 313.978C436.717 330.168 424.81 341.335 412.051 346.347C402.106 350.249 391.626 350.852 381.202 350.059C378.285 349.855 375.363 349.562 372.436 349.181C367.335 348.494 362.163 347.616 357.389 345.142C352.616 342.667 348.169 338.395 345.746 332.357C344.27 328.382 343.454 324.033 343.355 319.604C342.853 308.246 345.563 296.17 352.122 288.937C357.27 283.226 363.988 281.005 369.328 275.707C375.305 269.754 381.441 264.435 387.769 259.084C394.096 253.733 400.52 248.329 407.597 244.924C414.673 241.519 422.563 240.239 429.72 243.253C432.198 244.311 436.015 246.859 439.753 258.999C445.18 276.352 447.635 296.751 442.008 313.978Z" fill="#FFAACC"/>
<path d="M402.823 198.987C400.281 203.608 392.534 208.071 392.534 208.071C391.642 203.502 393.547 201.81 393.547 201.81C395.531 202.043 398.137 195.624 397.284 193.604C396.232 191.087 394.774 191.986 393.802 193.065C392.799 192.029 391.969 190.728 391.364 189.244C390.759 187.761 390.392 186.127 390.287 184.446C390.16 182.469 392.734 176.885 387.801 174.464C382.868 172.042 375.918 174.464 375.918 174.464C375.918 174.464 374.125 168.362 379.903 165.443C392.869 158.866 408.282 170.086 407.421 189.364C407.19 194.588 406.927 200.52 409.653 204.295C411.143 206.347 413.247 207.341 415.231 208.377C417.821 209.71 420.451 211.328 422.268 214.13C424.085 216.932 424.858 221.226 423.416 224.388C422.73 225.9 421.543 227.349 421.822 229.072C422.021 229.846 422.364 230.54 422.818 231.092C425.797 235.331 427.71 240.693 428.293 246.436C428.567 249.295 428.373 252.199 427.724 254.949C427.074 257.7 425.986 260.232 424.532 262.373C420.547 267.924 414.171 269.373 408.457 268.231C403.835 267.3 399.261 264.762 396.121 260.162C391.339 253.151 390.741 242.968 389.41 233.725C389.331 232.585 388.986 231.505 388.422 230.637C387.028 228.903 384.788 230.31 382.883 230.246C379.592 230.151 377.385 225.361 377.305 221.004C377.225 216.647 378.556 212.544 379.226 208.219C379.895 203.894 379.688 198.902 377.193 196.058C376.261 195 375.097 194.334 374.093 193.382C369.646 189.152 369.909 179.392 373.703 174.147C377.496 168.901 383.585 167.611 388.98 168.859C393.315 169.917 403.102 173.089 405.11 178.377C407.118 183.664 405.381 194.355 402.823 198.987Z" fill="#2F3653"/>
<path d="M369.822 226.534L348.918 255.086L321.169 235.671C317.741 232.871 313.771 231.463 309.748 231.621C309.334 231.621 308.776 231.938 308.872 232.467C308.967 232.996 309.43 233.038 309.501 233.524C309.573 234.011 309.127 234.307 308.76 234.413L302.13 236.369C301.157 236.665 299.978 237.268 299.922 238.59C299.952 239.03 300.057 239.455 300.229 239.833C300.402 240.21 300.638 240.53 300.918 240.768C305.294 245.601 311.43 246.658 317.104 245.96C317.654 245.855 318.212 245.855 318.762 245.96C319.302 246.139 319.818 246.428 320.292 246.817C322.434 248.393 324.512 250.119 326.516 251.988C331.959 257.064 336.828 263.166 342.351 268.094C343.463 269.259 344.789 270.007 346.192 270.261C347.44 270.236 348.668 269.842 349.787 269.109C357.756 264.879 365.925 260.363 371.989 252.305C372.527 251.662 372.966 250.886 373.28 250.021C373.5 249.145 373.605 248.226 373.591 247.303C373.671 243.433 373.634 239.556 373.48 235.671C373.504 233.903 373.211 232.153 372.627 230.563C372.318 229.778 371.823 229.151 371.217 228.778C370.612 228.405 369.931 228.308 369.28 228.501" fill="#FDBAAC"/>
<path d="M356.6 256.652C355.921 257.342 355.186 257.931 354.409 258.407C352.719 259.348 350.815 259.168 348.982 259.105C346.205 259.011 343.427 259.231 340.678 259.761C339.99 259.824 339.324 260.103 338.733 260.575C338.444 260.821 338.223 261.185 338.102 261.612C337.981 262.039 337.968 262.506 338.064 262.944C338.249 263.419 338.523 263.824 338.861 264.117C341.084 266.497 343.475 268.971 346.312 269.405C349.707 269.997 352.958 267.607 355.875 265.302L361.98 260.638C362.893 260.047 363.69 259.182 364.307 258.111C365.16 256.366 365.359 251.491 363.287 250.983C361.589 250.539 357.915 255.351 356.6 256.652Z" fill="#DEA095"/>
<path d="M372.898 219.396C373.299 219.224 373.713 219.111 374.133 219.058C376.237 218.794 378.628 219.481 380.74 219.608C383.712 219.777 386.693 219.872 389.673 219.745C395.356 219.523 404.68 218.688 409.764 226.936C416.068 237.12 410.633 255.023 406.234 268.453C404.64 273.466 403.795 289.698 404.64 301.563C404.64 301.563 386.948 309.78 371.384 305.497L366.044 278.912C365.749 277.537 364.825 276.077 364.371 274.766C363.138 271.21 362.239 267.467 361.693 263.62C361.055 259.179 360.099 251.787 361.534 247.515C361.749 246.859 362.49 246.352 362.554 245.664C362.641 244.713 361.693 243.126 361.398 242.27C360.427 239.499 359.645 236.618 359.063 233.662C358.932 233.209 358.916 232.712 359.015 232.245C359.154 231.877 359.363 231.564 359.621 231.335C361.956 228.85 364.299 226.365 366.793 224.123C368.491 222.569 370.746 220.263 372.898 219.396Z" fill="white"/>
<path d="M392.606 200.584C391.427 205.564 386.494 214.331 380.851 212.311C381.515 213.904 381.825 215.714 381.746 217.531C381.667 219.348 381.202 221.098 380.405 222.579C380.405 222.579 382.238 228.787 394.622 219.608C394.622 219.608 391.275 219.238 392.184 210.09C392.456 206.955 393.292 203.952 394.622 201.334C394.47 201.53 394.282 201.67 394.077 201.739C393.871 201.808 393.656 201.805 393.452 201.729C393.247 201.653 393.062 201.507 392.914 201.306C392.765 201.105 392.659 200.856 392.606 200.584Z" fill="#FDBAAC"/>
<path d="M392.04 203.09C392.04 203.09 389.323 218.413 384.716 217.768C380.11 217.123 380.405 207.796 380.405 207.796L392.04 203.09Z" fill="#DEA095"/>
<path d="M416.092 232.488C416.41 227.787 415.354 223.104 413.143 219.407C410.561 215.41 406.6 213.612 402.911 211.666C401.317 210.841 399.659 209.773 398.998 207.722C398.559 206.368 398.655 204.824 398.48 203.365C398.304 201.906 397.683 200.319 396.551 200.118C396.208 200.092 395.865 200.156 395.54 200.306C395.216 200.457 394.918 200.691 394.662 200.996C392.319 203.386 391.57 207.775 392.104 211.634C392.638 215.494 394.24 218.91 395.897 222.146C397.555 225.382 399.308 228.618 400.249 232.329C400.958 235.153 401.165 238.156 401.683 241.054C402.831 247.399 406.855 251.205 411.581 247.589C414.841 245.083 415.861 236.94 416.092 232.488Z" fill="#2F3653"/>
<path d="M379.863 165.465C379.863 165.465 372.356 166.046 370.125 180.481C367.893 194.916 378.739 194.672 378.739 194.672L385.33 169.631L379.863 165.465Z" fill="#2F3653"/>
<path d="M384.868 213.051C378.07 213.802 373.942 205.385 373.177 194.387C373.097 193.181 373.065 191.955 373.065 190.696C373.053 187.11 373.363 183.535 373.99 180.047C376.962 163.128 395.077 169.927 395.077 169.927C409.27 178.376 396.679 211.751 384.868 213.051Z" fill="#FDBAAC"/>
<path d="M380.007 169.547C381.776 177.7 384.143 189.29 390.144 193.763C390.829 194.27 392.096 195.127 392.917 194.905C393.738 194.683 393.714 193.689 394.463 192.79C394.696 192.482 394.994 192.277 395.318 192.204C395.642 192.13 395.975 192.191 396.272 192.378C396.517 192.623 396.712 192.944 396.841 193.313C396.97 193.681 397.03 194.086 397.013 194.493C397.016 195.493 396.823 196.477 396.455 197.35C396.086 198.223 395.554 198.954 394.909 199.473C394.315 199.834 393.747 200.266 393.212 200.763C392.615 201.545 392.257 202.592 392.208 203.703C392.105 205.199 392.326 206.702 392.846 208.036C393.366 209.37 394.162 210.479 395.14 211.233C395.263 211.335 395.403 211.393 395.547 211.402C395.721 211.355 395.878 211.232 395.993 211.053L398.679 207.796C399.958 206.355 401.11 204.726 402.114 202.942C403.347 200.52 404.012 197.669 404.026 194.746C404.026 193.424 403.628 192.092 403.644 190.823C403.812 189.15 404.147 187.514 404.64 185.959C405.241 183.938 405.549 181.786 405.548 179.614C405.333 175.384 402.68 172.021 399.818 170.096C395.292 167.125 390.064 166.786 385.011 166.712C384.004 166.627 382.994 166.807 382.039 167.241C381.17 167.886 380.811 169.155 380.007 169.547Z" fill="#2F3653"/>
<path d="M392.04 272.271L397.228 287.393C397.228 287.393 408.385 268.929 412.633 248.995C416.347 231.378 409.764 226.947 409.764 226.947C404.728 224.493 401.309 234.021 396.36 253.268C393.634 263.811 392.04 272.271 392.04 272.271Z" fill="#FDBAAC"/>
<path d="M397.228 287.361C397.228 287.361 397.428 275.062 392.909 272.62C388.39 270.177 356.72 263.589 356.72 263.589L353.747 268.136C353.747 268.136 384.844 291.929 397.228 287.361Z" fill="#FDBAAC"/>
<path d="M345.906 319.857L346.288 319.329C344.75 321.623 343.722 323.273 343.403 323.781C344.184 322.413 345.018 321.105 345.906 319.857Z" fill="#DC9ED5"/>
<path d="M406.529 322.268C405.604 329.428 401.922 335.582 397.436 339.759C392.949 343.936 387.705 346.39 382.453 348.505C379.353 349.763 377.424 355.04 374.627 357.229C373.609 357.892 372.726 358.871 372.053 360.084C371.033 362.273 371.543 365.107 372.053 367.582C374.428 378.53 376.819 389.475 379.226 400.417C380.413 405.852 381.616 411.615 380.485 417.083C379.353 422.55 375.018 427.256 370.977 425.447C363.077 408.527 355.177 391.608 347.276 374.688C347.276 374.688 343.379 354.257 351.556 336.883C355.086 329.396 382.74 298.496 382.74 298.496C389.809 297.132 396.997 296.498 403.827 295.979C404.632 304.799 407.676 313.512 406.529 322.268Z" fill="#68E1FD"/>
<path d="M382.764 298.464C382.764 298.464 354.544 328.941 351.58 336.851C343.3 358.921 347.3 374.656 347.3 374.656C340.393 389.398 333.487 404.139 326.58 418.88C321.798 419.018 315.351 417.294 315.112 410.928C315.141 409.134 315.461 407.37 316.052 405.757C321.259 388.548 326.463 371.346 331.664 354.152C334.748 343.915 337.944 333.467 342.885 324.69L343.323 323.929V323.865L343.387 323.76C343.706 323.252 344.734 321.645 346.272 319.307V319.244C350.759 312.592 359.517 300.685 367.614 295.979C367.614 295.979 377.01 299.416 382.676 298.496L382.764 298.464Z" fill="#68E1FD"/>
<path d="M382.764 298.464C382.764 298.464 354.544 328.941 351.58 336.851C343.3 358.921 347.3 374.656 347.3 374.656C340.393 389.398 333.487 404.139 326.58 418.88C321.798 419.018 315.351 417.294 315.112 410.928C315.141 409.134 315.461 407.37 316.052 405.757C321.259 388.548 326.463 371.346 331.664 354.152C334.748 343.915 337.944 333.467 342.885 324.69L343.323 323.929V323.865L343.387 323.76C343.706 323.252 344.734 321.645 346.272 319.307V319.244C350.759 312.592 359.517 300.685 367.614 295.979C367.614 295.979 377.01 299.416 382.676 298.496L382.764 298.464Z" fill="url(#paint4_linear_521_47)"/>
<path d="M368.276 435.123C366.427 437.386 363.964 439.649 364.052 442.991C364.043 443.321 364.113 443.647 364.251 443.921C364.508 444.259 364.854 444.448 365.215 444.45C370.906 445.286 376.197 440.686 380.62 435.853C381.736 434.637 382.899 433.241 383.162 431.359C383.425 429.476 382.676 427.583 382.031 425.849C380.983 423.03 380.127 420.093 379.473 417.072C379.672 417.971 376.811 421.164 376.325 421.725C375.305 422.909 373.798 423.766 373.001 425.204C372.205 426.642 372.037 428.376 371.408 429.804C370.579 431.783 369.522 433.577 368.276 435.123Z" fill="#EB9D80"/>
<path d="M309.541 420.974C307.541 421.915 305.222 422.423 303.963 424.675C303.716 425.075 303.569 425.566 303.54 426.082C303.54 427.478 304.76 428.197 305.788 428.514C309.892 429.624 314.132 428.842 318.276 428.049C318.925 428.063 319.555 427.752 320.04 427.178C320.524 426.604 320.828 425.808 320.89 424.95L322.523 418.267C322.592 418.072 322.612 417.853 322.579 417.643C322.509 417.438 322.392 417.267 322.244 417.157C321.124 416.116 319.931 415.22 318.682 414.481C317.001 413.424 316.889 413.519 315.765 415.285C314.099 417.868 311.954 419.829 309.541 420.974Z" fill="#EB9D80"/>
<path d="M353.325 262.753C350.05 262.066 346.368 261.505 343.722 264.138C342.465 265.572 341.436 267.322 340.694 269.288C340.176 270.462 339.65 271.869 340.072 273.095C340.494 274.322 341.53 274.703 342.463 275.009C345.483 275.982 348.735 276.892 351.628 275.39C353.763 274.333 355.493 271.932 357.732 271.224C358.111 271.155 358.476 270.99 358.808 270.737C359.114 270.4 359.329 269.94 359.422 269.426C360.768 263.462 356.322 263.314 353.325 262.753Z" fill="#FDBAAC"/>
<path d="M318.236 433.125C318.121 433.435 317.945 433.699 317.726 433.886C317.396 434.04 317.036 434.04 316.706 433.886C314.857 433.555 312.988 433.47 311.127 433.632C307.31 433.552 303.504 433.093 299.739 432.257C298.097 431.94 296.272 431.485 295.324 429.688C295.201 429.484 295.124 429.238 295.101 428.979C295.111 428.586 295.227 428.211 295.427 427.922C297.079 425.298 299.248 423.336 301.691 422.254C302.595 421.745 303.563 421.465 304.544 421.429C305.036 421.416 305.523 421.547 305.972 421.812C306.421 422.077 306.82 422.47 307.142 422.962C307.82 424.104 307.939 425.743 308.681 426.769C309.422 427.795 310.697 427.922 311.812 427.827C313.108 427.765 314.397 427.57 315.67 427.245C316.634 427.002 318.06 426.124 319.017 426.452C321.256 427.266 318.865 431.633 318.236 433.125Z" fill="#FFAACC"/>
<path d="M384.589 435.229C384.634 435.619 384.595 436.019 384.477 436.382C384.24 436.81 383.9 437.119 383.513 437.259C381.587 438.505 379.763 440.011 378.07 441.754C374.435 444.882 370.629 447.642 366.682 450.013C364.976 451.07 363.024 452.202 361.263 451.303C361.05 451.213 360.86 451.049 360.713 450.827C360.537 450.448 360.469 449.998 360.521 449.558C360.819 445.681 361.922 441.991 363.709 438.898C364.325 437.657 365.112 436.58 366.028 435.726C366.487 435.301 367.009 435.014 367.56 434.886C368.111 434.759 368.676 434.792 369.216 434.986C370.403 435.493 371.28 436.963 372.499 437.291C373.719 437.619 374.97 436.688 375.998 435.694C377.196 434.538 378.326 433.262 379.377 431.877C380.174 430.819 381.09 428.81 382.166 428.302C384.637 427.129 384.501 433.262 384.589 435.229Z" fill="#FFAACC"/>
<path d="M414.65 232.943C415.433 236.172 415.967 239.499 416.243 242.872L416.729 247.42C416.902 248.362 416.863 249.351 416.618 250.264C416.052 251.861 413.765 251.205 412.633 251.449C410.609 251.882 408.593 252.305 406.569 252.718C402.52 253.543 398.472 254.332 394.423 255.086C394.21 252.357 394.261 249.603 394.575 246.891C394.949 244.311 395.786 241.889 396.264 239.34C396.655 237.225 396.798 235.111 397.204 232.996C398.06 228.65 400.012 224.824 402.735 222.156C406.999 218.022 413.255 228.036 414.562 232.541L414.65 232.943Z" fill="white"/>
<path d="M442.008 313.978C436.717 330.168 424.81 341.335 412.051 346.347C402.106 350.249 391.626 350.852 381.202 350.059C381.202 349.118 381.616 348.547 382.485 348.494C392.471 347.828 396.607 330.411 399.603 321.549C402.6 312.688 404.648 301.552 424.149 291.284C443.148 281.301 440.829 262.521 441.777 266.306C446.264 284.114 447.635 296.751 442.008 313.978Z" fill="#2F3653"/>
<path d="M443.371 314.718C438.079 330.898 426.173 342.065 413.414 347.088C403.468 350.979 390.112 351.645 379.688 350.842C379.688 349.911 381.616 348.547 382.485 348.494C392.471 347.828 396.83 327.143 399.826 318.282C402.823 309.42 405.572 304.217 424.149 291.284C451.906 271.974 431.823 245.707 431.473 244.025C438.127 246.87 441.833 264.815 442.773 268.601C447.26 286.409 448.997 297.481 443.371 314.718Z" fill="white"/>
<path d="M405.668 344.254C397.228 347.109 388.295 347.214 380.078 351.074C382.684 349.848 388.143 351.751 391.044 351.635C395.03 351.474 399.002 350.919 402.926 349.975C409.868 348.304 419.064 345.745 424.786 340.066C421.057 335.857 409.796 342.858 405.668 344.254Z" fill="#68E1FD"/>
<path d="M410.728 443.033C410.6 443.14 410.46 443.222 410.314 443.276C410.054 443.369 409.783 443.388 409.517 443.329C406.56 442.843 392.048 351.148 392.048 351.148L394.033 349.615C394.176 349.509 394.343 349.393 394.487 349.308C394.992 349.025 395.535 348.881 396.084 348.883C396.632 348.886 397.175 349.035 397.678 349.322C398.182 349.61 398.637 350.029 399.016 350.556C399.395 351.082 399.689 351.704 399.882 352.386V352.491C399.965 352.768 400.026 353.055 400.065 353.348L411.478 437.323C411.478 437.323 412.155 441.743 410.728 443.033Z" fill="#68E1FD"/>
<path d="M411.055 435.483C411.055 435.483 410.936 440.77 410.728 443.033C410.601 444.091 410.481 444.514 410.314 443.276C408.888 432.183 397.037 364.092 394.479 349.329C394.984 349.047 395.527 348.902 396.076 348.904C396.624 348.907 397.167 349.056 397.67 349.344C398.174 349.631 398.629 350.05 399.008 350.577C399.387 351.103 399.681 351.726 399.874 352.407V352.513L411.055 435.483Z" fill="url(#paint5_linear_521_47)"/>
<path d="M105.103 336.682C105.103 336.682 82.9715 431.581 85.3623 433.907C87.7532 436.234 89.2833 429.91 89.2833 429.91L111.661 341.716L105.103 336.682Z" fill="#68E1FD"/>
<path d="M152.759 347.637L152.967 348.325L178.23 434.33C178.612 435.659 179.189 436.874 179.927 437.904C180.071 438.133 180.248 438.321 180.448 438.456C180.648 438.59 180.867 438.669 181.091 438.687C181.315 438.704 181.54 438.661 181.751 438.559C181.962 438.458 182.155 438.299 182.318 438.095C184.629 435.62 160.896 347.394 160.896 347.394L152.759 347.637Z" fill="#68E1FD"/>
<path d="M133.896 341.324C133.896 341.324 134.693 440.664 137.498 441.902C140.303 443.139 140.351 436.498 140.351 436.498L141.307 343.439L133.896 341.324Z" fill="#68E1FD"/>
<path d="M109.063 337.835C109.063 337.835 84.932 429.836 87.3467 432.12C89.7614 434.404 89.2673 429.899 89.2673 429.899L111.661 341.716L109.063 337.835Z" fill="url(#paint6_linear_521_47)"/>
<path d="M152.967 348.325L178.23 434.33C178.612 435.659 179.189 436.874 179.927 437.904C179.847 428.049 158.338 348.166 158.338 348.166L152.967 348.325Z" fill="url(#paint7_linear_521_47)"/>
<path d="M133.896 341.324C133.896 341.324 134.693 440.664 137.498 441.902C140.303 443.139 138.574 434.415 138.574 434.415L137.578 342.414L133.896 341.324Z" fill="url(#paint8_linear_521_47)"/>
<path d="M84.8204 313.978C90.1121 330.168 102.018 341.335 114.777 346.347C124.723 350.249 135.203 350.852 145.627 350.059C148.544 349.855 151.452 349.559 154.353 349.171C159.454 348.494 164.626 347.616 169.4 345.142C174.173 342.667 178.62 338.395 181.043 332.357C182.522 328.384 183.338 324.033 183.434 319.604C183.936 308.246 181.226 296.17 174.667 288.937C169.519 283.226 162.801 281.005 157.461 275.707C151.484 269.754 145.348 264.435 139.02 259.084C132.693 253.733 126.269 248.329 119.192 244.924C112.116 241.519 104.226 240.239 97.0694 243.253C94.5909 244.311 90.7736 246.859 87.0359 258.999C81.6566 276.352 79.194 296.751 84.8204 313.978Z" fill="#2F3653"/>
<path d="M103.78 255.034C104.734 257.746 105.476 260.581 105.995 263.493C106.473 267.047 107.294 270.536 107.764 274.121C108.711 281.31 109.161 288.598 109.111 295.895C109.111 298.782 109.111 302.039 110.665 304.037C111.717 305.38 113.223 305.814 114.65 306.152C117.463 306.903 120.005 308.384 122.818 309.018C125.884 309.608 128.982 309.856 132.079 309.758C141.212 309.758 158.203 308.405 157.637 291.506C157.091 272.427 155.825 253.397 153.843 234.487C153.158 228.078 153.046 220.686 151.556 214.521C150.329 209.329 145.77 209.287 141.993 209.816L141.276 209.921C140.542 210.016 139.809 210.143 139.1 210.26C134.071 210.954 129.009 211.152 123.958 210.852C118.276 210.619 109.175 209.868 103.588 216.975C103.2 217.462 102.835 217.981 102.497 218.529C96.9419 227.528 99.9224 242.132 103.78 255.034Z" fill="white"/>
<path d="M124.962 253.162C125.448 261.622 123.639 270.642 126.986 277.717C127.14 278.114 127.382 278.439 127.68 278.647C128.16 278.772 128.658 278.698 129.106 278.436C129.622 278.299 130.154 278.309 130.666 278.465C131.179 278.622 131.66 278.921 132.079 279.343C132.498 279.765 132.845 280.3 133.096 280.913C133.347 281.526 133.498 282.202 133.537 282.898C134.331 282.104 134.989 281.094 135.466 279.936C135.942 278.778 136.228 277.499 136.303 276.183C136.374 274.713 136.303 272.926 137.227 272.122C138.423 271.065 139.969 272.937 140.224 274.798C140.479 276.659 140.08 278.626 140.479 280.445C140.989 282.824 142.782 284.379 144.599 284.886C146.448 285.248 148.328 285.248 150.177 284.886C151.52 284.62 152.891 284.813 154.162 285.447C155.389 286.219 156.338 288.069 155.963 289.804C155.517 291.866 153.636 292.585 152.042 292.976L118.898 301.182C116.435 301.785 112.084 304.672 112.004 299.839C111.888 292.61 111.036 285.435 109.47 278.51C108.84 275.718 108.768 272.863 108.155 270.156C107.406 266.867 106.027 263.715 105.182 260.427C103.48 253.815 102.333 246.974 101.763 240.028C101.365 235.142 101.62 229.252 104.776 226.704C107.055 224.874 110.123 225.646 112.267 227.761C114.881 230.331 116.084 234.37 118.499 237.077C121.304 240.25 123.488 243.824 124.428 248.657C124.704 250.135 124.882 251.643 124.962 253.162Z" fill="#D9DBE2"/>
<path d="M136.119 223.013C135.939 223.332 135.801 223.689 135.713 224.07C135.695 224.487 135.758 224.902 135.896 225.276C138.972 235.512 140.901 246.278 142.814 257C144.503 266.433 146.201 275.94 146.551 285.627C146.604 286.335 146.563 287.051 146.432 287.742C145.874 290.131 143.523 290.914 142.495 292.976L139.076 287.794C138.852 287.489 138.674 287.13 138.55 286.737C138.446 286.188 138.446 285.615 138.55 285.066C139.706 274.713 138.423 264.149 136.598 253.955C135.004 245.199 133.035 236.432 133.155 227.433C133.155 226.376 133.155 225.086 132.541 224.377C132.193 224.064 131.811 223.822 131.409 223.658C130.953 223.361 130.546 222.947 130.212 222.439C129.877 221.931 129.622 221.34 129.462 220.7C129.302 220.06 129.239 219.385 129.278 218.712C129.317 218.04 129.456 217.384 129.688 216.784C130.414 216.767 131.126 216.525 131.768 216.076C132.418 215.628 133.165 215.497 133.88 215.706C135.458 216.425 137.02 221.046 136.119 223.013Z" fill="#43E37F"/>
<path d="M103.596 216.996C109.175 209.89 118.284 210.651 123.966 210.873C129.017 211.173 134.079 210.975 139.108 210.281C139.817 210.164 140.55 210.038 141.284 209.942C138.279 208.314 134.015 209.403 130.812 209.541C125.956 209.752 121.102 210.143 116.252 210.714C111.661 211.275 106.577 212.322 103.596 216.996Z" fill="white"/>
<path d="M120.826 190.411C122.101 195.698 127.249 200.795 133.274 198.596C133.274 198.596 130.883 208.113 133.872 213.919C133.872 213.919 131.919 220.549 118.674 210.746C118.674 210.746 122.253 210.355 121.28 200.605C120.993 197.252 120.099 194.041 118.674 191.246C118.838 191.456 119.041 191.604 119.262 191.676C119.483 191.748 119.714 191.742 119.933 191.657C120.151 191.572 120.349 191.412 120.506 191.193C120.663 190.974 120.773 190.704 120.826 190.411Z" fill="#FFDDD0"/>
<path d="M127.321 202.709C134.302 205.438 139.992 197.802 142.583 186.509C142.861 185.282 143.101 183.992 143.3 182.68C143.901 178.931 144.168 175.102 144.097 171.27C143.69 152.775 123.615 154.657 123.615 154.657C107.406 159.448 115.168 197.972 127.321 202.709Z" fill="#FFDDD0"/>
<path d="M170.738 317.848L170.324 317.277C171.966 319.73 173.073 321.507 173.408 322.036C172.579 320.598 171.679 319.191 170.738 317.848Z" fill="#DC9ED5"/>
<path d="M110.952 155.947C112.161 152.602 114.178 149.888 116.682 148.238C118.977 146.631 122.324 146.948 124.205 144.442C125.217 143.099 125.416 141.058 125.998 139.324C126.595 137.579 127.594 136.131 128.851 135.189C129.671 134.57 130.587 134.208 131.529 134.131C134.438 133.952 137.06 136.934 138.183 140.476C138.98 138.731 140.63 138.055 142.168 138.097C145.707 138.192 148.95 141.513 150.408 145.795C151.007 147.47 151.281 149.317 151.205 151.167C151.125 153.033 150.516 154.79 149.5 156.085C149.286 156.382 149.007 156.582 148.703 156.656C148.555 156.69 148.403 156.653 148.273 156.553C148.143 156.452 148.044 156.294 147.994 156.106C146.99 158.913 145.74 161.553 144.272 163.974C143.778 164.875 143.124 165.602 142.367 166.089C141.615 166.444 140.802 166.507 140.024 166.268C138.957 166.006 137.935 165.482 137.012 164.724C136.849 164.548 136.64 164.464 136.43 164.492C136.223 164.566 136.111 164.841 136.008 165.094C135.722 165.838 135.323 166.494 134.836 167.022C134.349 167.55 133.785 167.938 133.179 168.161C132.117 168.351 131.039 168.298 129.991 168.003C128.554 167.765 127.1 167.765 125.664 168.003C124.785 168.103 123.935 168.464 123.177 169.06C122.717 169.518 122.343 170.112 122.086 170.795C121.829 171.478 121.695 172.231 121.695 172.994C121.695 173.597 122.141 178.567 121.591 178.683C120.707 178.884 120.531 176.938 119.758 176.336C118.985 175.733 118.236 176.515 117.838 177.393C117.511 178.153 117.37 179.03 117.434 179.901C117.498 180.772 117.764 181.596 118.196 182.257C118.464 182.56 118.672 182.945 118.802 183.378C118.847 183.816 118.792 184.263 118.643 184.658L117.28 189.205C115.455 183.484 113.266 177.979 110.737 172.751C109.661 170.636 108.41 168.278 108.888 165.835C109.366 163.392 111.358 161.605 110.944 159.225C110.864 158.771 110.697 158.348 110.649 157.882C110.611 157.212 110.716 156.542 110.952 155.947Z" fill="#2F3653"/>
<path d="M122.46 296.328C122.46 296.328 130.963 324.489 137.785 327.44C144.607 330.39 186.956 347.352 186.956 347.352L204.959 428.292L209.613 424.506C211.374 423.068 215.582 420.995 216.65 418.658C218.069 415.581 215.933 407.502 215.526 404.001L213.685 388.139C211.21 366.693 208.726 345.244 206.234 323.791C206.235 322.73 205.99 321.694 205.53 320.825C205.071 319.956 204.42 319.297 203.668 318.937C195.337 313.017 186.78 307.677 178.03 302.938C173.743 300.611 169.415 298.454 165.056 296.402C164.196 296 157.812 291.369 157.637 291.548C157.581 291.58 153.054 296.096 122.46 296.328Z" fill="#2F3653"/>
<path d="M199.906 431.263C197.946 425.511 197.779 419.028 197.205 412.768C196.782 408.052 196.105 403.388 195.428 398.725L186.167 334.556C186.13 333.191 185.773 331.875 185.146 330.791C184.519 329.707 183.653 328.909 182.669 328.508C167.798 318.874 153.182 308.764 138.438 298.75C138.438 298.75 122.5 291.073 110.665 301.796C110.665 301.796 109.071 327.482 115.893 330.432C130.966 336.953 146.158 342.911 161.47 348.304C162.189 348.497 162.869 348.894 163.462 349.467C164.132 350.354 164.596 351.477 164.801 352.703C170.38 375.238 175.958 397.783 181.051 420.498C181.656 423.177 182.254 425.853 182.844 428.525C183.298 430.565 183.641 435.927 184.765 437.344C186.255 439.343 188.223 437.344 190.216 436.286L201.086 430.47L165.925 317.446L160.809 313.957" fill="#4C516C"/>
<path d="M224.396 420.392C226.198 420.449 227.993 420.686 229.768 421.101C231.427 421.343 233.002 422.193 234.318 423.554C235.064 424.42 235.562 425.6 235.729 426.896C235.802 427.542 235.765 428.201 235.62 428.825C235.475 429.45 235.226 430.023 234.892 430.502C234.251 431.234 233.498 431.772 232.684 432.078C230.788 432.966 228.888 433.844 226.986 434.711C222.914 436.572 218.778 438.454 214.474 438.761C214.219 438.807 213.96 438.771 213.717 438.655C213.531 438.531 213.364 438.362 213.223 438.158C210.641 434.806 208.202 430.872 207.581 426.145C207.549 425.986 207.549 425.818 207.581 425.659C207.65 425.483 207.755 425.336 207.884 425.236C210.482 422.903 213.337 421.12 216.347 419.948C219.073 418.901 221.639 420.318 224.396 420.392Z" fill="#2F3653"/>
<path d="M203.795 431.242C205.597 431.299 207.392 431.535 209.167 431.951C210.826 432.193 212.401 433.043 213.717 434.404C214.463 435.27 214.961 436.45 215.128 437.746C215.201 438.392 215.164 439.051 215.019 439.675C214.874 440.299 214.625 440.872 214.291 441.352C213.65 442.084 212.897 442.621 212.084 442.927C210.187 443.816 208.287 444.693 206.385 445.561C202.313 447.422 198.177 449.304 193.874 449.611C193.605 449.666 193.331 449.63 193.077 449.505C192.891 449.38 192.723 449.212 192.583 449.008C190 445.656 187.562 441.722 186.94 436.995C186.908 436.836 186.908 436.668 186.94 436.509C187.009 436.333 187.114 436.186 187.243 436.086C189.841 433.753 192.696 431.97 195.706 430.798C198.472 429.751 200.998 431.158 203.795 431.242Z" fill="#2F3653"/>
<path d="M84.8204 313.978C90.1121 330.168 102.018 341.335 114.777 346.347C124.723 350.249 135.203 350.852 145.627 350.059C145.627 349.118 145.212 348.547 144.344 348.494C134.358 347.828 130.222 330.411 127.226 321.549C124.229 312.688 122.181 301.552 102.68 291.284C83.6808 281.301 85.9999 262.521 85.0515 266.306C80.5807 284.114 79.194 296.751 84.8204 313.978Z" fill="#2F3653"/>
<path d="M83.4576 314.718C88.7493 330.898 100.656 342.065 113.415 347.088C123.36 350.979 136.717 351.645 147.141 350.842C147.141 349.911 145.212 348.547 144.344 348.494C134.358 347.828 129.999 327.143 127.002 318.282C124.006 309.42 121.225 304.217 102.68 291.305C74.9224 271.996 95.0053 245.728 95.3559 244.046C88.7015 246.891 84.9957 264.836 84.0554 268.622C79.5686 286.409 77.8313 297.481 83.4576 314.718Z" fill="white"/>
<path d="M121.161 344.254C129.6 347.109 138.534 347.214 146.751 351.074C144.145 349.848 138.686 351.751 135.785 351.635C131.801 351.474 127.832 350.919 123.91 349.975C116.961 348.304 107.772 345.745 102.042 340.066C105.772 335.857 117.033 342.858 121.161 344.254Z" fill="#68E1FD"/>
<path d="M116.1 443.033C116.229 443.14 116.369 443.222 116.515 443.276C116.774 443.369 117.046 443.387 117.312 443.329C120.268 442.843 134.781 351.148 134.781 351.148L132.796 349.615C132.653 349.509 132.485 349.393 132.342 349.308C131.837 349.025 131.293 348.881 130.745 348.883C130.197 348.886 129.654 349.035 129.15 349.322C128.647 349.61 128.192 350.029 127.813 350.556C127.434 351.082 127.14 351.704 126.947 352.386V352.491C126.858 352.766 126.794 353.053 126.755 353.348L115.343 437.323C115.343 437.323 114.674 441.743 116.1 443.033Z" fill="#68E1FD"/>
<path d="M115.774 435.483C115.774 435.483 115.893 440.77 116.1 443.033C116.228 444.091 116.347 444.514 116.515 443.276C117.941 432.183 129.792 364.092 132.35 349.329C131.845 349.047 131.301 348.902 130.753 348.904C130.205 348.907 129.662 349.056 129.158 349.344C128.654 349.631 128.2 350.05 127.821 350.577C127.442 351.103 127.148 351.726 126.955 352.407V352.513L115.774 435.483Z" fill="url(#paint9_linear_521_47)"/>
<path d="M132.015 306.48C131.839 307.864 131.29 309.116 130.469 310.002C129.585 310.971 128.524 311.613 127.393 311.863C125.233 312.318 123.026 311.524 120.938 310.657C114.251 307.907 107.749 304.419 101.5 300.23C99.4442 298.856 97.3323 297.312 96.0971 294.732C94.7343 291.834 94.7184 288.186 94.7901 284.781C95.099 270.519 96.0276 256.294 97.5714 242.175C98.2409 235.925 98.1851 226.249 101.006 220.285C101.697 218.718 102.677 217.411 103.854 216.486C105.03 215.561 106.365 215.049 107.732 214.997C112.211 214.638 115.917 220.285 116.738 226.122C117.559 231.959 116.284 237.945 115.144 243.697C113.55 251.988 112.163 260.395 111.159 268.855C110.689 272.62 110.322 276.701 111.685 280.075C112.329 281.531 113.135 282.85 114.076 283.987C117.866 288.886 122.042 293.229 126.532 296.942C129.25 299.215 132.485 302.282 132.015 306.48Z" fill="white"/>
<path d="M195.149 257.064C194.93 258.55 194.468 259.955 193.796 261.179C193.125 262.403 192.259 263.417 191.26 264.149C189.26 265.595 187.112 266.646 184.884 267.269L175.735 270.441C170.954 272.112 165.192 273.434 161.645 268.855C161.013 268.083 160.536 267.114 160.258 266.036C159.979 264.957 159.908 263.803 160.051 262.679C160.151 262.109 160.338 261.573 160.601 261.104C161.275 260.119 162.087 259.318 162.992 258.745C165.63 256.671 167.926 253.913 169.742 250.634C164.323 247.948 158.681 245.21 154.146 240.546C153.302 239.705 152.503 238.786 151.755 237.797C148.421 233.342 146.158 227.674 145.252 221.511C144.854 218.931 144.176 214.616 144.886 212.057C145.85 208.557 147.667 210.175 150.249 211.159C160.123 214.923 169.256 221.638 177.417 229.813C182.121 234.587 186.571 239.789 190.734 245.379C193.132 248.562 195.619 252.57 195.149 257.064Z" fill="white"/>
<path d="M173.4 254.642C170.212 257.572 166.929 260.395 163.614 263.102C162.649 263.895 161.311 264.667 160.49 263.61C160.263 263.331 160.114 262.958 160.067 262.552C160.167 261.982 160.354 261.446 160.617 260.977C161.291 259.992 162.103 259.191 163.008 258.618C165.646 256.544 167.942 253.786 169.758 250.508C164.323 247.948 158.681 245.21 154.146 240.546C154.146 240.26 154.146 239.975 154.146 239.658C154.146 238.6 153.979 230.902 153.525 230.532L173.894 247.261C174.686 247.756 175.323 248.601 175.695 249.651C176.213 251.607 174.731 253.437 173.4 254.642Z" fill="#D9DBE2"/>
<path d="M153.66 270.378C153.076 272.357 152.766 274.46 152.744 276.585C152.512 279.474 152.861 282.393 153.756 285.045C154.76 287.615 156.84 289.613 159.007 289.275C159.749 289.129 160.457 288.77 161.082 288.222C161.707 287.673 162.234 286.95 162.626 286.102C163.404 284.395 163.82 282.44 163.829 280.445C164.825 280.107 165.375 278.69 165.622 277.357C165.754 276.001 166.073 274.69 166.562 273.487C167.168 272.355 168.212 271.721 168.722 270.505C168.932 269.929 169.034 269.295 169.019 268.656C169.003 268.016 168.872 267.392 168.634 266.835C167.327 263.483 163.239 260.585 160.561 262.14C157.884 263.694 154.903 266.602 153.66 270.378Z" fill="#FFDDD0"/>
<path d="M127.967 309.653C129.648 312.973 133.203 313.417 136.183 312.825C139.225 312.242 142.165 310.954 144.87 309.018C145.588 308.622 146.176 307.898 146.527 306.977C146.679 306.33 146.679 305.637 146.527 304.989C146.282 303.909 145.873 302.907 145.325 302.045C144.776 301.183 144.101 300.479 143.34 299.977C141.812 298.984 140.19 298.273 138.518 297.862C135.817 297.047 132.94 296.233 130.334 297.439C127.728 298.644 127.241 298.496 126.955 301.965C126.803 304.482 126.875 307.527 127.967 309.653Z" fill="#FFDDD0"/>
<path d="M119.798 206.326L125.209 210.048C127.117 211.226 128.906 212.718 130.533 214.49C129.547 217.398 128.904 220.49 128.628 223.658C127.205 221.305 125.551 219.213 123.711 217.44C121.998 215.938 120.005 215.008 118.403 213.284C116.515 211.254 118.834 208.398 119.798 206.326Z" fill="white"/>
<path d="M136.773 213.39L139.299 217.852C139.471 218.108 139.592 218.417 139.65 218.751C137.704 217.541 135.654 216.653 133.545 216.108C133.43 216.102 133.316 216.063 133.213 215.994C133.11 215.925 133.019 215.826 132.948 215.706C132.873 215.483 132.859 215.232 132.908 214.997C133.066 213.321 132.852 211.619 132.294 210.101C132.065 209.627 131.915 209.093 131.856 208.536C131.752 206.061 133.737 208.663 134.199 209.266C135.132 210.555 135.992 211.933 136.773 213.39Z" fill="white"/>
<path d="M298.528 216.108V225.625C298.529 227.621 298.233 229.599 297.658 231.443C297.083 233.288 296.24 234.965 295.176 236.377C294.113 237.789 292.85 238.909 291.46 239.674C290.07 240.438 288.58 240.832 287.076 240.832H190.024C186.988 240.818 184.079 239.205 181.938 236.348C179.797 233.491 178.598 229.623 178.604 225.593V216.076L298.528 216.108Z" fill="#68E1FD"/>
<path d="M130.469 310.002C129.585 310.971 128.524 311.613 127.393 311.863C125.233 312.318 123.026 311.524 120.938 310.657C114.251 307.907 107.749 304.419 101.5 300.23C99.4442 298.856 97.3323 297.312 96.0971 294.732C94.7343 291.834 94.7184 288.186 94.7901 284.781C95.099 270.519 96.0276 256.294 97.5714 242.175C98.2409 235.925 98.1851 226.249 101.006 220.285C101.837 220.603 102.651 220.992 103.445 221.448C104.527 221.93 105.456 222.879 106.083 224.144C106.768 225.815 106.481 227.888 106.154 229.77C103.184 247.736 101.137 265.949 100.026 284.284C99.8781 285.139 99.9309 286.034 100.177 286.849C100.424 287.664 100.852 288.359 101.405 288.841C104.119 292.095 107.015 295.072 110.067 297.745C114.849 301.975 120.651 306.819 126.341 308.214C127.959 308.627 129.282 308.648 130.469 310.002Z" fill="#D9DBE2"/>
<path d="M382.995 63.6288H291.945C281.791 63.6288 273.559 74.5514 273.559 88.025V98.2192C273.559 111.693 281.791 122.615 291.945 122.615H382.995C393.149 122.615 401.38 111.693 401.38 98.2192V88.025C401.38 74.5514 393.149 63.6288 382.995 63.6288Z" fill="white"/>
<path d="M351.444 142.094L339.921 120.384H351.444V142.094Z" fill="white"/>
</g>
<defs>
<linearGradient id="paint0_linear_521_47" x1="265.757" y1="-197.489" x2="254.976" y2="1002.13" gradientUnits="userSpaceOnUse">
<stop offset="0.01"/>
<stop offset="0.08" stop-opacity="0.69"/>
<stop offset="0.21" stop-opacity="0.32"/>
<stop offset="1" stop-opacity="0"/>
</linearGradient>
<linearGradient id="paint1_linear_521_47" x1="0" y1="265.585" x2="526.118" y2="265.585" gradientUnits="userSpaceOnUse">
<stop offset="0.01"/>
<stop offset="0.08" stop-opacity="0.69"/>
<stop offset="0.21" stop-opacity="0.32"/>
<stop offset="1" stop-opacity="0"/>
</linearGradient>
<linearGradient id="paint2_linear_521_47" x1="260.745" y1="-68.2053" x2="261.954" y2="944.244" gradientUnits="userSpaceOnUse">
<stop offset="0.01"/>
<stop offset="0.08" stop-opacity="0.69"/>
<stop offset="0.21" stop-opacity="0.32"/>
<stop offset="1" stop-opacity="0"/>
</linearGradient>
<linearGradient id="paint3_linear_521_47" x1="2862.82" y1="233.928" x2="1506.55" y2="3732.1" gradientUnits="userSpaceOnUse">
<stop offset="0.01"/>
<stop offset="0.08" stop-opacity="0.69"/>
<stop offset="0.21" stop-opacity="0.32"/>
<stop offset="1" stop-opacity="0"/>
</linearGradient>
<linearGradient id="paint4_linear_521_47" x1="906.016" y1="287.048" x2="-1069.94" y2="168.247" gradientUnits="userSpaceOnUse">
<stop offset="0.01"/>
<stop offset="0.08" stop-opacity="0.69"/>
<stop offset="0.21" stop-opacity="0.32"/>
<stop offset="1" stop-opacity="0"/>
</linearGradient>
<linearGradient id="paint5_linear_521_47" x1="1162.26" y1="138.845" x2="784.936" y2="1114.02" gradientUnits="userSpaceOnUse">
<stop offset="0.01"/>
<stop offset="0.08" stop-opacity="0.69"/>
<stop offset="0.21" stop-opacity="0.32"/>
<stop offset="1" stop-opacity="0"/>
</linearGradient>
<linearGradient id="paint6_linear_521_47" x1="525.315" y1="265.585" x2="-0.117694" y2="265.585" gradientUnits="userSpaceOnUse">
<stop offset="0.01"/>
<stop offset="0.08" stop-opacity="0.69"/>
<stop offset="0.21" stop-opacity="0.32"/>
<stop offset="1" stop-opacity="0"/>
</linearGradient>
<linearGradient id="paint7_linear_521_47" x1="265.41" y1="-68.2053" x2="264.201" y2="944.244" gradientUnits="userSpaceOnUse">
<stop offset="0.01"/>
<stop offset="0.08" stop-opacity="0.69"/>
<stop offset="0.21" stop-opacity="0.32"/>
<stop offset="1" stop-opacity="0"/>
</linearGradient>
<linearGradient id="paint8_linear_521_47" x1="-2346.69" y1="233.928" x2="-992.589" y2="3734.07" gradientUnits="userSpaceOnUse">
<stop offset="0.01"/>
<stop offset="0.08" stop-opacity="0.69"/>
<stop offset="0.21" stop-opacity="0.32"/>
<stop offset="1" stop-opacity="0"/>
</linearGradient>
<linearGradient id="paint9_linear_521_47" x1="-636.511" y1="138.845" x2="-259.09" y2="1114.16" gradientUnits="userSpaceOnUse">
<stop offset="0.01"/>
<stop offset="0.08" stop-opacity="0.69"/>
<stop offset="0.21" stop-opacity="0.32"/>
<stop offset="1" stop-opacity="0"/>
</linearGradient>
</defs>
</svg>
