<svg width="135" height="106" viewBox="0 0 135 106" fill="none" xmlns="http://www.w3.org/2000/svg">
<path d="M5 2.5C5 3.88071 3.88071 5 2.5 5C1.11929 5 0 3.88071 0 2.5C0 1.11929 1.11929 0 2.5 0C3.88071 0 5 1.11929 5 2.5Z" fill="#FF0066"/>
<path d="M5 16.5C5 17.8807 3.88071 19 2.5 19C1.11929 19 0 17.8807 0 16.5C0 15.1193 1.11929 14 2.5 14C3.88071 14 5 15.1193 5 16.5Z" fill="#FF0066"/>
<path d="M5 30.5C5 31.8807 3.88071 33 2.5 33C1.11929 33 0 31.8807 0 30.5C0 29.1193 1.11929 28 2.5 28C3.88071 28 5 29.1193 5 30.5Z" fill="#FF0066"/>
<path d="M5 44.5C5 45.8807 3.88071 47 2.5 47C1.11929 47 0 45.8807 0 44.5C0 43.1193 1.11929 42 2.5 42C3.88071 42 5 43.1193 5 44.5Z" fill="#FF0066"/>
<path d="M19 2.5C19 3.88071 17.8807 5 16.5 5C15.1193 5 14 3.88071 14 2.5C14 1.11929 15.1193 0 16.5 0C17.8807 0 19 1.11929 19 2.5Z" fill="#FF0066"/>
<path d="M19 16.5C19 17.8807 17.8807 19 16.5 19C15.1193 19 14 17.8807 14 16.5C14 15.1193 15.1193 14 16.5 14C17.8807 14 19 15.1193 19 16.5Z" fill="#FF0066"/>
<path d="M19 30.5C19 31.8807 17.8807 33 16.5 33C15.1193 33 14 31.8807 14 30.5C14 29.1193 15.1193 28 16.5 28C17.8807 28 19 29.1193 19 30.5Z" fill="#FF0066"/>
<path d="M19 44.5C19 45.8807 17.8807 47 16.5 47C15.1193 47 14 45.8807 14 44.5C14 43.1193 15.1193 42 16.5 42C17.8807 42 19 43.1193 19 44.5Z" fill="#FF0066"/>
<path d="M33 2.5C33 3.88071 31.8807 5 30.5 5C29.1193 5 28 3.88071 28 2.5C28 1.11929 29.1193 0 30.5 0C31.8807 0 33 1.11929 33 2.5Z" fill="#FF0066"/>
<path d="M33 16.5C33 17.8807 31.8807 19 30.5 19C29.1193 19 28 17.8807 28 16.5C28 15.1193 29.1193 14 30.5 14C31.8807 14 33 15.1193 33 16.5Z" fill="#FF0066"/>
<path d="M33 30.5C33 31.8807 31.8807 33 30.5 33C29.1193 33 28 31.8807 28 30.5C28 29.1193 29.1193 28 30.5 28C31.8807 28 33 29.1193 33 30.5Z" fill="#FF0066"/>
<path d="M33 44.5C33 45.8807 31.8807 47 30.5 47C29.1193 47 28 45.8807 28 44.5C28 43.1193 29.1193 42 30.5 42C31.8807 42 33 43.1193 33 44.5Z" fill="#FF0066"/>
<path d="M47 2.5C47 3.88071 45.8807 5 44.5 5C43.1193 5 42 3.88071 42 2.5C42 1.11929 43.1193 0 44.5 0C45.8807 0 47 1.11929 47 2.5Z" fill="#FF0066"/>
<path d="M47 16.5C47 17.8807 45.8807 19 44.5 19C43.1193 19 42 17.8807 42 16.5C42 15.1193 43.1193 14 44.5 14C45.8807 14 47 15.1193 47 16.5Z" fill="#FF0066"/>
<path d="M47 30.5C47 31.8807 45.8807 33 44.5 33C43.1193 33 42 31.8807 42 30.5C42 29.1193 43.1193 28 44.5 28C45.8807 28 47 29.1193 47 30.5Z" fill="#FF0066"/>
<path d="M47 44.5C47 45.8807 45.8807 47 44.5 47C43.1193 47 42 45.8807 42 44.5C42 43.1193 43.1193 42 44.5 42C45.8807 42 47 43.1193 47 44.5Z" fill="#FF0066"/>
<path d="M61 2.5C61 3.88071 59.8807 5 58.5 5C57.1193 5 56 3.88071 56 2.5C56 1.11929 57.1193 0 58.5 0C59.8807 0 61 1.11929 61 2.5Z" fill="#FF0066"/>
<path d="M61 16.5C61 17.8807 59.8807 19 58.5 19C57.1193 19 56 17.8807 56 16.5C56 15.1193 57.1193 14 58.5 14C59.8807 14 61 15.1193 61 16.5Z" fill="#FF0066"/>
<path d="M61 30.5C61 31.8807 59.8807 33 58.5 33C57.1193 33 56 31.8807 56 30.5C56 29.1193 57.1193 28 58.5 28C59.8807 28 61 29.1193 61 30.5Z" fill="#FF0066"/>
<path d="M61 44.5C61 45.8807 59.8807 47 58.5 47C57.1193 47 56 45.8807 56 44.5C56 43.1193 57.1193 42 58.5 42C59.8807 42 61 43.1193 61 44.5Z" fill="#FF0066"/>
<path d="M79 61.5C79 62.8807 77.8807 64 76.5 64C75.1193 64 74 62.8807 74 61.5C74 60.1193 75.1193 59 76.5 59C77.8807 59 79 60.1193 79 61.5Z" fill="#68E1FD"/>
<path d="M79 75.5C79 76.8807 77.8807 78 76.5 78C75.1193 78 74 76.8807 74 75.5C74 74.1193 75.1193 73 76.5 73C77.8807 73 79 74.1193 79 75.5Z" fill="#68E1FD"/>
<path d="M79 89.5C79 90.8807 77.8807 92 76.5 92C75.1193 92 74 90.8807 74 89.5C74 88.1193 75.1193 87 76.5 87C77.8807 87 79 88.1193 79 89.5Z" fill="#68E1FD"/>
<path d="M79 103.5C79 104.881 77.8807 106 76.5 106C75.1193 106 74 104.881 74 103.5C74 102.119 75.1193 101 76.5 101C77.8807 101 79 102.119 79 103.5Z" fill="#68E1FD"/>
<path d="M93 61.5C93 62.8807 91.8807 64 90.5 64C89.1193 64 88 62.8807 88 61.5C88 60.1193 89.1193 59 90.5 59C91.8807 59 93 60.1193 93 61.5Z" fill="#68E1FD"/>
<path d="M93 75.5C93 76.8807 91.8807 78 90.5 78C89.1193 78 88 76.8807 88 75.5C88 74.1193 89.1193 73 90.5 73C91.8807 73 93 74.1193 93 75.5Z" fill="#68E1FD"/>
<path d="M93 89.5C93 90.8807 91.8807 92 90.5 92C89.1193 92 88 90.8807 88 89.5C88 88.1193 89.1193 87 90.5 87C91.8807 87 93 88.1193 93 89.5Z" fill="#68E1FD"/>
<path d="M93 103.5C93 104.881 91.8807 106 90.5 106C89.1193 106 88 104.881 88 103.5C88 102.119 89.1193 101 90.5 101C91.8807 101 93 102.119 93 103.5Z" fill="#68E1FD"/>
<path d="M107 61.5C107 62.8807 105.881 64 104.5 64C103.119 64 102 62.8807 102 61.5C102 60.1193 103.119 59 104.5 59C105.881 59 107 60.1193 107 61.5Z" fill="#68E1FD"/>
<path d="M107 75.5C107 76.8807 105.881 78 104.5 78C103.119 78 102 76.8807 102 75.5C102 74.1193 103.119 73 104.5 73C105.881 73 107 74.1193 107 75.5Z" fill="#68E1FD"/>
<path d="M107 89.5C107 90.8807 105.881 92 104.5 92C103.119 92 102 90.8807 102 89.5C102 88.1193 103.119 87 104.5 87C105.881 87 107 88.1193 107 89.5Z" fill="#68E1FD"/>
<path d="M107 103.5C107 104.881 105.881 106 104.5 106C103.119 106 102 104.881 102 103.5C102 102.119 103.119 101 104.5 101C105.881 101 107 102.119 107 103.5Z" fill="#68E1FD"/>
<path d="M121 61.5C121 62.8807 119.881 64 118.5 64C117.119 64 116 62.8807 116 61.5C116 60.1193 117.119 59 118.5 59C119.881 59 121 60.1193 121 61.5Z" fill="#68E1FD"/>
<path d="M121 75.5C121 76.8807 119.881 78 118.5 78C117.119 78 116 76.8807 116 75.5C116 74.1193 117.119 73 118.5 73C119.881 73 121 74.1193 121 75.5Z" fill="#68E1FD"/>
<path d="M121 89.5C121 90.8807 119.881 92 118.5 92C117.119 92 116 90.8807 116 89.5C116 88.1193 117.119 87 118.5 87C119.881 87 121 88.1193 121 89.5Z" fill="#68E1FD"/>
<path d="M121 103.5C121 104.881 119.881 106 118.5 106C117.119 106 116 104.881 116 103.5C116 102.119 117.119 101 118.5 101C119.881 101 121 102.119 121 103.5Z" fill="#68E1FD"/>
<path d="M135 61.5C135 62.8807 133.881 64 132.5 64C131.119 64 130 62.8807 130 61.5C130 60.1193 131.119 59 132.5 59C133.881 59 135 60.1193 135 61.5Z" fill="#68E1FD"/>
<path d="M135 75.5C135 76.8807 133.881 78 132.5 78C131.119 78 130 76.8807 130 75.5C130 74.1193 131.119 73 132.5 73C133.881 73 135 74.1193 135 75.5Z" fill="#68E1FD"/>
<path d="M135 89.5C135 90.8807 133.881 92 132.5 92C131.119 92 130 90.8807 130 89.5C130 88.1193 131.119 87 132.5 87C133.881 87 135 88.1193 135 89.5Z" fill="#68E1FD"/>
<path d="M135 103.5C135 104.881 133.881 106 132.5 106C131.119 106 130 104.881 130 103.5C130 102.119 131.119 101 132.5 101C133.881 101 135 102.119 135 103.5Z" fill="#68E1FD"/>
</svg>
