<svg width="115" height="109" viewBox="0 0 115 109" fill="none" xmlns="http://www.w3.org/2000/svg">
<path d="M2.82487 2.42685C2.83141 3.31292 2.207 4.03586 1.4302 4.0416C0.653406 4.04733 0.0183859 3.33369 0.0118444 2.44762C0.00530294 1.56156 0.629717 0.838613 1.40651 0.832878C2.18331 0.827143 2.81833 1.54079 2.82487 2.42685Z" fill="#FF0066"/>
<path d="M2.8912 11.4113C2.89774 12.2973 2.27333 13.0203 1.49653 13.026C0.719735 13.0318 0.0847148 12.3181 0.0781733 11.432C0.0716318 10.546 0.696046 9.82303 1.47284 9.8173C2.24964 9.81156 2.88466 10.5252 2.8912 11.4113Z" fill="#FF0066"/>
<path d="M2.95753 20.3957C2.96407 21.2818 2.33965 22.0047 1.56286 22.0104C0.786064 22.0162 0.151044 21.3025 0.144502 20.4165C0.137961 19.5304 0.762375 18.8075 1.53917 18.8017C2.31597 18.796 2.95099 19.5096 2.95753 20.3957Z" fill="#FF0066"/>
<path d="M3.02386 29.3801C3.0304 30.2662 2.40598 30.9891 1.62919 30.9949C0.852392 31.0006 0.217373 30.2869 0.210831 29.4009C0.20429 28.5148 0.828704 27.7919 1.6055 27.7861C2.38229 27.7804 3.01731 28.494 3.02386 29.3801Z" fill="#FF0066"/>
<path d="M10.7013 2.36871C10.7079 3.25477 10.0835 3.97772 9.30667 3.98345C8.52987 3.98918 7.89485 3.27554 7.88831 2.38947C7.88177 1.50341 8.50619 0.780463 9.28298 0.774729C10.0598 0.768994 10.6948 1.48264 10.7013 2.36871Z" fill="#FF0066"/>
<path d="M10.7677 11.3531C10.7742 12.2392 10.1498 12.9621 9.373 12.9679C8.5962 12.9736 7.96118 12.26 7.95464 11.3739C7.9481 10.4878 8.57251 9.76488 9.34931 9.75915C10.1261 9.75341 10.7611 10.4671 10.7677 11.3531Z" fill="#FF0066"/>
<path d="M10.834 20.3375C10.8405 21.2236 10.2161 21.9466 9.43933 21.9523C8.66253 21.958 8.02751 21.2444 8.02097 20.3583C8.01443 19.4722 8.63884 18.7493 9.41564 18.7436C10.1924 18.7378 10.8275 19.4515 10.834 20.3375Z" fill="#FF0066"/>
<path d="M10.9003 29.322C10.9069 30.208 10.2825 30.931 9.50566 30.9367C8.72886 30.9424 8.09384 30.2288 8.0873 29.3427C8.08076 28.4567 8.70517 27.7337 9.48197 27.728C10.2588 27.7223 10.8938 28.4359 10.9003 29.322Z" fill="#FF0066"/>
<path d="M18.5778 2.31056C18.5843 3.19662 17.9599 3.91957 17.1831 3.9253C16.4063 3.93104 15.7713 3.21739 15.7648 2.33132C15.7582 1.44526 16.3827 0.722314 17.1594 0.716579C17.9362 0.710845 18.5713 1.42449 18.5778 2.31056Z" fill="#FF0066"/>
<path d="M18.6441 11.295C18.6507 12.181 18.0263 12.904 17.2495 12.9097C16.4727 12.9155 15.8377 12.2018 15.8311 11.3157C15.8246 10.4297 16.449 9.70673 17.2258 9.701C18.0026 9.69526 18.6376 10.4089 18.6441 11.295Z" fill="#FF0066"/>
<path d="M18.7105 20.2794C18.717 21.1655 18.0926 21.8884 17.3158 21.8941C16.539 21.8999 15.904 21.1862 15.8974 20.3002C15.8909 19.4141 16.5153 18.6912 17.2921 18.6854C18.0689 18.6797 18.7039 19.3933 18.7105 20.2794Z" fill="#FF0066"/>
<path d="M18.7768 29.2638C18.7833 30.1499 18.1589 30.8728 17.3821 30.8786C16.6053 30.8843 15.9703 30.1706 15.9638 29.2846C15.9572 28.3985 16.5816 27.6756 17.3584 27.6698C18.1352 27.6641 18.7703 28.3777 18.7768 29.2638Z" fill="#FF0066"/>
<path d="M26.4543 2.25241C26.4608 3.13847 25.8364 3.86142 25.0596 3.86715C24.2828 3.87289 23.6478 3.15924 23.6412 2.27317C23.6347 1.38711 24.2591 0.664165 25.0359 0.65843C25.8127 0.652695 26.4477 1.36634 26.4543 2.25241Z" fill="#FF0066"/>
<path d="M26.5206 11.2368C26.5271 12.1229 25.9027 12.8458 25.1259 12.8516C24.3491 12.8573 23.7141 12.1437 23.7076 11.2576C23.701 10.3715 24.3255 9.64858 25.1022 9.64285C25.879 9.63711 26.5141 10.3508 26.5206 11.2368Z" fill="#FF0066"/>
<path d="M26.5869 20.2212C26.5935 21.1073 25.9691 21.8303 25.1923 21.836C24.4155 21.8417 23.7804 21.1281 23.7739 20.242C23.7674 19.3559 24.3918 18.633 25.1686 18.6273C25.9454 18.6215 26.5804 19.3352 26.5869 20.2212Z" fill="#FF0066"/>
<path d="M26.6533 29.2057C26.6598 30.0917 26.0354 30.8147 25.2586 30.8204C24.4818 30.8261 23.8468 30.1125 23.8402 29.2264C23.8337 28.3404 24.4581 27.6174 25.2349 27.6117C26.0117 27.606 26.6467 28.3196 26.6533 29.2057Z" fill="#FF0066"/>
<path d="M34.3307 2.19426C34.3373 3.08032 33.7129 3.80327 32.9361 3.809C32.1593 3.81474 31.5243 3.10109 31.5177 2.21503C31.5112 1.32896 32.1356 0.606016 32.9124 0.600281C33.6892 0.594546 34.3242 1.30819 34.3307 2.19426Z" fill="#FF0066"/>
<path d="M34.3971 11.1787C34.4036 12.0647 33.7792 12.7877 33.0024 12.7934C32.2256 12.7992 31.5906 12.0855 31.584 11.1994C31.5775 10.3134 32.2019 9.59043 32.9787 9.5847C33.7555 9.57897 34.3905 10.2926 34.3971 11.1787Z" fill="#FF0066"/>
<path d="M34.4634 20.1631C34.4699 21.0492 33.8455 21.7721 33.0687 21.7778C32.2919 21.7836 31.6569 21.0699 31.6504 20.1839C31.6438 19.2978 32.2682 18.5749 33.045 18.5691C33.8218 18.5634 34.4569 19.277 34.4634 20.1631Z" fill="#FF0066"/>
<path d="M34.5297 29.1475C34.5363 30.0336 33.9119 30.7565 33.1351 30.7623C32.3583 30.768 31.7232 30.0543 31.7167 29.1683C31.7102 28.2822 32.3346 27.5593 33.1114 27.5535C33.8882 27.5478 34.5232 28.2615 34.5297 29.1475Z" fill="#FF0066"/>
<path d="M43.6025 38.7071C43.609 39.5932 42.9846 40.3161 42.2078 40.3219C41.431 40.3276 40.796 39.614 40.7894 38.7279C40.7829 37.8418 41.4073 37.1189 42.1841 37.1132C42.9609 37.1074 43.5959 37.8211 43.6025 38.7071Z" fill="#0097F5"/>
<path d="M43.6688 47.6915C43.6753 48.5776 43.0509 49.3006 42.2741 49.3063C41.4973 49.312 40.8623 48.5984 40.8558 47.7123C40.8492 46.8263 41.4736 46.1033 42.2504 46.0976C43.0272 46.0918 43.6622 46.8055 43.6688 47.6915Z" fill="#0097F5"/>
<path d="M43.7351 56.676C43.7417 57.562 43.1172 58.285 42.3404 58.2907C41.5637 58.2964 40.9286 57.5828 40.9221 56.6967C40.9155 55.8107 41.54 55.0877 42.3168 55.082C43.0936 55.0763 43.7286 55.7899 43.7351 56.676Z" fill="#0097F5"/>
<path d="M43.8014 65.6604C43.808 66.5465 43.1836 67.2694 42.4068 67.2751C41.63 67.2809 40.995 66.5672 40.9884 65.6812C40.9819 64.7951 41.6063 64.0721 42.3831 64.0664C43.1599 64.0607 43.7949 64.7743 43.8014 65.6604Z" fill="#0097F5"/>
<path d="M51.4789 38.649C51.4855 39.535 50.8611 40.258 50.0843 40.2637C49.3075 40.2695 48.6724 39.5558 48.6659 38.6697C48.6594 37.7837 49.2838 37.0607 50.0606 37.055C50.8374 37.0493 51.4724 37.7629 51.4789 38.649Z" fill="#0097F5"/>
<path d="M51.5453 47.6334C51.5518 48.5195 50.9274 49.2424 50.1506 49.2481C49.3738 49.2539 48.7388 48.5402 48.7322 47.6542C48.7257 46.7681 49.3501 46.0452 50.1269 46.0394C50.9037 46.0337 51.5387 46.7473 51.5453 47.6334Z" fill="#0097F5"/>
<path d="M51.6116 56.6178C51.6181 57.5039 50.9937 58.2268 50.2169 58.2326C49.4401 58.2383 48.8051 57.5246 48.7986 56.6386C48.792 55.7525 49.4164 55.0296 50.1932 55.0238C50.97 55.0181 51.605 55.7318 51.6116 56.6178Z" fill="#0097F5"/>
<path d="M51.6779 65.6022C51.6845 66.4883 51.06 67.2112 50.2832 67.217C49.5064 67.2227 48.8714 66.5091 48.8649 65.623C48.8583 64.7369 49.4828 64.014 50.2596 64.0083C51.0363 64.0025 51.6714 64.7162 51.6779 65.6022Z" fill="#0097F5"/>
<path d="M59.3554 38.5908C59.3619 39.4769 58.7375 40.1998 57.9607 40.2056C57.1839 40.2113 56.5489 39.4977 56.5424 38.6116C56.5358 37.7255 57.1602 37.0026 57.937 36.9969C58.7138 36.9911 59.3488 37.7048 59.3554 38.5908Z" fill="#0097F5"/>
<path d="M59.4217 47.5752C59.4283 48.4613 58.8038 49.1843 58.0271 49.19C57.2503 49.1957 56.6152 48.4821 56.6087 47.596C56.6022 46.71 57.2266 45.987 58.0034 45.9813C58.7802 45.9755 59.4152 46.6892 59.4217 47.5752Z" fill="#0097F5"/>
<path d="M59.488 56.5597C59.4946 57.4457 58.8702 58.1687 58.0934 58.1744C57.3166 58.1801 56.6816 57.4665 56.675 56.5804C56.6685 55.6944 57.2929 54.9714 58.0697 54.9657C58.8465 54.96 59.4815 55.6736 59.488 56.5597Z" fill="#0097F5"/>
<path d="M59.5544 65.5441C59.5609 66.4302 58.9365 67.1531 58.1597 67.1588C57.3829 67.1646 56.7479 66.4509 56.7414 65.5649C56.7348 64.6788 57.3592 63.9558 58.136 63.9501C58.9128 63.9444 59.5478 64.658 59.5544 65.5441Z" fill="#0097F5"/>
<path d="M67.2319 38.5327C67.2384 39.4187 66.614 40.1417 65.8372 40.1474C65.0604 40.1532 64.4254 39.4395 64.4188 38.5534C64.4123 37.6674 65.0367 36.9444 65.8135 36.9387C66.5903 36.933 67.2253 37.6466 67.2319 38.5327Z" fill="#0097F5"/>
<path d="M67.2982 47.5171C67.3047 48.4032 66.6803 49.1261 65.9035 49.1318C65.1267 49.1376 64.4917 48.4239 64.4852 47.5379C64.4786 46.6518 65.103 45.9289 65.8798 45.9231C66.6566 45.9174 67.2916 46.631 67.2982 47.5171Z" fill="#0097F5"/>
<path d="M67.3645 56.5015C67.3711 57.3876 66.7466 58.1105 65.9698 58.1163C65.1931 58.122 64.558 57.4083 64.5515 56.5223C64.5449 55.6362 65.1694 54.9133 65.9462 54.9075C66.723 54.9018 67.358 55.6155 67.3645 56.5015Z" fill="#0097F5"/>
<path d="M67.4308 65.4859C67.4374 66.372 66.813 67.0949 66.0362 67.1007C65.2594 67.1064 64.6244 66.3928 64.6178 65.5067C64.6113 64.6206 65.2357 63.8977 66.0125 63.892C66.7893 63.8862 67.4243 64.5999 67.4308 65.4859Z" fill="#0097F5"/>
<path d="M75.1083 38.4745C75.1149 39.3606 74.4905 40.0835 73.7137 40.0893C72.9369 40.095 72.3018 39.3814 72.2953 38.4953C72.2888 37.6092 72.9132 36.8863 73.69 36.8806C74.4668 36.8748 75.1018 37.5885 75.1083 38.4745Z" fill="#0097F5"/>
<path d="M75.1747 47.459C75.1812 48.345 74.5568 49.068 73.78 49.0737C73.0032 49.0794 72.3682 48.3658 72.3616 47.4797C72.3551 46.5937 72.9795 45.8707 73.7563 45.865C74.5331 45.8592 75.1681 46.5729 75.1747 47.459Z" fill="#0097F5"/>
<path d="M75.241 56.4434C75.2475 57.3294 74.6231 58.0524 73.8463 58.0581C73.0695 58.0638 72.4345 57.3502 72.428 56.4641C72.4214 55.5781 73.0458 54.8551 73.8226 54.8494C74.5994 54.8437 75.2344 55.5573 75.241 56.4434Z" fill="#0097F5"/>
<path d="M75.3073 65.4278C75.3139 66.3139 74.6894 67.0368 73.9126 67.0425C73.1358 67.0483 72.5008 66.3346 72.4943 65.4486C72.4877 64.5625 73.1122 63.8395 73.889 63.8338C74.6658 63.8281 75.3008 64.5417 75.3073 65.4278Z" fill="#0097F5"/>
<path d="M83.2833 78.8463C83.2898 79.7324 82.6654 80.4553 81.8886 80.461C81.1118 80.4668 80.4768 79.7531 80.4703 78.8671C80.4637 77.981 81.0882 77.258 81.8649 77.2523C82.6417 77.2466 83.2768 77.9602 83.2833 78.8463Z" fill="#C8FCD2"/>
<path d="M83.3496 87.8307C83.3562 88.7168 82.7318 89.4397 81.955 89.4455C81.1782 89.4512 80.5431 88.7375 80.5366 87.8515C80.5301 86.9654 81.1545 86.2425 81.9313 86.2367C82.7081 86.231 83.3431 86.9446 83.3496 87.8307Z" fill="#C8FCD2"/>
<path d="M83.416 96.8151C83.4225 97.7012 82.7981 98.4241 82.0213 98.4299C81.2445 98.4356 80.6095 97.722 80.6029 96.8359C80.5964 95.9498 81.2208 95.2269 81.9976 95.2212C82.7744 95.2154 83.4094 95.9291 83.416 96.8151Z" fill="#C8FCD2"/>
<path d="M83.4823 105.8C83.4888 106.686 82.8644 107.409 82.0876 107.414C81.3108 107.42 80.6758 106.706 80.6693 105.82C80.6627 104.934 81.2871 104.211 82.0639 104.206C82.8407 104.2 83.4757 104.913 83.4823 105.8Z" fill="#C8FCD2"/>
<path d="M91.1598 78.7881C91.1663 79.6742 90.5419 80.3971 89.7651 80.4029C88.9883 80.4086 88.3533 79.695 88.3467 78.8089C88.3402 77.9228 88.9646 77.1999 89.7414 77.1942C90.5182 77.1884 91.1532 77.9021 91.1598 78.7881Z" fill="#C8FCD2"/>
<path d="M91.2261 87.7726C91.2326 88.6586 90.6082 89.3816 89.8314 89.3873C89.0546 89.393 88.4196 88.6794 88.4131 87.7933C88.4065 86.9073 89.0309 86.1843 89.8077 86.1786C90.5845 86.1728 91.2196 86.8865 91.2261 87.7726Z" fill="#C8FCD2"/>
<path d="M91.2924 96.757C91.299 97.643 90.6746 98.366 89.8978 98.3717C89.121 98.3775 88.4859 97.6638 88.4794 96.7777C88.4729 95.8917 89.0973 95.1687 89.8741 95.163C90.6509 95.1573 91.2859 95.8709 91.2924 96.757Z" fill="#C8FCD2"/>
<path d="M91.3588 105.741C91.3653 106.627 90.7409 107.35 89.9641 107.356C89.1873 107.362 88.5523 106.648 88.5457 105.762C88.5392 104.876 89.1636 104.153 89.9404 104.147C90.7172 104.142 91.3522 104.855 91.3588 105.741Z" fill="#C8FCD2"/>
<path d="M99.0362 78.73C99.0428 79.6161 98.4184 80.339 97.6416 80.3447C96.8648 80.3505 96.2298 79.6368 96.2232 78.7508C96.2167 77.8647 96.8411 77.1417 97.6179 77.136C98.3947 77.1303 99.0297 77.8439 99.0362 78.73Z" fill="#C8FCD2"/>
<path d="M99.1026 87.7144C99.1091 88.6005 98.4847 89.3234 97.7079 89.3292C96.9311 89.3349 96.2961 88.6212 96.2895 87.7352C96.283 86.8491 96.9074 86.1262 97.6842 86.1204C98.461 86.1147 99.096 86.8283 99.1026 87.7144Z" fill="#C8FCD2"/>
<path d="M99.1689 96.6988C99.1754 97.5849 98.551 98.3078 97.7742 98.3136C96.9974 98.3193 96.3624 97.6057 96.3559 96.7196C96.3493 95.8335 96.9737 95.1106 97.7505 95.1049C98.5273 95.0991 99.1624 95.8128 99.1689 96.6988Z" fill="#C8FCD2"/>
<path d="M99.2352 105.683C99.2418 106.569 98.6174 107.292 97.8406 107.298C97.0638 107.304 96.4287 106.59 96.4222 105.704C96.4157 104.818 97.0401 104.095 97.8169 104.089C98.5937 104.084 99.2287 104.797 99.2352 105.683Z" fill="#C8FCD2"/>
<path d="M106.913 78.6718C106.919 79.5579 106.295 80.2809 105.518 80.2866C104.741 80.2923 104.106 79.5787 104.1 78.6926C104.093 77.8065 104.718 77.0836 105.494 77.0779C106.271 77.0721 106.906 77.7858 106.913 78.6718Z" fill="#C8FCD2"/>
<path d="M106.979 87.6563C106.986 88.5423 106.361 89.2653 105.584 89.271C104.808 89.2767 104.173 88.5631 104.166 87.677C104.159 86.791 104.784 86.068 105.561 86.0623C106.337 86.0565 106.972 86.7702 106.979 87.6563Z" fill="#C8FCD2"/>
<path d="M107.045 96.6407C107.052 97.5267 106.427 98.2497 105.651 98.2554C104.874 98.2612 104.239 97.5475 104.232 96.6614C104.226 95.7754 104.85 95.0524 105.627 95.0467C106.404 95.041 107.039 95.7546 107.045 96.6407Z" fill="#C8FCD2"/>
<path d="M107.112 105.625C107.118 106.511 106.494 107.234 105.717 107.24C104.94 107.246 104.305 106.532 104.299 105.646C104.292 104.76 104.917 104.037 105.693 104.031C106.47 104.025 107.105 104.739 107.112 105.625Z" fill="#C8FCD2"/>
<path d="M114.789 78.6137C114.796 79.4998 114.171 80.2227 113.395 80.2284C112.618 80.2342 111.983 79.5205 111.976 78.6345C111.97 77.7484 112.594 77.0254 113.371 77.0197C114.148 77.014 114.783 77.7276 114.789 78.6137Z" fill="#C8FCD2"/>
<path d="M114.856 87.5981C114.862 88.4842 114.238 89.2071 113.461 89.2129C112.684 89.2186 112.049 88.5049 112.042 87.6189C112.036 86.7328 112.66 86.0099 113.437 86.0041C114.214 85.9984 114.849 86.712 114.856 87.5981Z" fill="#C8FCD2"/>
<path d="M114.922 96.5825C114.928 97.4686 114.304 98.1915 113.527 98.1973C112.75 98.203 112.115 97.4894 112.109 96.6033C112.102 95.7172 112.727 94.9943 113.503 94.9886C114.28 94.9828 114.915 95.6965 114.922 96.5825Z" fill="#C8FCD2"/>
<path d="M114.988 105.567C114.995 106.453 114.37 107.176 113.593 107.182C112.817 107.187 112.182 106.474 112.175 105.588C112.169 104.702 112.793 103.979 113.57 103.973C114.347 103.967 114.982 104.681 114.988 105.567Z" fill="#C8FCD2"/>
</svg>
