<svg width="203" height="167" viewBox="0 0 203 167" fill="none" xmlns="http://www.w3.org/2000/svg">
<path d="M5 2.5C5 3.88071 3.88071 5 2.5 5C1.11929 5 0 3.88071 0 2.5C0 1.11929 1.11929 0 2.5 0C3.88071 0 5 1.11929 5 2.5Z" fill="#FF0066"/>
<path d="M5 16.5C5 17.8807 3.88071 19 2.5 19C1.11929 19 0 17.8807 0 16.5C0 15.1193 1.11929 14 2.5 14C3.88071 14 5 15.1193 5 16.5Z" fill="#FF0066"/>
<path d="M5 30.5C5 31.8807 3.88071 33 2.5 33C1.11929 33 0 31.8807 0 30.5C0 29.1193 1.11929 28 2.5 28C3.88071 28 5 29.1193 5 30.5Z" fill="#FF0066"/>
<path d="M5 44.5C5 45.8807 3.88071 47 2.5 47C1.11929 47 0 45.8807 0 44.5C0 43.1193 1.11929 42 2.5 42C3.88071 42 5 43.1193 5 44.5Z" fill="#FF0066"/>
<path d="M19 2.5C19 3.88071 17.8807 5 16.5 5C15.1193 5 14 3.88071 14 2.5C14 1.11929 15.1193 0 16.5 0C17.8807 0 19 1.11929 19 2.5Z" fill="#FF0066"/>
<path d="M19 16.5C19 17.8807 17.8807 19 16.5 19C15.1193 19 14 17.8807 14 16.5C14 15.1193 15.1193 14 16.5 14C17.8807 14 19 15.1193 19 16.5Z" fill="#FF0066"/>
<path d="M19 30.5C19 31.8807 17.8807 33 16.5 33C15.1193 33 14 31.8807 14 30.5C14 29.1193 15.1193 28 16.5 28C17.8807 28 19 29.1193 19 30.5Z" fill="#FF0066"/>
<path d="M19 44.5C19 45.8807 17.8807 47 16.5 47C15.1193 47 14 45.8807 14 44.5C14 43.1193 15.1193 42 16.5 42C17.8807 42 19 43.1193 19 44.5Z" fill="#FF0066"/>
<path d="M33 2.5C33 3.88071 31.8807 5 30.5 5C29.1193 5 28 3.88071 28 2.5C28 1.11929 29.1193 0 30.5 0C31.8807 0 33 1.11929 33 2.5Z" fill="#FF0066"/>
<path d="M33 16.5C33 17.8807 31.8807 19 30.5 19C29.1193 19 28 17.8807 28 16.5C28 15.1193 29.1193 14 30.5 14C31.8807 14 33 15.1193 33 16.5Z" fill="#FF0066"/>
<path d="M33 30.5C33 31.8807 31.8807 33 30.5 33C29.1193 33 28 31.8807 28 30.5C28 29.1193 29.1193 28 30.5 28C31.8807 28 33 29.1193 33 30.5Z" fill="#FF0066"/>
<path d="M33 44.5C33 45.8807 31.8807 47 30.5 47C29.1193 47 28 45.8807 28 44.5C28 43.1193 29.1193 42 30.5 42C31.8807 42 33 43.1193 33 44.5Z" fill="#FF0066"/>
<path d="M47 2.5C47 3.88071 45.8807 5 44.5 5C43.1193 5 42 3.88071 42 2.5C42 1.11929 43.1193 0 44.5 0C45.8807 0 47 1.11929 47 2.5Z" fill="#FF0066"/>
<path d="M47 16.5C47 17.8807 45.8807 19 44.5 19C43.1193 19 42 17.8807 42 16.5C42 15.1193 43.1193 14 44.5 14C45.8807 14 47 15.1193 47 16.5Z" fill="#FF0066"/>
<path d="M47 30.5C47 31.8807 45.8807 33 44.5 33C43.1193 33 42 31.8807 42 30.5C42 29.1193 43.1193 28 44.5 28C45.8807 28 47 29.1193 47 30.5Z" fill="#FF0066"/>
<path d="M47 44.5C47 45.8807 45.8807 47 44.5 47C43.1193 47 42 45.8807 42 44.5C42 43.1193 43.1193 42 44.5 42C45.8807 42 47 43.1193 47 44.5Z" fill="#FF0066"/>
<path d="M61 2.5C61 3.88071 59.8807 5 58.5 5C57.1193 5 56 3.88071 56 2.5C56 1.11929 57.1193 0 58.5 0C59.8807 0 61 1.11929 61 2.5Z" fill="#FF0066"/>
<path d="M61 16.5C61 17.8807 59.8807 19 58.5 19C57.1193 19 56 17.8807 56 16.5C56 15.1193 57.1193 14 58.5 14C59.8807 14 61 15.1193 61 16.5Z" fill="#FF0066"/>
<path d="M61 30.5C61 31.8807 59.8807 33 58.5 33C57.1193 33 56 31.8807 56 30.5C56 29.1193 57.1193 28 58.5 28C59.8807 28 61 29.1193 61 30.5Z" fill="#FF0066"/>
<path d="M61 44.5C61 45.8807 59.8807 47 58.5 47C57.1193 47 56 45.8807 56 44.5C56 43.1193 57.1193 42 58.5 42C59.8807 42 61 43.1193 61 44.5Z" fill="#FF0066"/>
<path d="M77 59.5C77 60.8807 75.8807 62 74.5 62C73.1193 62 72 60.8807 72 59.5C72 58.1193 73.1193 57 74.5 57C75.8807 57 77 58.1193 77 59.5Z" fill="#0097F5"/>
<path d="M77 73.5C77 74.8807 75.8807 76 74.5 76C73.1193 76 72 74.8807 72 73.5C72 72.1193 73.1193 71 74.5 71C75.8807 71 77 72.1193 77 73.5Z" fill="#0097F5"/>
<path d="M77 87.5C77 88.8807 75.8807 90 74.5 90C73.1193 90 72 88.8807 72 87.5C72 86.1193 73.1193 85 74.5 85C75.8807 85 77 86.1193 77 87.5Z" fill="#0097F5"/>
<path d="M77 101.5C77 102.881 75.8807 104 74.5 104C73.1193 104 72 102.881 72 101.5C72 100.119 73.1193 99 74.5 99C75.8807 99 77 100.119 77 101.5Z" fill="#0097F5"/>
<path d="M91 59.5C91 60.8807 89.8807 62 88.5 62C87.1193 62 86 60.8807 86 59.5C86 58.1193 87.1193 57 88.5 57C89.8807 57 91 58.1193 91 59.5Z" fill="#0097F5"/>
<path d="M91 73.5C91 74.8807 89.8807 76 88.5 76C87.1193 76 86 74.8807 86 73.5C86 72.1193 87.1193 71 88.5 71C89.8807 71 91 72.1193 91 73.5Z" fill="#0097F5"/>
<path d="M91 87.5C91 88.8807 89.8807 90 88.5 90C87.1193 90 86 88.8807 86 87.5C86 86.1193 87.1193 85 88.5 85C89.8807 85 91 86.1193 91 87.5Z" fill="#0097F5"/>
<path d="M91 101.5C91 102.881 89.8807 104 88.5 104C87.1193 104 86 102.881 86 101.5C86 100.119 87.1193 99 88.5 99C89.8807 99 91 100.119 91 101.5Z" fill="#0097F5"/>
<path d="M105 59.5C105 60.8807 103.881 62 102.5 62C101.119 62 100 60.8807 100 59.5C100 58.1193 101.119 57 102.5 57C103.881 57 105 58.1193 105 59.5Z" fill="#0097F5"/>
<path d="M105 73.5C105 74.8807 103.881 76 102.5 76C101.119 76 100 74.8807 100 73.5C100 72.1193 101.119 71 102.5 71C103.881 71 105 72.1193 105 73.5Z" fill="#0097F5"/>
<path d="M105 87.5C105 88.8807 103.881 90 102.5 90C101.119 90 100 88.8807 100 87.5C100 86.1193 101.119 85 102.5 85C103.881 85 105 86.1193 105 87.5Z" fill="#0097F5"/>
<path d="M105 101.5C105 102.881 103.881 104 102.5 104C101.119 104 100 102.881 100 101.5C100 100.119 101.119 99 102.5 99C103.881 99 105 100.119 105 101.5Z" fill="#0097F5"/>
<path d="M119 59.5C119 60.8807 117.881 62 116.5 62C115.119 62 114 60.8807 114 59.5C114 58.1193 115.119 57 116.5 57C117.881 57 119 58.1193 119 59.5Z" fill="#0097F5"/>
<path d="M119 73.5C119 74.8807 117.881 76 116.5 76C115.119 76 114 74.8807 114 73.5C114 72.1193 115.119 71 116.5 71C117.881 71 119 72.1193 119 73.5Z" fill="#0097F5"/>
<path d="M119 87.5C119 88.8807 117.881 90 116.5 90C115.119 90 114 88.8807 114 87.5C114 86.1193 115.119 85 116.5 85C117.881 85 119 86.1193 119 87.5Z" fill="#0097F5"/>
<path d="M119 101.5C119 102.881 117.881 104 116.5 104C115.119 104 114 102.881 114 101.5C114 100.119 115.119 99 116.5 99C117.881 99 119 100.119 119 101.5Z" fill="#0097F5"/>
<path d="M133 59.5C133 60.8807 131.881 62 130.5 62C129.119 62 128 60.8807 128 59.5C128 58.1193 129.119 57 130.5 57C131.881 57 133 58.1193 133 59.5Z" fill="#0097F5"/>
<path d="M133 73.5C133 74.8807 131.881 76 130.5 76C129.119 76 128 74.8807 128 73.5C128 72.1193 129.119 71 130.5 71C131.881 71 133 72.1193 133 73.5Z" fill="#0097F5"/>
<path d="M133 87.5C133 88.8807 131.881 90 130.5 90C129.119 90 128 88.8807 128 87.5C128 86.1193 129.119 85 130.5 85C131.881 85 133 86.1193 133 87.5Z" fill="#0097F5"/>
<path d="M133 101.5C133 102.881 131.881 104 130.5 104C129.119 104 128 102.881 128 101.5C128 100.119 129.119 99 130.5 99C131.881 99 133 100.119 133 101.5Z" fill="#0097F5"/>
<path d="M147 122.5C147 123.881 145.881 125 144.5 125C143.119 125 142 123.881 142 122.5C142 121.119 143.119 120 144.5 120C145.881 120 147 121.119 147 122.5Z" fill="#C8FCD2"/>
<path d="M147 136.5C147 137.881 145.881 139 144.5 139C143.119 139 142 137.881 142 136.5C142 135.119 143.119 134 144.5 134C145.881 134 147 135.119 147 136.5Z" fill="#C8FCD2"/>
<path d="M147 150.5C147 151.881 145.881 153 144.5 153C143.119 153 142 151.881 142 150.5C142 149.119 143.119 148 144.5 148C145.881 148 147 149.119 147 150.5Z" fill="#C8FCD2"/>
<path d="M147 164.5C147 165.881 145.881 167 144.5 167C143.119 167 142 165.881 142 164.5C142 163.119 143.119 162 144.5 162C145.881 162 147 163.119 147 164.5Z" fill="#C8FCD2"/>
<path d="M161 122.5C161 123.881 159.881 125 158.5 125C157.119 125 156 123.881 156 122.5C156 121.119 157.119 120 158.5 120C159.881 120 161 121.119 161 122.5Z" fill="#C8FCD2"/>
<path d="M161 136.5C161 137.881 159.881 139 158.5 139C157.119 139 156 137.881 156 136.5C156 135.119 157.119 134 158.5 134C159.881 134 161 135.119 161 136.5Z" fill="#C8FCD2"/>
<path d="M161 150.5C161 151.881 159.881 153 158.5 153C157.119 153 156 151.881 156 150.5C156 149.119 157.119 148 158.5 148C159.881 148 161 149.119 161 150.5Z" fill="#C8FCD2"/>
<path d="M161 164.5C161 165.881 159.881 167 158.5 167C157.119 167 156 165.881 156 164.5C156 163.119 157.119 162 158.5 162C159.881 162 161 163.119 161 164.5Z" fill="#C8FCD2"/>
<path d="M175 122.5C175 123.881 173.881 125 172.5 125C171.119 125 170 123.881 170 122.5C170 121.119 171.119 120 172.5 120C173.881 120 175 121.119 175 122.5Z" fill="#C8FCD2"/>
<path d="M175 136.5C175 137.881 173.881 139 172.5 139C171.119 139 170 137.881 170 136.5C170 135.119 171.119 134 172.5 134C173.881 134 175 135.119 175 136.5Z" fill="#C8FCD2"/>
<path d="M175 150.5C175 151.881 173.881 153 172.5 153C171.119 153 170 151.881 170 150.5C170 149.119 171.119 148 172.5 148C173.881 148 175 149.119 175 150.5Z" fill="#C8FCD2"/>
<path d="M175 164.5C175 165.881 173.881 167 172.5 167C171.119 167 170 165.881 170 164.5C170 163.119 171.119 162 172.5 162C173.881 162 175 163.119 175 164.5Z" fill="#C8FCD2"/>
<path d="M189 122.5C189 123.881 187.881 125 186.5 125C185.119 125 184 123.881 184 122.5C184 121.119 185.119 120 186.5 120C187.881 120 189 121.119 189 122.5Z" fill="#C8FCD2"/>
<path d="M189 136.5C189 137.881 187.881 139 186.5 139C185.119 139 184 137.881 184 136.5C184 135.119 185.119 134 186.5 134C187.881 134 189 135.119 189 136.5Z" fill="#C8FCD2"/>
<path d="M189 150.5C189 151.881 187.881 153 186.5 153C185.119 153 184 151.881 184 150.5C184 149.119 185.119 148 186.5 148C187.881 148 189 149.119 189 150.5Z" fill="#C8FCD2"/>
<path d="M189 164.5C189 165.881 187.881 167 186.5 167C185.119 167 184 165.881 184 164.5C184 163.119 185.119 162 186.5 162C187.881 162 189 163.119 189 164.5Z" fill="#C8FCD2"/>
<path d="M203 122.5C203 123.881 201.881 125 200.5 125C199.119 125 198 123.881 198 122.5C198 121.119 199.119 120 200.5 120C201.881 120 203 121.119 203 122.5Z" fill="#C8FCD2"/>
<path d="M203 136.5C203 137.881 201.881 139 200.5 139C199.119 139 198 137.881 198 136.5C198 135.119 199.119 134 200.5 134C201.881 134 203 135.119 203 136.5Z" fill="#C8FCD2"/>
<path d="M203 150.5C203 151.881 201.881 153 200.5 153C199.119 153 198 151.881 198 150.5C198 149.119 199.119 148 200.5 148C201.881 148 203 149.119 203 150.5Z" fill="#C8FCD2"/>
<path d="M203 164.5C203 165.881 201.881 167 200.5 167C199.119 167 198 165.881 198 164.5C198 163.119 199.119 162 200.5 162C201.881 162 203 163.119 203 164.5Z" fill="#C8FCD2"/>
</svg>
