<svg width="160" height="142" viewBox="0 0 160 142" fill="none" xmlns="http://www.w3.org/2000/svg">
<path d="M79.6516 141.933C123.575 141.933 159.182 135.289 159.182 127.093C159.182 118.898 123.575 112.254 79.6516 112.254C35.7283 112.254 0.12146 118.898 0.12146 127.093C0.12146 135.289 35.7283 141.933 79.6516 141.933Z" fill="url(#paint0_linear_567_42)"/>
<path d="M134.207 98.8072L141.125 123.744C141.158 123.866 141.165 123.993 141.147 124.118C141.129 124.242 141.085 124.362 141.018 124.471C140.952 124.579 140.864 124.674 140.759 124.75C140.654 124.825 140.534 124.88 140.407 124.911C140.327 124.923 140.246 124.923 140.166 124.911C139.944 124.912 139.729 124.841 139.555 124.709C139.38 124.578 139.258 124.394 139.207 124.187L132.281 99.2566C132.215 99.0096 132.253 98.7472 132.387 98.5271C132.522 98.307 132.742 98.147 132.999 98.0822C133.25 98.018 133.518 98.0522 133.743 98.1773C133.968 98.3023 134.132 98.508 134.2 98.7492L134.207 98.8072Z" fill="#43E37F" fill-opacity="0.3"/>
<path d="M121.429 98.7999L116.324 123.563C116.278 123.83 116.345 124.104 116.509 124.324C116.673 124.544 116.922 124.693 117.2 124.737H117.366C117.583 124.738 117.792 124.665 117.959 124.533C118.126 124.401 118.24 124.217 118.28 124.013L123.393 99.2566C123.439 99.0009 123.381 98.738 123.233 98.5213C123.084 98.3045 122.855 98.1502 122.592 98.0895C122.355 98.0268 122.101 98.0563 121.887 98.1716C121.672 98.2869 121.513 98.4788 121.444 98.7057C121.444 98.7057 121.429 98.7709 121.429 98.7999Z" fill="#43E37F" fill-opacity="0.3"/>
<path d="M129.57 98.9014L134.011 123.744C134.031 123.881 134.023 124.021 133.987 124.155C133.951 124.289 133.887 124.415 133.8 124.526C133.713 124.636 133.604 124.729 133.48 124.799C133.355 124.869 133.217 124.915 133.074 124.933H132.939C132.724 124.936 132.516 124.864 132.352 124.73C132.188 124.597 132.08 124.412 132.047 124.208L127.592 99.3653C127.556 99.1067 127.621 98.8446 127.774 98.6292C127.928 98.4138 128.158 98.2603 128.422 98.1982C128.651 98.1329 128.897 98.1573 129.106 98.2661C129.316 98.3748 129.472 98.559 129.54 98.7782C129.555 98.818 129.565 98.8593 129.57 98.9014Z" fill="#43E37F" fill-opacity="0.3"/>
<path d="M116.407 99.0391L107.345 123.773C107.258 123.989 107.263 124.228 107.359 124.44C107.456 124.652 107.635 124.819 107.858 124.904C107.967 124.942 108.082 124.962 108.198 124.962C108.426 124.959 108.647 124.887 108.829 124.757C109.012 124.627 109.148 124.445 109.218 124.237L118.28 99.5103C118.324 99.4051 118.347 99.2926 118.345 99.1792C118.344 99.0658 118.32 98.9537 118.274 98.8493C118.227 98.7449 118.16 98.6503 118.076 98.571C117.991 98.4916 117.891 98.429 117.782 98.3867H117.668C117.411 98.3303 117.142 98.3654 116.91 98.4854C116.678 98.6054 116.499 98.8022 116.407 99.0391Z" fill="#43E37F" fill-opacity="0.3"/>
<path d="M120.274 79.8941C122.539 76.0592 125.613 72.2679 130.008 70.9993C132.719 70.2092 135.642 70.4846 138.436 70.9413C140.54 71.1881 142.573 71.8311 144.418 72.8334C145.337 73.3403 146.115 74.0523 146.687 74.909C147.259 75.7658 147.607 76.7422 147.703 77.7555C147.668 78.9281 147.412 80.085 146.947 81.1699L142.809 92.6019C142.265 94.1024 141.676 95.6755 140.43 96.7266C139.192 97.6109 137.753 98.1998 136.231 98.4447C131.3 99.6263 126.33 100.808 121.256 100.953C116.181 101.098 110.924 100.112 106.778 97.3283C105.268 96.3279 103.878 94.5664 104.679 92.9788C105.306 91.7827 106.945 91.4637 108.334 91.529C111.997 91.674 113.062 91.268 115.222 88.3901C117.193 85.7296 118.605 82.7285 120.274 79.8941Z" fill="#505365"/>
<path d="M117.419 76.0013C116.938 76.8058 116.284 77.5027 115.501 78.0455L105.797 85.8094C104.898 86.5343 103.901 87.4695 104.082 88.5858C104.093 88.6987 104.14 88.8054 104.218 88.8903C104.289 88.9435 104.371 88.9824 104.457 89.0048C104.544 89.0272 104.635 89.0327 104.724 89.0208C105.712 88.9996 106.694 88.8756 107.654 88.6511C108.666 88.4118 109.799 87.9262 110.003 86.9185C110.056 86.6431 110.003 86.3603 110.079 86.0849C110.176 85.7549 110.343 85.4477 110.569 85.1821C110.795 84.9165 111.075 84.6983 111.393 84.5408C112.148 84.0551 112.82 83.4969 113.545 83.004C114.972 82.0181 116.452 81.0974 117.97 80.242C119.035 79.6404 120.697 78.9372 121.331 77.857C121.965 76.7769 121.437 75.1821 121.052 74.0802C120.795 73.3553 120.47 73.2538 119.707 73.1523C118.945 73.0508 118.159 72.8261 117.902 73.638C117.646 74.4499 117.797 75.2256 117.419 76.0013Z" fill="#EC9C7D"/>
<path d="M133.686 71.1008C132.01 72.0287 130.597 71.0646 130.159 69.4045C129.978 68.6796 129.903 67.8967 129.653 67.15C129.273 66.2216 128.765 65.3464 128.143 64.5476C127.51 63.7485 127.055 62.8331 126.806 61.8581C126.691 61.3675 126.714 60.8562 126.874 60.3771C127.033 59.898 127.323 59.4683 127.713 59.1324C127.802 59.0539 127.907 58.9935 128.021 58.9549C128.135 58.9163 128.256 58.9002 128.377 58.9077C128.762 58.9439 128.966 59.3644 129.057 59.7413C129.072 60.1213 129.133 60.4983 129.238 60.865C129.388 61.1119 129.587 61.3279 129.825 61.5009C130.062 61.6738 130.332 61.8001 130.62 61.8726C131.927 62.3873 133.331 62.844 134.245 63.8661C135.022 64.8125 135.395 66.0074 135.287 67.208C135.212 68.3896 134.849 70.4701 133.686 71.1008Z" fill="#2F3554"/>
<path d="M116.369 78.8574L115.833 81.2279C115.725 81.5755 115.692 81.9405 115.735 82.3008C115.855 82.7436 116.098 83.147 116.437 83.4679C118.945 86.2226 121.15 86.4546 124.858 86.1573C127.025 85.9993 129.164 85.5829 131.224 84.9177C130.922 81.8803 131.224 77.7265 131.813 76.4434C133.369 73.0001 135.287 68.4331 133.059 65.8307C131.254 63.7284 127.962 63.9314 125.953 63.9893C124.442 63.9893 122.698 63.4674 121.308 64.1561C119.919 64.8448 118.914 66.4686 118.288 67.6574C117.903 68.3896 117.563 69.1423 117.268 69.9119C117.224 70.0033 117.199 70.1016 117.193 70.2019C117.209 70.3418 117.269 70.4734 117.366 70.5789L118.265 71.8402C116.989 73.6235 116.845 76.7769 116.369 78.8574Z" fill="white"/>
<path d="M124.722 51.7745C124.491 51.8741 124.285 52.0199 124.118 52.2022C123.695 52.8737 123.394 53.609 123.227 54.3769L122.056 57.5666C122.056 57.5666 118.22 57.6318 119.035 53.942C119.451 51.9992 120.727 50.1869 122.947 49.9985C123.458 50.0039 123.965 50.0721 124.458 50.2014C125.042 50.3029 125.64 50.3029 126.225 50.2014C126.451 50.1579 126.723 50.1072 126.889 50.2594C126.955 50.3299 126.995 50.4189 127.003 50.5131C127.011 50.6073 126.987 50.7014 126.935 50.7814C126.822 50.9332 126.671 51.0554 126.497 51.1366C125.96 51.3903 125.281 51.5063 124.722 51.7745Z" fill="#2F3554"/>
<path d="M127.856 51.2453C127.856 51.2453 121.437 49.5128 120.387 53.8333C120.166 54.7261 120.057 55.6412 120.062 56.559V57.4941C120.357 60.3213 121.83 62.467 124.216 62.2713C128.422 61.9451 132.878 53.4056 127.856 51.2453Z" fill="#EC9C7D"/>
<path d="M127.101 59.3209C127.178 59.394 127.283 59.4349 127.392 59.4349C127.5 59.4349 127.605 59.394 127.682 59.3209C127.213 59.9983 126.92 60.774 126.829 61.5826C126.504 63.9096 127.682 64.0111 127.682 64.0111C123.31 66.3598 122.66 64.736 122.66 64.736C122.941 64.3572 123.105 63.91 123.133 63.4458C123.161 62.9816 123.052 62.5193 122.819 62.1118C124.805 62.6338 126.595 60.3865 126.935 59.1107C126.965 59.196 127.023 59.2697 127.101 59.3209Z" fill="#D68369"/>
<path d="M123.249 50.6074C123.589 50.4914 123.914 50.5494 124.254 50.4624C124.626 50.3246 124.979 50.1419 125.303 49.9187C126.182 49.5344 127.16 49.4107 128.113 49.5635C128.861 49.6038 129.592 49.7966 130.258 50.1289C130.776 50.4456 131.214 50.871 131.537 51.3733C131.86 51.8755 132.06 52.4414 132.123 53.0286C132.22 54.2175 131.957 55.4079 131.368 56.4575C131.261 56.6346 131.18 56.8248 131.126 57.0229C130.983 57.8275 131.881 58.4075 132.229 59.1976C132.372 59.7442 132.463 60.3023 132.5 60.865C132.765 62.0321 133.86 62.8295 134.592 63.7646C135.244 64.5644 135.549 65.5742 135.446 66.5846C133.278 65.7871 130.816 66.0699 128.596 65.4029C128.104 65.2757 127.648 65.0454 127.259 64.7288C126.946 64.4033 126.712 64.0157 126.572 63.5936C126.433 63.1714 126.391 62.725 126.451 62.2858C126.527 61.6455 126.648 61.0109 126.814 60.3865C126.889 60.024 126.814 59.3716 127.199 59.1324C127.387 59.0098 127.584 58.9008 127.788 58.8062C128.02 58.6778 128.212 58.4928 128.344 58.2699C128.477 58.047 128.546 57.7943 128.543 57.5376C128.554 57.4294 128.536 57.3203 128.489 57.2211C128.443 57.1219 128.371 57.0361 128.279 56.9722C128.173 56.9266 128.055 56.9127 127.941 56.9321C127.826 56.9514 127.72 57.0033 127.637 57.0809C127.388 57.2911 127.418 57.5448 127.093 57.6028C126.743 57.6025 126.401 57.5015 126.111 57.3129C123.989 56.182 123.174 53.2026 122.532 51.1003C122.811 51.0496 122.94 50.7306 123.249 50.6074Z" fill="#2F3554"/>
<path d="M128.279 72.5579C130.046 67.6357 131.224 65.2145 133.022 65.8307C133.022 65.8307 135.378 66.9543 134.041 71.4778C132.531 76.5522 128.589 81.3004 128.589 81.3004L126.753 77.4221C126.753 77.4221 127.35 75.2691 128.279 72.5579Z" fill="#EC9C7D"/>
<path d="M109.588 90.6011C109.701 90.4706 110.064 90.0357 110.607 89.4702C110.556 89.5106 110.511 89.5569 110.471 89.608C110.159 89.9237 109.864 90.2552 109.588 90.6011Z" fill="#DC9BD5"/>
<path d="M130.96 83.4824C128.536 83.6201 125.983 83.7796 123.491 84.1276C123.491 84.1276 113.673 92.0364 112.465 93.9502C109.573 98.394 106.763 97.1326 110.955 103.628L119.337 116.618C120.757 117.075 122.275 115.893 122.69 114.444C122.975 113.012 122.823 111.532 122.252 110.181C121.391 107.383 120.553 104.578 119.723 101.787C119.459 101.171 119.459 100.481 119.723 99.8655C119.962 99.5599 120.272 99.3117 120.629 99.1406C121.626 98.5752 122.305 97.2341 123.408 96.9079C125.283 96.4295 127.067 95.6685 128.694 94.6534C130.339 93.625 131.496 92.0152 131.911 90.1734C132.319 87.9769 131.247 85.7514 130.96 83.4824Z" fill="#43E37F" fill-opacity="0.3"/>
<path d="M123.476 84.1493C121.467 84.3886 118.189 83.5042 118.189 83.5042C115.327 84.7293 112.231 87.7739 110.637 89.4847C110.086 90.0502 109.724 90.4851 109.61 90.6083L109.452 90.8041C107.685 93.0586 106.574 95.719 105.479 98.3432L99.9589 111.544C99.7549 111.957 99.6418 112.406 99.6266 112.863C99.7097 114.494 101.983 114.929 103.682 114.9L111.015 103.599C111.015 103.599 109.625 99.5683 112.525 93.9285C113.56 91.9059 123.566 84.1058 123.566 84.1058L123.476 84.1493Z" fill="#43E37F" fill-opacity="0.3"/>
<path d="M123.476 84.1493C121.467 84.3886 118.189 83.5042 118.189 83.5042C115.327 84.7293 112.231 87.7739 110.637 89.4847C110.086 90.0502 109.724 90.4851 109.61 90.6083L109.452 90.8041C107.685 93.0586 106.574 95.719 105.479 98.3432L99.9589 111.544C99.7549 111.957 99.6418 112.406 99.6266 112.863C99.7097 114.494 101.983 114.929 103.682 114.9L111.015 103.599C111.015 103.599 109.625 99.5683 112.525 93.9285C113.56 91.9059 123.566 84.1058 123.566 84.1058L123.476 84.1493Z" fill="url(#paint1_linear_567_42)"/>
<path d="M119.488 117.728C119.655 117.329 119.836 116.937 120.04 116.553C120.402 116.22 120.796 115.922 121.218 115.661C121.392 115.517 122.396 114.697 122.336 114.465C122.563 115.242 122.864 115.996 123.234 116.72C123.534 117.147 123.682 117.655 123.657 118.17C123.498 118.633 123.182 119.031 122.758 119.301C121.188 120.54 119.322 121.715 117.306 121.475C117.244 121.479 117.182 121.469 117.124 121.446C117.067 121.424 117.015 121.389 116.974 121.345C116.919 121.279 116.892 121.197 116.898 121.113C116.898 120.25 117.736 119.663 118.408 119.098C118.844 118.7 119.208 118.238 119.488 117.728Z" fill="#EC9C7D"/>
<path d="M123.317 117.372C122.94 117.488 122.615 118.017 122.336 118.286C121.966 118.634 121.572 118.959 121.157 119.257C120.992 119.404 120.796 119.515 120.583 119.585C120.369 119.655 120.143 119.682 119.919 119.663C119.481 119.576 119.164 119.199 118.741 119.069C118.55 119.017 118.351 119.008 118.156 119.04C117.961 119.073 117.776 119.147 117.616 119.257C117.288 119.467 117.006 119.735 116.785 120.047C116.148 120.842 115.753 121.79 115.644 122.787C115.633 122.842 115.633 122.899 115.645 122.953C115.657 123.008 115.68 123.06 115.712 123.106C115.764 123.164 115.833 123.207 115.909 123.23C116.236 123.299 116.573 123.305 116.903 123.247C117.232 123.19 117.546 123.071 117.827 122.896C119.223 122.292 120.568 121.587 121.852 120.787C122.454 120.347 123.102 119.968 123.785 119.656C123.922 119.624 124.04 119.543 124.118 119.431C124.163 119.341 124.179 119.24 124.163 119.141C124.118 118.612 124.163 117.046 123.317 117.372Z" fill="#505365"/>
<path d="M134.751 67.266C134.313 66.1351 132.085 63.5471 130.575 64.6055C129.611 65.2953 128.921 66.2798 128.619 67.3965C128.475 67.9112 128.422 68.4621 128.286 68.9913C128.105 69.6437 127.818 70.2671 127.697 70.9268C127.587 71.6252 127.574 72.3347 127.66 73.0363C129.095 72.843 130.524 72.64 131.949 72.4274L134.094 72.1012C134.494 72.0432 135.31 72.1954 135.499 71.7967C135.589 71.5648 135.605 71.3124 135.544 71.0718L135.37 69.9047C135.265 69.0418 135.067 68.1917 134.781 67.3675C134.775 67.3328 134.764 67.2988 134.751 67.266Z" fill="white"/>
<path d="M113.243 76.3709L114.293 75.2111C114.293 75.2111 125.477 76.9001 127.093 77.5163C128.709 78.1325 128.604 81.2932 128.604 81.2932C124.239 82.453 113.243 76.3709 113.243 76.3709Z" fill="#EC9C7D"/>
<path d="M115.252 76.6899C115.215 76.8195 115.139 76.9357 115.033 77.0234C114.916 77.0859 114.788 77.1276 114.655 77.1466C113.862 77.3279 113.25 77.9295 112.503 78.2123C111.779 78.612 110.931 78.7532 110.109 78.611C109.378 78.3989 108.687 78.0759 108.062 77.6541C107.671 77.4459 107.321 77.1736 107.028 76.8494C106.883 76.6858 106.784 76.489 106.742 76.2782C106.7 76.0674 106.715 75.8496 106.786 75.646C107.028 75.0661 107.775 74.8776 108.425 74.7906C109.3 74.6675 110.185 74.6311 111.068 74.6819C111.823 74.7326 112.578 74.9574 113.334 75.0009C114.376 75.0589 115.652 75.4286 115.252 76.6899Z" fill="#EC9C7D"/>
<path d="M42.7752 87.4405L35.8575 112.378C35.8234 112.499 35.8146 112.627 35.8319 112.752C35.8491 112.877 35.8919 112.997 35.9579 113.107C36.0239 113.216 36.1117 113.311 36.2163 113.388C36.3209 113.464 36.4403 113.52 36.5674 113.552C36.6503 113.56 36.7338 113.56 36.8166 113.552C37.0376 113.55 37.2517 113.478 37.4253 113.347C37.5989 113.216 37.7222 113.033 37.7757 112.827L44.7009 87.8899C44.7339 87.769 44.7416 87.643 44.7238 87.5192C44.7059 87.3955 44.6628 87.2763 44.5968 87.1685C44.5309 87.0608 44.4434 86.9666 44.3395 86.8913C44.2355 86.8161 44.1171 86.7613 43.991 86.73H43.9457C43.6926 86.6779 43.4282 86.723 43.2094 86.8559C42.9905 86.9887 42.8346 87.1986 42.7752 87.4405Z" fill="#43E37F" fill-opacity="0.3"/>
<path d="M55.5834 87.4405L60.6885 112.196C60.7344 112.464 60.6679 112.737 60.5036 112.958C60.3394 113.178 60.0908 113.326 59.8125 113.371H59.6463C59.4299 113.371 59.2201 113.299 59.0533 113.166C58.8865 113.034 58.773 112.85 58.7325 112.646L53.6199 87.8899C53.5742 87.6351 53.6317 87.3731 53.7805 87.1576C53.9292 86.942 54.1581 86.7891 54.4204 86.73C54.6547 86.665 54.9063 86.6918 55.1201 86.8046C55.3339 86.9174 55.4923 87.107 55.5607 87.3317L55.5834 87.4405Z" fill="#43E37F" fill-opacity="0.3"/>
<path d="M47.4197 87.5419L42.9791 112.385C42.9588 112.522 42.9671 112.662 43.0032 112.796C43.0394 112.93 43.1028 113.056 43.1898 113.166C43.2769 113.277 43.3858 113.37 43.5103 113.439C43.6348 113.509 43.7726 113.555 43.9155 113.574H44.0515C44.266 113.576 44.4743 113.504 44.638 113.371C44.8017 113.238 44.9099 113.052 44.9426 112.849L49.3907 88.0059C49.4279 87.7479 49.3633 87.4859 49.2096 87.2713C49.056 87.0568 48.8242 86.905 48.56 86.846C48.4445 86.8106 48.3228 86.798 48.2021 86.8089C48.0814 86.8199 47.9642 86.8542 47.8577 86.9097C47.7512 86.9652 47.6574 87.0409 47.5822 87.1321C47.5069 87.2233 47.4516 87.3282 47.4197 87.4405V87.5419Z" fill="#43E37F" fill-opacity="0.3"/>
<path d="M60.5752 87.6579L69.6376 112.392C69.7244 112.608 69.7191 112.847 69.623 113.059C69.5268 113.271 69.3476 113.437 69.1241 113.523C69.0152 113.561 68.9002 113.581 68.7843 113.581C68.5567 113.578 68.3359 113.506 68.153 113.376C67.9701 113.246 67.8343 113.064 67.7647 112.856L58.7023 88.1219C58.6581 88.0167 58.6359 87.9042 58.637 87.7907C58.6381 87.6773 58.6625 87.5652 58.7088 87.4608C58.7551 87.3565 58.8224 87.2619 58.9068 87.1825C58.9912 87.1031 59.0911 87.0405 59.2008 86.9982H59.3141C59.5719 86.9423 59.8421 86.9784 60.0742 87.0998C60.3064 87.2212 60.4845 87.4196 60.5752 87.6579Z" fill="#43E37F" fill-opacity="0.3"/>
<path d="M56.7086 68.5346C54.443 64.6998 51.3694 60.9085 46.9741 59.6326C44.2554 58.8497 41.3403 59.1179 38.5461 59.5819C36.4425 59.826 34.4099 60.4665 32.5649 61.4666C31.6446 61.9781 30.8668 62.6953 30.2974 63.5574C29.7281 64.4194 29.3841 65.4007 29.2949 66.4178C29.3248 67.591 29.5809 68.7486 30.0501 69.8322L34.1885 81.2641C34.7323 82.7647 35.3214 84.3378 36.5674 85.3889C37.8019 86.2789 39.2426 86.8684 40.7663 87.107C45.6902 88.2886 50.667 89.4775 55.742 89.6224C60.8169 89.7674 66.0731 88.7743 70.2191 85.9544C71.6918 84.954 73.1191 83.1924 72.3111 81.6483C71.6918 80.445 70.0455 80.126 68.6634 80.1985C65.0007 80.3435 63.9359 79.9375 61.776 77.0669C59.7898 74.3919 58.3776 71.3618 56.7086 68.5346Z" fill="#505365"/>
<path d="M39.9507 63.7501C35.5781 67.6575 34.6643 74.4717 37.3453 79.5896C39.3239 83.3374 43.3869 86.2878 47.7821 86.0486C48.4116 86.0426 49.0294 85.8856 49.5795 85.5919C50.7878 84.867 51.0371 83.3084 51.1654 81.9673C51.4902 79.7382 51.4902 77.4765 51.1654 75.2473C50.7652 73.2176 49.8212 71.2965 49.5795 69.2378C49.4285 67.9329 49.5795 66.6136 49.4964 65.3015C49.3907 63.2717 48.9225 61.1622 46.5361 61.1259C44.0737 61.1676 41.7198 62.1056 39.9507 63.7501Z" fill="url(#paint2_linear_567_42)"/>
<path d="M47.8879 68.3969C47.971 69.0947 47.9861 69.7985 47.9332 70.4991C47.8048 71.3328 47.7821 72.1882 47.6689 73.0291C47.418 74.7242 47.006 76.3936 46.4379 78.0165C46.2804 78.3188 46.1866 78.6479 46.162 78.985C46.1374 79.3222 46.1824 79.6607 46.2944 79.9811C46.5597 80.3573 46.9282 80.6559 47.3592 80.8437C48.1673 81.2859 48.8696 81.8586 49.6248 82.2935C50.525 82.716 51.4595 83.0676 52.4191 83.3447C55.2284 84.2291 60.5601 85.5702 61.6703 81.7354C62.939 77.3858 64.0038 73.1378 64.827 68.6868C65.228 67.1568 65.4983 65.5979 65.6351 64.0256C65.6351 62.7498 64.2531 62.3003 63.0523 62.0538L62.8257 62.0103L62.1309 61.8799C60.5312 61.5446 58.9588 61.0988 57.426 60.546C55.6891 59.9443 52.9477 58.9004 50.6897 59.9443C50.5322 60.015 50.3807 60.0974 50.2365 60.1908C47.8501 61.6189 47.6764 65.1637 47.8879 68.3969Z" fill="white"/>
<path d="M71.8428 75.6243C71.1545 76.1399 70.4965 76.6917 69.8717 77.2771C68.9731 78.3427 68.5426 78.5022 67.1606 77.828C65.8673 77.2026 64.8108 76.2037 64.1398 74.9719C63.3855 73.5533 62.7565 72.0766 62.2593 70.5571C62.0988 70.1911 62.0161 69.798 62.0161 69.4009C62.0161 69.0037 62.0988 68.6106 62.2593 68.2446C62.6143 67.2152 63.0145 66.1931 63.4525 65.1927C63.7773 64.4678 65.6577 66.3236 65.8541 66.5628C66.9793 67.9039 68.1197 69.2233 69.0939 70.6441C70.8395 69.8838 72.6514 69.2725 74.5087 68.8173C74.6963 68.7665 74.895 68.7665 75.0826 68.8173C75.2841 68.9207 75.4398 69.0907 75.5207 69.2958L77.2576 72.4202C77.0008 71.8402 73.9498 73.9932 71.8428 75.6243Z" fill="white"/>
<path d="M53.7935 69.8612C53.9449 70.6359 54.2527 71.3747 54.6998 72.0359C55.2058 72.7608 56.0893 75.2256 57.2675 74.9356C56.7195 75.1613 56.1264 75.2677 55.5305 75.2473C56.686 76.6972 58.4833 77.5961 60.1674 78.4805C60.6182 78.6835 61.0215 78.9721 61.3531 79.3286C61.5161 79.5075 61.6231 79.7269 61.6619 79.9616C61.7006 80.1963 61.6695 80.4367 61.5721 80.6552C61.1794 81.3801 60.0617 81.3004 59.231 81.0902C57.1693 80.5755 55.1227 79.981 53.0383 79.5896C51.2636 79.2561 49.2623 79.1039 47.7519 80.0825C47.6415 80.176 47.505 80.2365 47.3592 80.2565C47.2435 80.2488 47.1341 80.2027 47.05 80.1259C46.9659 80.0492 46.9124 79.9467 46.8986 79.8361C46.8811 79.6137 46.9172 79.3904 47.0043 79.1836C47.5163 77.5625 47.7982 75.8824 47.8426 74.1889C47.8426 73.5075 48.054 72.8624 48.0691 72.2099C48.0691 71.398 47.903 70.5716 47.8879 69.7597C47.8647 68.1207 48.0319 66.4844 48.3863 64.881C48.628 63.7574 49.1415 62.4743 50.3196 62.2133C50.7525 62.1439 51.1971 62.1968 51.5993 62.3654C52.0014 62.5339 52.344 62.811 52.5852 63.1629C53.0362 63.8708 53.2958 64.6757 53.3404 65.5044C53.4125 66.9633 53.5638 68.4175 53.7935 69.8612Z" fill="#D8DAE1"/>
<path d="M50.7123 59.8936C52.9779 58.8497 55.7117 59.8936 57.4487 60.4953C58.9774 61.0524 60.5476 61.4983 62.146 61.8291C62.3802 61.8653 62.6143 61.9088 62.8408 61.9596C62.0856 61.2999 60.6508 61.1404 59.6463 60.8577C58.1359 60.4373 56.6255 60.0603 55.0774 59.7196C53.5292 59.3789 51.9508 59.1687 50.7123 59.8936Z" fill="white"/>
<path d="M57.1844 55.9138C57.468 56.6661 58.0371 57.288 58.7778 57.6549C59.5185 58.0218 60.3762 58.1068 61.1794 57.8928C61.1794 57.8928 60.3713 60.1183 61.3078 61.4811C61.4815 61.7421 60.2731 61.9741 60.2052 61.9813C59.5209 61.9665 58.8473 61.816 58.2266 61.5391C57.2641 61.0895 56.2503 60.7489 55.2058 60.5243C55.7049 60.3132 56.1036 59.9305 56.3234 59.4514C56.7771 58.4083 56.8516 57.2489 56.5349 56.1603C56.6138 56.2033 56.7046 56.2223 56.795 56.2145C56.8854 56.2067 56.9712 56.1726 57.0409 56.1167C57.1101 56.0656 57.1604 55.9944 57.1844 55.9138Z" fill="#D68369"/>
<path d="M59.231 58.8207C61.4966 59.5021 63.3544 57.7406 64.2455 55.1164C64.3361 54.8264 64.4192 54.5292 64.4872 54.2247C64.6969 53.3475 64.7983 52.4497 64.7892 51.5498C64.7439 47.2003 58.2492 47.541 58.2492 47.541C52.9704 48.5849 55.319 57.6463 59.231 58.8207Z" fill="#EC9C7D"/>
<path d="M62.7804 46.9176C63.6034 47.1245 64.3184 47.6147 64.7893 48.2949C64.9847 48.6791 65.212 49.0476 65.4689 49.3968C65.8692 49.8752 66.4658 50.2232 66.6621 50.8031C65.637 50.9449 64.5922 50.7454 63.7018 50.2377C63.6251 50.3536 63.5191 50.449 63.3937 50.5149C63.2682 50.5809 63.1274 50.6152 62.9843 50.6146C62.6969 50.6068 62.4131 50.5503 62.1461 50.4479C61.9988 50.3859 61.8348 50.3707 61.6778 50.4044C61.5595 50.4478 61.4534 50.5174 61.3682 50.6074C61.0976 50.8216 60.7753 50.967 60.4309 51.0303C60.0865 51.0937 59.731 51.0729 59.3971 50.9698C58.9969 50.8466 58.5966 50.6001 58.219 50.7161C58.012 50.8199 57.8398 50.9777 57.7222 51.1714C57.6046 51.3651 57.5464 51.5867 57.5544 51.8108C57.5544 52.079 57.6828 52.3327 57.6904 52.6082C57.6919 52.8918 57.6433 53.1737 57.5469 53.4418C57.3985 53.245 57.2143 53.0755 57.0031 52.9416C56.8929 52.8845 56.7697 52.8546 56.6444 52.8546C56.5192 52.8546 56.3959 52.8845 56.2857 52.9416C56.1944 52.9941 56.1169 53.066 56.0591 53.1518C55.8745 53.4167 55.7929 53.7356 55.8288 54.0524C55.8647 54.3693 56.0158 54.6638 56.2555 54.8844C56.18 55.1526 56.1045 55.4208 56.044 55.6963C55.6893 55.313 55.4104 54.8708 55.2209 54.3915C55.0564 53.8535 54.8336 53.3336 54.5563 52.8401C54.3676 52.615 54.2032 52.3721 54.0654 52.1152C54.0122 51.9245 53.944 51.7379 53.8615 51.557C53.6047 51.1003 53.2498 50.6509 53.4084 50.1072C53.567 49.5635 54.2391 49.1213 54.1032 48.5559C54.0826 48.4472 54.0523 48.3405 54.0126 48.2369C54.004 48.0774 54.0433 47.9189 54.1258 47.7802C54.443 47.2182 54.887 46.7312 55.4253 46.355C55.9636 45.9787 56.5826 45.7226 57.2373 45.6054C58.5549 45.3816 59.9062 45.4162 61.2096 45.7069C62.5161 45.9462 63.8151 46.2869 65.1442 46.4319C65.1982 46.4248 65.2531 46.4327 65.3026 46.4545C65.352 46.4763 65.394 46.5112 65.4236 46.5551C65.4386 46.5999 65.4386 46.648 65.4236 46.6928C65.3632 46.9683 65.0913 47.1423 64.8723 47.3308C64.6533 47.5192 64.457 47.8237 64.6156 48.0557" fill="#2F3554"/>
<path d="M50.9993 80.9162C50.9993 80.9162 53.7482 87.5129 55.9534 88.2016C58.1586 88.8903 66.2997 91.3188 66.2997 91.3188L70.3249 99.1551C72.5905 103.635 75.1657 108.014 76.8196 112.747C76.8981 113.045 77.0452 113.323 77.2501 113.559C77.5193 113.748 77.8304 113.876 78.1591 113.931C78.4878 113.986 78.8253 113.968 79.1456 113.878C80.5276 113.697 81.9096 113.516 83.269 113.211C83.926 113.059 84.7265 112.718 84.719 112.066C84.7114 111.413 83.9638 111.102 83.3898 110.899L81.4943 110.268C81.0566 110.205 80.6536 110.003 80.3497 109.694C80.0457 109.385 79.8584 108.988 79.8177 108.565C79.4794 107.468 79.2419 106.345 79.1079 105.208C79.0248 104.15 78.2092 103.099 78.2092 102.098L72.1298 85.2802V85.215L63.2335 80.8654L50.9993 80.9162Z" fill="#2F3554"/>
<path d="M47.1855 82.2138C47.1855 82.2138 46.6644 88.2234 48.8772 88.9193C51.0899 89.6152 59.2536 92.0074 59.2536 92.0074L62.4028 100.235C63.6942 103.628 65.4236 107.093 66.3676 110.594C66.5578 111.59 66.6689 112.598 66.6999 113.61C66.7011 113.884 66.7738 114.153 66.9114 114.393C67.0753 114.565 67.2746 114.703 67.4969 114.798C67.7192 114.893 67.9595 114.943 68.2028 114.944C70.2468 115.19 72.301 115.362 74.3652 115.459C74.6218 115.502 74.886 115.466 75.1204 115.357C75.3314 115.214 75.4773 114.999 75.5282 114.755C75.6346 114.368 75.6274 113.96 75.5075 113.576C75.3876 113.192 75.1595 112.848 74.8485 112.581C74.1839 112.015 73.2475 111.856 72.4998 111.421C70.8837 110.428 70.7478 107.651 70.3022 105.955L68.6483 99.5611L65.4689 87.4405C65.4236 87.252 65.2726 85.9906 65.0762 85.9181L56.18 81.5686C56.18 81.5686 51.0144 79.6983 47.1855 82.2138Z" fill="#4C506D"/>
<path d="M47.1855 82.2138C47.1855 82.2138 46.6644 88.2234 48.8772 88.9193C51.0899 89.6152 59.2536 92.0074 59.2536 92.0074L62.4028 100.235C63.6942 103.628 65.4236 107.093 66.3676 110.594C66.5578 111.59 66.6689 112.598 66.6999 113.61C66.7011 113.884 66.7738 114.153 66.9114 114.393C67.0753 114.565 67.2746 114.703 67.4969 114.798C67.7192 114.893 67.9595 114.943 68.2028 114.944C70.2468 115.19 72.301 115.362 74.3652 115.459C74.6218 115.502 74.886 115.466 75.1204 115.357C75.3314 115.214 75.4773 114.999 75.5282 114.755C75.6346 114.368 75.6274 113.96 75.5075 113.576C75.3876 113.192 75.1595 112.848 74.8485 112.581C74.1839 112.015 73.2475 111.856 72.4998 111.421C70.8837 110.428 70.7478 107.651 70.3022 105.955L68.6483 99.5611L65.4689 87.4405C65.4236 87.252 65.2726 85.9906 65.0762 85.9181L56.18 81.5686C56.18 81.5686 51.0144 79.6983 47.1855 82.2138Z" fill="#2F3554"/>
<path d="M48.6808 62.5685C48.6808 62.5685 49.6701 71.6518 53.212 73.9425C56.7539 76.2332 65.2348 66.5991 65.2348 66.5991L62.5237 64.4896L55.5305 67.9112C55.5305 67.9112 54.5336 60.2416 53.1063 60.1328C51.679 60.0241 48.6506 61.0462 48.6808 62.5685Z" fill="white"/>
<path d="M66.1939 61.2854C66.5016 61.0093 66.8835 60.8211 67.2965 60.7417C67.6719 60.7203 68.0473 60.7849 68.3915 60.9302C69.0863 61.1477 69.8566 61.5246 69.9926 62.2061C70.0148 62.4721 69.9678 62.7392 69.8557 62.9835C69.7437 63.2277 69.5701 63.4413 69.3506 63.6052C68.9353 63.9531 68.4369 64.1996 68.0139 64.5476C67.4173 65.0405 66.9718 65.7509 66.2317 65.9974C65.9185 66.099 65.586 66.1337 65.2575 66.0989C64.1624 66.0046 62.9919 65.1202 63.6262 64.0329C64.3128 62.9833 65.1812 62.0541 66.1939 61.2854Z" fill="#EC9C7D"/>
<path d="M72.2808 83.0474C72.0083 82.3429 71.5565 81.7149 70.9668 81.2206C70.6585 81.0323 70.3353 80.8675 70.0001 80.7277C69.6168 80.5099 69.2151 80.3231 68.7994 80.1695C68.7348 80.155 68.6676 80.155 68.603 80.1695C68.5525 80.186 68.5097 80.219 68.4821 80.2627C68.4545 80.3065 68.4438 80.3582 68.452 80.4087C68.4752 80.5056 68.5188 80.5969 68.5804 80.677C68.7855 80.9476 69.0267 81.1913 69.2978 81.4019C68.9896 81.5414 68.653 81.6137 68.3122 81.6137C67.9715 81.6137 67.6349 81.5414 67.3267 81.4019C66.5098 81.0616 65.5974 80.9952 64.7364 81.2134C64.5719 81.2625 64.427 81.3586 64.321 81.4889C64.2319 81.6761 64.2051 81.8851 64.2443 82.0875C64.2835 82.2899 64.3867 82.4758 64.54 82.6197C64.8238 82.9501 65.1399 83.2535 65.484 83.5259C65.8024 83.8301 66.1761 84.0758 66.5866 84.2508C66.8157 84.3165 67.0509 84.3602 67.289 84.3813L68.6634 84.548C69.056 84.5788 69.4409 84.6694 69.8038 84.8162C70.491 85.1424 71.3142 86.6503 72.1373 86.3603C72.6282 86.2008 73.323 85.7151 73.2324 85.157C73.1124 84.8193 72.9528 84.4958 72.7566 84.1928C72.5905 83.8158 72.447 83.4171 72.2808 83.0474Z" fill="url(#paint3_linear_567_42)"/>
<path d="M78.1563 105.012C78.134 106.035 78.3373 107.05 78.7529 107.992H78.8133C79.9386 107.992 81.0789 107.992 82.1966 108.057C84.0701 108.193 85.9337 108.435 87.7775 108.782C88.6309 108.934 89.4843 109.101 90.3301 109.268L92.7618 109.739C94.31 110.029 95.7827 110.275 97.2326 110.464C99.0915 109.703 100.752 108.556 102.096 107.107L102.519 106.629C102.693 106.419 102.859 106.194 103.017 105.962C103.484 105.312 103.789 104.568 103.909 103.787C103.945 103.471 103.933 103.151 103.871 102.838C103.576 101.76 102.873 100.827 101.9 100.221L101.598 100.011C99.5438 98.6474 97.0846 97.9606 94.5894 98.0533H93.9626C92.6303 98.1486 91.3104 98.3646 90.0205 98.6984C87.9739 99.1986 85.9273 99.9018 83.9034 100.525C82.4076 100.91 80.9762 101.495 79.6516 102.265C79.2745 102.502 78.9445 102.801 78.6774 103.149C78.3146 103.707 78.1331 104.356 78.1563 105.012Z" fill="#3E3E54"/>
<path d="M78.3376 108.137C78.5994 109.442 78.8335 110.751 79.0399 112.066C79.522 115.12 79.8421 118.195 79.999 121.28C80.0359 121.567 80.0076 121.859 79.9159 122.135C79.5685 122.947 78.4055 122.99 77.5144 122.983C76.6233 122.976 75.4149 123.331 75.43 124.201C75.43 124.882 76.1852 125.281 76.8876 125.499C78.8875 126.15 80.9916 126.457 83.1029 126.405C83.3601 126.414 83.6166 126.374 83.8581 126.289C85.2929 125.687 84.1601 124.114 84.0091 123.157C83.7901 121.802 84.3338 120.308 84.6737 119.018C85.4742 116.009 87.5887 113.284 87.5057 110.087C87.429 109.681 87.5067 109.261 87.7247 108.905C88.1249 108.434 89.7939 109.195 90.3226 109.297L92.7543 109.768C97.1118 110.58 101.137 111.515 105.593 110.718C105.861 110.689 106.12 110.602 106.348 110.464C106.622 110.24 106.812 109.938 106.892 109.601C107.523 107.712 107.355 105.66 106.423 103.889C105.336 101.823 103.599 100.989 101.575 100.018C99.2339 98.8797 97.2629 98.0242 94.5668 98.0967H93.94C92.602 98.1988 91.277 98.4221 89.9827 98.7637C86.6976 99.5756 79.123 100.728 77.8995 104.389C77.4993 105.542 77.9977 106.47 78.2394 107.593L78.3376 108.137Z" fill="#3E3E54"/>
<path d="M78.3376 108.137C78.5994 109.442 78.8335 110.751 79.0399 112.066C79.522 115.12 79.8421 118.195 79.999 121.28C80.0359 121.567 80.0076 121.859 79.9159 122.135C79.5685 122.947 78.4055 122.99 77.5144 122.983C76.6233 122.976 75.4149 123.331 75.43 124.201C75.43 124.882 76.1852 125.281 76.8876 125.499C78.8875 126.15 80.9916 126.457 83.1029 126.405C83.3601 126.414 83.6166 126.374 83.8581 126.289C85.2929 125.687 84.1601 124.114 84.0091 123.157C83.7901 121.802 84.3338 120.308 84.6737 119.018C85.4742 116.009 87.5887 113.284 87.5057 110.087C87.429 109.681 87.5067 109.261 87.7247 108.905C88.1249 108.434 89.7939 109.195 90.3226 109.297L92.7543 109.768C97.1118 110.58 101.137 111.515 105.593 110.718C105.861 110.689 106.12 110.602 106.348 110.464C106.622 110.24 106.812 109.938 106.892 109.601C107.523 107.712 107.355 105.66 106.423 103.889C105.336 101.823 103.599 100.989 101.575 100.018C99.2339 98.8797 97.2629 98.0242 94.5668 98.0967H93.94C92.602 98.1988 91.277 98.4221 89.9827 98.7637C86.6976 99.5756 79.123 100.728 77.8995 104.389C77.4993 105.542 77.9977 106.47 78.2394 107.593L78.3376 108.137Z" fill="url(#paint4_linear_567_42)"/>
<path d="M72.1373 108.463C71.0654 109.709 70.2133 111.114 69.615 112.624C68.8598 114.313 64.3286 132.422 64.1322 132.385L67.5608 133.255C71.5106 127.832 74.8044 121.995 77.3784 115.857C78.1336 114.096 78.1336 113.929 80.1651 113.559C81.9172 113.226 83.6692 112.871 85.4062 112.472C88.8027 111.712 92.1349 110.709 95.3748 109.471C97.3358 108.745 99.2136 107.826 100.978 106.731C101.234 106.54 101.463 106.319 101.658 106.071C101.741 105.962 101.824 105.846 101.9 105.73C102.207 105.247 102.355 104.686 102.323 104.121C102.314 103.971 102.286 103.822 102.24 103.679C101.908 102.852 101.289 102.161 100.488 101.721C99.2693 100.884 97.8355 100.382 96.3415 100.271C95.3446 100.214 94.3402 100.409 93.3207 100.358C92.3012 100.308 91.8103 99.8366 91.0551 99.7206C90.4514 99.6551 89.8401 99.7069 89.2577 99.8728C87.9294 100.308 86.6473 100.864 85.4289 101.533L78.2469 104.976H78.1865L76.7516 105.665C75.2412 106.39 73.5193 107.115 72.3261 108.289L72.1373 108.463Z" fill="#3E3E54"/>
<path d="M59.08 131.544C58.451 131.578 57.8409 131.763 57.3052 132.081C57.0424 132.246 56.8423 132.489 56.7348 132.772C56.6273 133.056 56.6181 133.365 56.7086 133.654C56.9242 134.043 57.2739 134.348 57.6979 134.517C60.2066 135.684 62.9902 136.199 65.771 136.01C66.1641 136.032 66.554 135.93 66.8812 135.72C67.1597 135.444 67.3418 135.092 67.4023 134.712C67.6593 134.014 67.7116 133.262 67.5533 132.538C67.1002 131.088 65.4161 131.407 64.2229 131.341C62.5057 131.257 60.7841 131.325 59.08 131.544Z" fill="#3E3E54"/>
<path d="M84.2885 67.5197C84.0015 67.8677 83.5333 68.2446 83.7297 68.6361C83.8203 68.8536 84.0771 68.9623 84.2734 69.1C84.7718 69.522 85.0759 70.1163 85.1192 70.7528C85.1658 71.3845 85.3215 72.0043 85.5799 72.5869C85.7201 72.8687 85.9579 73.095 86.2527 73.2272C86.5474 73.3594 86.8809 73.3893 87.196 73.3118C87.5585 73.1741 87.8984 72.8261 88.2684 72.9421C88.6385 73.0581 88.6762 73.3481 88.8424 73.5873C89.0721 73.8608 89.3773 74.067 89.723 74.1823C90.0688 74.2977 90.4414 74.3175 90.7983 74.2397C91.511 74.0698 92.1828 73.7695 92.777 73.3553C93.0368 73.226 93.252 73.0271 93.3962 72.7826C93.4791 72.5475 93.4791 72.2928 93.3962 72.0577C93.1035 71.3613 92.6726 70.7261 92.1275 70.1874C91.2289 69.085 90.6248 67.7884 90.3679 66.4106C90.1942 65.4537 90.1489 64.3808 89.4465 63.6921C88.4874 62.7498 86.4257 62.9672 85.4062 63.8081C84.3867 64.649 85.1797 66.4178 84.2885 67.5197Z" fill="url(#paint5_linear_567_42)"/>
<path d="M85.5799 62.9527C85.5966 63.1157 85.648 63.2736 85.7309 63.4167C85.9877 63.8226 86.7127 64.0836 87.1507 64.3156C87.6144 64.5588 87.9631 64.9636 88.1249 65.4464C88.4043 66.3308 88.0041 67.3675 88.3817 68.2301C88.5101 68.3969 88.8046 68.2301 88.9028 68.0779C89.0009 67.9257 89.0463 67.6574 89.22 67.5342C89.5145 67.3312 89.9298 67.5922 90.096 67.9039C90.2739 68.2703 90.2996 68.6881 90.1676 69.072C90.0357 69.4559 89.7562 69.7771 89.3861 69.9699C89.4541 70.2454 89.8468 70.3251 90.1413 70.2599C90.421 70.1514 90.7165 70.0854 91.0173 70.0642C91.7046 70.1222 92.0519 71.0428 92.7392 71.0718C93.4264 71.1008 93.9324 70.0497 94.4459 69.622C94.9595 69.1943 95.8884 69.1073 96.1451 68.5056C96.266 68.2156 96.198 67.8459 96.4472 67.643C96.6367 67.5341 96.8532 67.4765 97.074 67.4762C97.3204 67.4167 97.5471 67.2984 97.7333 67.1324C97.9194 66.9664 98.0589 66.7581 98.1389 66.5266C98.2881 66.0509 98.2695 65.5412 98.086 65.0767C98.0317 64.8958 97.9304 64.7312 97.7915 64.5983C97.5635 64.4537 97.306 64.3573 97.0363 64.3156C95.8355 63.9894 94.9821 63.0035 94.0834 62.1408C93.1847 61.2782 91.9991 60.5315 90.7757 60.7925C90.5194 60.4813 90.1937 60.2292 89.8225 60.0549C89.4513 59.8805 89.0441 59.7882 88.6309 59.7848C88.2098 59.8628 87.8107 60.0258 87.4603 60.2633C86.8604 60.5921 86.3443 61.0453 85.9499 61.5899C85.6861 61.9979 85.557 62.473 85.5799 62.9527Z" fill="#DD8049"/>
<path d="M91.5913 72.2534C90.8729 72.6343 90.1816 73.0605 89.5221 73.5293C89.3163 73.6664 89.1438 73.8444 89.0161 74.0512C88.9564 74.1635 88.9253 74.2877 88.9253 74.4137C88.9253 74.5397 88.9564 74.6639 89.0161 74.7761C89.2502 75.0879 89.6806 74.9284 90.0129 74.7761C91.5404 74.1019 93.1894 73.7179 94.8689 73.6453C94.9849 73.6529 95.1008 73.6283 95.2026 73.5743C95.3044 73.5203 95.3878 73.4392 95.4428 73.3408C95.4698 73.2302 95.4716 73.1153 95.4482 73.004C95.4247 72.8926 95.3765 72.7875 95.3069 72.6956C94.2874 71.1008 92.9205 71.4923 91.5913 72.2534Z" fill="white"/>
<path d="M88.6687 92.9353C87.9689 91.4936 87.3905 90.0003 86.9393 88.4698C86.8335 88.1364 86.6674 86.8243 86.1085 86.8968C85.814 86.9403 85.2854 88.2669 85.1192 88.5351C83.6799 90.8609 81.7539 92.8751 79.4628 94.4504C79.0766 94.7697 78.596 94.965 78.0883 95.0086C77.7429 94.9642 77.4104 94.8534 77.1106 94.6827C76.8108 94.5121 76.55 94.2851 76.3438 94.0155C74.0241 91.6669 71.9569 89.0998 70.1738 86.3531C71.3628 85.3929 72.603 84.4928 73.8894 83.6564C74.9018 85.207 76.409 86.4021 78.1865 87.0635C78.9417 85.0627 79.3495 82.4385 80.6107 80.7205C81.4641 79.5534 82.3779 78.379 83.1331 77.1321C83.3372 76.7919 83.5915 76.4818 83.8883 76.2115C84.322 75.909 84.8153 75.6944 85.3382 75.5808C89.2683 74.4767 93.2627 73.5956 97.3006 72.9421C97.9045 72.8093 98.5266 72.7702 99.1433 72.8261C100.865 73.0726 101.998 74.6312 102.866 76.081C107.398 83.6419 110.63 92.2249 110.124 100.938C110.118 101.411 110.039 101.88 109.89 102.33C109.592 103.006 109.106 103.591 108.485 104.019C106.371 105.479 103.815 106.228 101.213 106.151C97.361 106.151 92.2785 105.07 89.4088 102.41C87.7775 100.909 89.4088 100.003 90.164 98.5172C91.1684 96.6107 89.5372 94.6389 88.6687 92.9353Z" fill="#43E37F" fill-opacity="0.3"/>
<path d="M107.836 86.817C107.559 85.6581 107.162 84.5288 106.65 83.4462C104.384 84.983 102.761 87.9841 101.93 90.5068C101.099 93.0296 100.42 95.69 98.7355 97.756L96.9079 97.1471L96.5681 98.2562C96.2962 99.1334 97.0665 100.025 96.991 100.909C96.9004 101.364 96.6747 101.784 96.341 102.119C96.0074 102.453 95.58 102.688 95.1105 102.794C94.0346 102.998 92.9214 102.923 91.8858 102.577C91.2053 102.449 90.5615 102.182 89.9978 101.794C89.7207 101.595 89.5092 101.324 89.3886 101.013C89.2681 100.702 89.2436 100.364 89.3181 100.04C89.0986 100.168 88.9299 100.364 88.8383 100.595C88.7467 100.825 88.7375 101.079 88.8122 101.315C88.9765 101.786 89.2811 102.199 89.6882 102.504C91.0461 103.51 92.5808 104.273 94.2194 104.759C94.9731 105.053 95.7479 105.296 96.5378 105.484C98.3516 105.874 100.207 106.057 102.066 106.027C103.191 106.027 103.871 105.882 104.332 104.809C105.041 103.287 105.087 101.562 105.268 99.8945C105.771 95.4783 106.63 91.1061 107.836 86.817Z" fill="url(#paint6_linear_567_42)"/>
<path d="M123.846 91.2825C123.815 92.4555 123.559 93.613 123.091 94.6969C123.008 94.9361 122.917 95.1753 122.826 95.4218C121.543 98.9981 120.251 102.569 118.952 106.136C118.408 107.637 117.819 109.21 116.573 110.261C115.335 111.145 113.896 111.734 112.374 111.979C107.451 113.161 102.474 114.349 97.3988 114.487C94.0937 114.619 90.7915 114.167 87.6567 113.153C85.978 112.587 84.3875 111.805 82.9292 110.826C81.4188 109.826 80.0292 108.064 80.8373 106.513C81.4565 105.317 83.1029 104.998 84.4849 105.063C88.1476 105.208 89.2124 104.802 91.3723 101.924C93.3585 99.2784 94.7707 96.2772 96.4397 93.4428C98.7053 89.6079 101.779 85.8166 106.174 84.548C108.893 83.7579 111.808 84.0333 114.602 84.49C116.706 84.7368 118.739 85.3798 120.583 86.3821C121.495 86.8895 122.267 87.5992 122.835 88.4517C123.403 89.3043 123.749 90.275 123.846 91.2825Z" fill="#505365"/>
<path d="M122.811 95.4146C121.527 98.9908 120.236 102.562 118.937 106.129C118.393 107.629 117.804 109.202 116.558 110.254C115.32 111.138 113.881 111.727 112.359 111.972C107.435 113.153 102.459 114.342 97.3837 114.48C94.0786 114.612 90.7764 114.16 87.6416 113.146C86.947 112.549 86.296 111.908 85.6932 111.225C85.2778 110.739 84.8625 110.065 85.2023 109.536C85.5421 109.007 86.1916 109.021 86.7731 109.014C89.1612 108.946 91.4945 108.311 93.5638 107.165C95.6331 106.018 97.3738 104.397 98.6298 102.446C99.6268 100.695 100.471 98.8663 101.152 96.9804C102.776 93.1093 105.041 89.2455 108.757 87.0563C109.903 86.302 111.273 85.9255 112.661 85.9834C113.512 86.0964 114.339 86.3413 115.108 86.7083C118.25 88.0567 122.502 90.6446 122.826 94.3417C122.855 94.699 122.85 95.0581 122.811 95.4146Z" fill="url(#paint7_linear_567_42)"/>
<path d="M110.358 112.334L117.268 137.271C117.3 137.396 117.307 137.525 117.286 137.652C117.265 137.778 117.218 137.899 117.148 138.008C117.077 138.117 116.985 138.211 116.876 138.285C116.767 138.359 116.643 138.411 116.513 138.438C116.433 138.45 116.351 138.45 116.271 138.438C116.05 138.437 115.836 138.365 115.663 138.233C115.489 138.102 115.366 137.919 115.312 137.714L108.432 112.813C108.365 112.569 108.4 112.311 108.53 112.092C108.66 111.874 108.875 111.713 109.127 111.645C109.255 111.613 109.388 111.605 109.52 111.621C109.651 111.638 109.777 111.68 109.892 111.744C110.006 111.808 110.106 111.893 110.186 111.994C110.266 112.096 110.325 112.211 110.358 112.334Z" fill="#43E37F" fill-opacity="0.3"/>
<path d="M97.5498 112.327L92.4371 137.09C92.3913 137.357 92.4578 137.631 92.622 137.851C92.7863 138.071 93.0349 138.22 93.3132 138.264H93.4869C93.7032 138.267 93.9135 138.196 94.0797 138.063C94.2459 137.93 94.3571 137.744 94.3931 137.54L99.5285 112.813C99.5722 112.558 99.514 112.297 99.3655 112.082C99.217 111.867 98.9893 111.713 98.7279 111.653C98.6114 111.618 98.4889 111.606 98.3676 111.617C98.2462 111.629 98.1283 111.663 98.0208 111.718C97.9134 111.773 97.8184 111.849 97.7414 111.94C97.6645 112.03 97.607 112.135 97.5725 112.247L97.5498 112.327Z" fill="#43E37F" fill-opacity="0.3"/>
<path d="M105.721 112.428L110.162 137.279C110.18 137.417 110.169 137.557 110.131 137.691C110.092 137.825 110.026 137.951 109.937 138.06C109.848 138.17 109.738 138.262 109.611 138.33C109.485 138.399 109.346 138.443 109.203 138.46H109.082C108.867 138.463 108.659 138.391 108.495 138.257C108.331 138.124 108.223 137.939 108.191 137.735L103.742 112.892C103.705 112.634 103.77 112.372 103.924 112.158C104.077 111.943 104.309 111.791 104.573 111.732C104.804 111.667 105.051 111.692 105.262 111.803C105.473 111.913 105.63 112.099 105.698 112.32L105.721 112.428Z" fill="#43E37F" fill-opacity="0.3"/>
<path d="M92.5504 112.544L83.488 137.279C83.4013 137.494 83.4065 137.734 83.5027 137.945C83.5988 138.157 83.7781 138.324 84.0015 138.409C84.1131 138.447 84.2305 138.467 84.3489 138.467C84.5765 138.464 84.7973 138.393 84.9802 138.262C85.1631 138.132 85.2989 137.951 85.3685 137.742L94.4309 113.016C94.5176 112.8 94.5123 112.561 94.4162 112.349C94.32 112.137 94.1408 111.97 93.9173 111.885H93.8191C93.5601 111.825 93.2873 111.86 93.0532 111.981C92.819 112.103 92.6399 112.304 92.5504 112.544Z" fill="#43E37F" fill-opacity="0.3"/>
<path d="M126.066 34.7027C124.08 34.7027 121.15 33.3978 119.73 35.4276C119.491 35.8123 119.284 36.2147 119.111 36.631C117.94 39.0014 115.335 40.3715 112.835 41.4227C114.345 39.6176 115.675 37.4429 115.433 35.1449C115.184 32.7164 112.186 32.6512 110.252 31.861C108.233 31.0582 106.334 30.0027 104.603 28.7221C101.892 26.6633 99.6266 23.7419 99.6266 20.2986C99.6266 12.3245 111.468 5.8727 126.059 5.8727C140.649 5.8727 152.491 12.3317 152.491 20.2986C152.491 28.2654 140.672 34.7027 126.066 34.7027Z" fill="#43E37F" fill-opacity="0.3"/>
<path d="M46.4681 35.7756C45.0901 35.8626 43.7076 35.8626 42.3296 35.7756C40.6606 35.5581 39.052 35.1884 39.4372 37.7038C39.8903 40.6035 42.6317 42.7058 43.84 45.4242C38.108 44.0541 33.8563 40.8862 29.9141 36.8339C28.162 35.0289 25.1563 35.7756 22.6868 35.7756H18.4426C16.0366 35.7756 13.6542 35.3207 11.4314 34.4369C9.20859 33.5531 7.18887 32.2576 5.4876 30.6246C3.78632 28.9915 2.4368 27.0528 1.51607 24.9191C0.595348 22.7854 0.12146 20.4985 0.12146 18.189C0.12146 15.8796 0.595348 13.5927 1.51607 11.459C2.4368 9.32529 3.78632 7.38657 5.4876 5.75351C7.18887 4.12045 9.20859 2.82503 11.4314 1.94123C13.6542 1.05743 16.0366 0.602539 18.4426 0.602539H46.4681C51.3272 0.602539 55.9872 2.4554 59.4231 5.75351C62.859 9.05162 64.7892 13.5248 64.7892 18.189C64.7892 22.8533 62.859 27.3265 59.4231 30.6246C55.9872 33.9227 51.3272 35.7756 46.4681 35.7756Z" fill="#43E37F" fill-opacity="0.3"/>
<path d="M76.7516 68.3751C76.7757 68.1311 76.8787 67.9004 77.0462 67.7154C77.2727 67.5342 77.6126 67.5922 77.9071 67.6067C79.1683 67.6574 80.1727 66.6643 81.2073 65.9829C81.257 65.9458 81.318 65.9254 81.381 65.9249C81.449 65.9249 81.4943 66.0046 81.532 66.0626C82.106 67.0775 81.6755 68.3461 81.0638 69.332C80.4521 70.3179 79.6591 71.1298 78.5641 71.1733C77.8864 71.0578 77.1976 71.014 76.51 71.0428C76.0719 71.137 75.7548 71.398 75.5509 70.8906C75.1279 69.9844 76.5402 69.1725 76.7516 68.3751Z" fill="#EC9C7D"/>
<path d="M59.4198 84.2581C59.4256 84.6913 59.3462 85.1217 59.1857 85.5267C59.9392 85.1351 60.7653 84.8889 61.6174 84.8017L62.8106 84.5915C62.926 84.5551 63.048 84.542 63.1689 84.5533C63.2899 84.5645 63.407 84.5997 63.513 84.6568C63.6023 84.7423 63.6656 84.8496 63.6962 84.9671C63.7268 85.0846 63.7235 85.2079 63.6867 85.3237C63.5581 85.737 63.3245 86.1131 63.007 86.4183C62.6327 86.8223 62.2289 87.2002 61.7987 87.5492C61.5112 87.7877 61.1878 87.9832 60.8396 88.1291C60.0013 88.4191 59.0724 88.1291 58.1813 88.2016C57.9603 88.2234 57.7376 88.2234 57.5167 88.2016C57.332 88.1737 57.1586 88.0984 57.015 87.9835C56.8714 87.8686 56.7629 87.7185 56.7011 87.5492C56.3839 86.6575 57.2599 86.3241 57.7508 85.7949C58.2417 85.2657 58.6495 84.4828 59.4198 84.2581Z" fill="url(#paint8_linear_567_42)"/>
<path d="M51.8376 99.3146C51.8591 100.181 51.6866 101.041 51.3316 101.837H51.2787C50.3272 101.837 49.3681 101.837 48.4165 101.895C46.8263 102.017 45.2451 102.23 43.6814 102.533C42.9262 102.657 42.239 102.801 41.5215 102.939L39.4523 103.345C38.1458 103.592 36.8846 103.802 35.6763 103.969C34.099 103.324 32.6907 102.351 31.5529 101.12C31.4245 100.989 31.3112 100.851 31.1904 100.714C31.0696 100.576 30.9034 100.344 30.7675 100.148C30.3693 99.5996 30.1106 98.969 30.0123 98.307C29.967 98.0405 29.967 97.7688 30.0123 97.5023C30.2748 96.6048 30.8714 95.8309 31.6888 95.3276L31.9456 95.1463C33.6884 93.9923 35.7732 93.41 37.889 93.4863H38.4177C39.548 93.5715 40.6679 93.7559 41.7632 94.0372C43.4926 94.4577 45.2296 95.0593 46.9439 95.5813C48.2099 95.8989 49.4227 96.387 50.5462 97.0311C50.9622 97.2579 51.3037 97.592 51.532 97.9957C51.7602 98.3993 51.8661 98.8562 51.8376 99.3146Z" fill="#3E3E54"/>
<path d="M52.1548 107.238C51.9282 108.34 51.7318 109.449 51.5581 110.565C51.3165 112.095 51.2107 113.653 50.954 115.176C50.6972 116.698 50.7425 118.206 50.4782 119.707C50.3499 120.266 50.2816 120.837 50.2743 121.41C50.3494 122.206 50.5612 122.985 50.9011 123.715C50.8558 123.817 50.7048 123.81 50.5915 123.781C49.9588 123.643 49.3454 123.433 48.7639 123.157C48.1758 122.881 47.7118 122.41 47.4574 121.831C46.959 120.591 47.5556 119.206 47.178 117.909C46.6339 116.32 46.3536 114.659 46.3473 112.987C46.4995 111.784 46.5802 110.574 46.5889 109.362C46.4152 107.289 45.0785 105.201 45.8337 103.258C46.1452 102.607 46.6294 102.046 47.2378 101.632C47.8461 101.217 48.5573 100.963 49.3001 100.895C49.7784 100.817 50.2695 100.857 50.7274 101.011C52.993 101.881 52.6003 105.114 52.2378 106.81L52.1548 107.238Z" fill="url(#paint9_linear_567_42)"/>
<path d="M46.9212 121.802C46.9518 121.765 46.9905 121.735 47.0345 121.715C47.2082 121.642 47.3743 121.838 47.4725 121.997C47.9002 122.678 48.5469 123.208 49.3152 123.505C49.4077 123.553 49.5154 123.566 49.6173 123.541C49.7306 123.498 49.791 123.382 49.8816 123.302C49.9508 123.249 50.0329 123.214 50.1201 123.2C50.2073 123.186 50.2967 123.194 50.38 123.222C50.5469 123.276 50.7028 123.357 50.8407 123.462C51.2796 123.743 51.6938 124.058 52.0792 124.404C52.1896 124.489 52.2729 124.602 52.3196 124.73C52.3663 124.858 52.3746 124.996 52.3436 125.129C52.2683 125.255 52.1474 125.351 52.0037 125.397C51.4669 125.56 50.8878 125.539 50.3649 125.339C49.3832 125.027 48.5222 124.462 47.5631 124.092C47.4967 124.063 47.4246 124.048 47.3517 124.049L47.1931 124.085C47.1064 124.076 47.0232 124.047 46.9498 124.002C46.8765 123.957 46.815 123.896 46.7702 123.824C46.515 123.535 46.3879 123.161 46.4161 122.783C46.4443 122.405 46.6256 122.053 46.9212 121.802Z" fill="#3E3E54"/>
<path d="M56.7464 107.796C57.1707 108.839 57.3711 109.954 57.3354 111.073C57.3354 113.972 56.5047 116.742 55.6966 119.504C55.3568 120.663 55.0698 121.86 54.6696 123.005C54.2693 124.15 55.1529 126.151 55.7948 127.13C55.9541 127.333 56.0814 127.558 56.1724 127.797C56.2198 127.924 56.2242 128.063 56.1849 128.193C56.1456 128.323 56.0646 128.438 55.9534 128.522C55.8145 128.593 55.6575 128.625 55.5003 128.616C54.1853 128.538 52.9262 128.078 51.8904 127.296C51.6792 127.204 51.5072 127.045 51.4029 126.846C51.2985 126.647 51.268 126.42 51.3165 126.202C51.6941 119.837 53.5821 113.711 49.0509 108.238C48.0087 106.977 46.7022 105.824 46.2566 104.28C46.1888 104.043 46.1888 103.793 46.2566 103.555C46.3489 103.327 46.5159 103.134 46.7324 103.004C47.767 102.28 49.1793 102.374 50.4253 102.649C51.8408 102.937 53.1594 103.558 54.2628 104.457C55.3661 105.355 56.2196 106.503 56.7464 107.796Z" fill="url(#paint10_linear_567_42)"/>
<path d="M51.83 128.036C52.7967 128.333 53.5594 129.022 54.4959 129.384C55.3385 129.803 56.2425 130.096 57.1768 130.254C57.3281 130.29 57.4863 130.29 57.6375 130.254C57.7259 130.21 57.8045 130.15 57.8686 130.078C57.9328 130.005 57.9814 129.92 58.0116 129.829C58.0417 129.739 58.0529 129.643 58.0445 129.548C58.036 129.453 58.0081 129.36 57.9622 129.275C57.7648 128.935 57.5095 128.629 57.207 128.369C56.93 128.075 56.6775 127.76 56.4518 127.427C56.2555 127.151 56.0516 126.702 55.6966 126.593C55.3417 126.485 54.8735 126.738 54.5336 126.789C54.0413 126.838 53.5462 126.726 53.129 126.47C52.7195 126.21 52.3508 125.895 52.0339 125.535C51.8678 125.354 51.6261 125.143 51.392 125.238C51.1579 125.332 51.1352 125.557 51.1126 125.76C51.0597 126.253 51.0219 126.745 51.0144 127.209C50.9909 127.36 51.0146 127.514 51.0824 127.652C51.1957 127.884 51.543 127.956 51.83 128.036Z" fill="#3E3E54"/>
<path d="M52.2831 96.4149C53.8846 97.3634 55.2122 98.6829 56.1438 100.252C57.0754 101.822 57.5813 103.591 57.6149 105.397C54.5121 107.637 50.9332 109.194 47.1327 109.956C46.6989 110.08 46.2373 110.08 45.8035 109.956C45.4454 109.782 45.1311 109.534 44.8822 109.231C41.4007 105.795 35.2685 106.143 31.6133 102.881C30.2313 101.642 29.3477 99.5103 30.4201 98.0315C30.8616 97.5058 31.4119 97.0739 32.0362 96.7629C34.8833 95.1391 38.2364 92.7106 41.6726 93.276C45.1087 93.8415 49.3152 94.6896 52.2831 96.4149Z" fill="#43E37F" fill-opacity="0.3"/>
<path d="M53.6274 107.948C51.8829 106.158 51.5657 103.534 51.3618 101.091C50.861 101.505 50.2984 101.844 49.6928 102.098L49.3983 101.337C49.3756 101.26 49.3247 101.193 49.2548 101.149C49.1758 101.127 49.0921 101.127 49.0131 101.149C46.5361 101.954 43.9404 102.373 41.3252 102.388C40.3198 102.468 39.3132 102.25 38.4403 101.765C38.0178 101.506 37.7154 101.101 37.5959 100.634C37.4763 100.167 37.5489 99.6737 37.7984 99.2566C35.6848 99.8092 33.5317 100.211 31.3565 100.46C31.2692 100.457 31.1821 100.471 31.1004 100.501C31.0187 100.531 30.944 100.576 30.8808 100.634C30.7146 100.844 30.8807 101.141 31.0242 101.359C32.7685 103.714 35.398 105.325 38.3572 105.853C39.1804 105.991 43.5455 107.557 45.509 110.014C45.6469 110.17 45.8278 110.285 46.0308 110.347C46.2338 110.408 46.4508 110.414 46.6569 110.362L53.6274 107.948Z" fill="url(#paint11_linear_567_42)"/>
<path d="M45.7053 64.3808C45.4784 64.2068 45.2233 64.0697 44.9501 63.9749C44.5187 63.789 44.0422 63.7211 43.5731 63.7787C43.1041 63.8362 42.6607 64.017 42.2918 64.3011C41.6952 64.8883 41.6575 65.8017 41.5366 66.6136C41.3163 67.7827 40.7974 68.8811 40.0262 69.8104C39.5643 70.2688 39.1977 70.8077 38.9463 71.398C38.8783 71.5982 38.8783 71.814 38.9463 72.0142C39.0753 72.2177 39.2575 72.3851 39.4749 72.4999C39.9634 72.8336 40.511 73.0792 41.0911 73.2248C41.4611 73.3263 41.9369 73.7105 42.2994 73.5945C42.6619 73.4785 42.8431 73.0581 43.1754 72.8696C43.3843 72.7934 43.6071 72.7586 43.8303 72.7673C44.0536 72.7761 44.2727 72.8281 44.4744 72.9204C44.6779 73.0094 44.9022 73.0456 45.1249 73.0253C45.3476 73.0049 45.5608 72.9287 45.7431 72.8044C45.8551 72.6738 45.9397 72.5236 45.9923 72.3622C46.1456 71.9251 46.2469 71.4727 46.2944 71.0138C46.266 70.5362 46.413 70.0642 46.7098 69.68C46.7921 69.6167 46.8657 69.5436 46.9288 69.4625C47.0949 69.187 46.8155 68.8681 46.6796 68.5781C46.5789 68.3064 46.5378 68.0176 46.5587 67.7299C46.5285 66.6208 46.7626 65.1637 45.7053 64.3808Z" fill="url(#paint12_linear_567_42)"/>
<path d="M37.3 71.9272C37.2395 72.0052 37.198 72.0951 37.1784 72.1904C37.1588 72.2857 37.1616 72.384 37.1867 72.4781C37.2352 72.559 37.3059 72.6255 37.3912 72.6702C37.4765 72.715 37.5729 72.7363 37.67 72.7319C39.0939 72.7898 40.4922 73.1149 41.7858 73.6888C42.0653 73.8192 42.4353 73.957 42.6317 73.6888C42.6872 73.5922 42.7163 73.4837 42.7163 73.3734C42.7163 73.2631 42.6872 73.1546 42.6317 73.0581C42.5222 72.8833 42.3755 72.7326 42.2012 72.6159C41.6398 72.2232 41.0547 71.8625 40.4492 71.5358C39.3239 70.8978 38.1684 70.5644 37.3 71.9272Z" fill="white"/>
<path d="M41.6424 93.7762C42.2994 95.0376 43.6814 95.806 42.2994 97.0746C39.8677 99.3291 35.5555 100.271 32.293 100.242C30.0853 100.31 27.9162 99.6754 26.123 98.4374C25.5957 98.0687 25.1853 97.5668 24.9373 96.9876C24.8079 96.6085 24.7417 96.2122 24.741 95.8132C24.3105 88.4263 27.0066 81.1482 30.8883 74.7399C31.6435 73.5075 32.5875 72.1882 34.0451 71.978C34.5681 71.9331 35.0952 71.9649 35.6083 72.0722C38.9203 72.6218 42.1979 73.3478 45.4259 74.2469C47.8426 74.9211 49.5871 77.4076 50.3574 79.6186C51.0295 81.5179 51.2863 83.5331 51.8678 85.4179C51.9438 85.7975 52.1646 86.1361 52.4871 86.3676C52.8445 86.5227 53.2507 86.5383 53.6199 86.4111C54.7823 86.1793 55.9257 85.8667 57.0409 85.4759C57.6299 86.7259 58.0243 88.0522 58.2115 89.4122C57.381 90.044 56.6033 90.7372 55.8855 91.4855C55.0774 92.1815 54.1309 92.7132 53.1029 93.0483C52.0749 93.3835 50.9868 93.5152 49.9043 93.4355C49.1423 93.4278 48.4125 93.1398 47.8652 92.6309C47.5653 92.2462 47.3565 91.8034 47.2535 91.3333C46.9162 90.1831 46.6191 89.0208 46.3624 87.8464C46.2264 87.2085 46.0981 86.5705 45.9848 85.9254C45.9093 85.5194 45.9848 84.3595 45.6751 84.0623C44.8595 83.1562 44.5197 85.1207 44.3762 85.5557C43.9834 86.7461 43.4987 87.9067 42.9262 89.028C42.1937 90.5141 40.8117 92.1887 41.6424 93.7762Z" fill="white"/>
<path d="M46.6644 64.6055C46.8253 64.1369 46.8436 63.634 46.7173 63.1557C46.4993 62.4533 46.12 61.8067 45.6072 61.2637C44.6824 60.0702 43.3428 59.2344 41.8312 58.9077C37.7531 58.2698 33.0104 62.2641 31.4623 65.5624C30.4881 67.6357 30.1935 69.9119 29.6498 72.1519C29.106 74.3919 28.2225 76.6319 26.3949 78.089C25.6397 78.6834 24.7561 79.1474 24.3105 79.9666C24.0767 80.4853 23.9994 81.0566 24.0876 81.6155C24.1757 82.1743 24.4257 82.6981 24.809 83.1272C25.4821 83.8097 26.2744 84.374 27.1501 84.7945C27.9129 85.3195 28.5194 86.0267 28.9097 86.846C29.8461 88.5858 30.2162 90.5721 31.3716 92.2104L33.0406 91.326C34.4778 90.6562 35.7975 89.7757 36.9526 88.7163C37.5248 88.1817 37.9634 87.5295 38.2355 86.8088C38.5075 86.0882 38.606 85.3177 38.5234 84.5553C38.2631 83.6621 37.9376 82.7876 37.5492 81.9383C36.6127 79.1619 38.6593 78.0455 40.4416 76.4C41.0442 75.824 41.4955 75.1186 41.7581 74.3422C42.0208 73.5657 42.0872 72.7404 41.952 71.9345C41.8469 71.5789 41.8136 71.2074 41.8538 70.8398C42.0425 70.3253 42.3587 69.8626 42.7752 69.4915C43.5304 68.6071 42.9338 67.4617 43.8324 66.6498C44.5272 66.0191 45.5921 65.9249 46.2491 65.2C46.4286 65.0313 46.57 64.829 46.6644 64.6055Z" fill="#2F3554"/>
<path d="M26.6516 83.8884C26.8826 82.9055 27.2192 81.9483 27.6561 81.0322C29.5592 82.3298 30.9563 84.8742 31.6586 87.02C32.361 89.1657 32.9349 91.4057 34.3698 93.1818L35.918 92.6671L36.2049 93.6095C36.4315 94.3344 35.782 95.1101 35.85 95.8567C35.9245 96.2436 36.1149 96.6012 36.3979 96.8858C36.681 97.1703 37.0443 97.3695 37.4435 97.4588C38.3563 97.6254 39.2986 97.5604 40.1773 97.2703C40.7528 97.1623 41.2967 96.9347 41.7708 96.6034C42.001 96.4396 42.1779 96.2163 42.2809 95.9596C42.3839 95.7028 42.4086 95.4233 42.3523 95.1536C42.5362 95.2661 42.677 95.4332 42.7533 95.6293C42.8296 95.8255 42.8373 96.0402 42.7752 96.241C42.6308 96.6401 42.3683 96.9903 42.02 97.2486C40.8865 98.0902 39.6087 98.7354 38.244 99.1551C37.5989 99.4026 36.9411 99.6179 36.2729 99.8003C34.7358 100.125 33.1645 100.279 31.5907 100.257C30.6315 100.257 30.0803 100.134 29.6347 99.2276C29.151 97.8862 28.896 96.4787 28.8795 95.0593C28.4365 91.2863 27.6917 87.5516 26.6516 83.8884Z" fill="url(#paint13_linear_567_42)"/>
<path d="M20.2324 104.353L10.6943 128.485C10.6037 128.724 10.6147 128.987 10.725 129.218C10.8353 129.448 11.0359 129.628 11.2833 129.718C11.3619 129.742 11.4429 129.759 11.525 129.768C11.7422 129.79 11.9607 129.742 12.1465 129.632C12.3323 129.522 12.4749 129.356 12.5521 129.159L22.0978 105.034C22.145 104.918 22.1675 104.793 22.1641 104.668C22.1608 104.543 22.1315 104.42 22.0781 104.306C22.0247 104.192 21.9482 104.09 21.853 104.004C21.7579 103.919 21.646 103.853 21.5238 103.809C21.4024 103.764 21.2729 103.742 21.1427 103.745C21.0125 103.749 20.8843 103.777 20.7655 103.828C20.6467 103.879 20.5397 103.953 20.4508 104.044C20.3619 104.135 20.2928 104.243 20.2475 104.36L20.2324 104.353Z" fill="#43E37F" fill-opacity="0.3"/>
<path d="M32.9878 105.607L35.4346 130.74C35.449 131.012 35.3507 131.278 35.161 131.48C34.9713 131.683 34.7058 131.805 34.4227 131.82H34.2641C34.0517 131.801 33.8528 131.712 33.7014 131.568C33.5499 131.423 33.4551 131.233 33.4333 131.03L30.9865 105.904C30.9688 105.645 31.0541 105.39 31.2252 105.19C31.3962 104.989 31.6402 104.858 31.9078 104.824C32.0279 104.803 32.1511 104.805 32.2703 104.831C32.3894 104.856 32.5021 104.904 32.6019 104.971C32.7017 105.039 32.7865 105.124 32.8514 105.224C32.9164 105.323 32.9602 105.433 32.9802 105.549C32.9802 105.549 32.9878 105.563 32.9878 105.607Z" fill="#43E37F" fill-opacity="0.3"/>
<path d="M24.8543 104.911L17.7856 129.188C17.7518 129.323 17.7459 129.462 17.7683 129.598C17.7906 129.735 17.8408 129.866 17.9158 129.983C17.9908 130.101 18.0893 130.204 18.2056 130.285C18.3219 130.366 18.4538 130.425 18.5937 130.457H18.7296C18.9401 130.483 19.1534 130.435 19.3298 130.322C19.5062 130.209 19.6337 130.038 19.6887 129.841L26.7649 105.563C26.8289 105.31 26.7925 105.043 26.6627 104.814C26.5329 104.585 26.319 104.41 26.0626 104.324C25.953 104.281 25.8358 104.26 25.7176 104.261C25.5994 104.262 25.4827 104.286 25.3739 104.33C25.2652 104.374 25.1667 104.439 25.084 104.52C25.0013 104.601 24.9361 104.697 24.892 104.802C24.8761 104.837 24.8634 104.874 24.8543 104.911Z" fill="#43E37F" fill-opacity="0.3"/>
<path d="M37.9343 106.288L44.3384 131.784C44.4064 132.003 44.381 132.239 44.2677 132.44C44.1544 132.641 43.9625 132.791 43.7343 132.857C43.6123 132.882 43.4862 132.882 43.3642 132.857C43.1419 132.831 42.933 132.742 42.7656 132.599C42.5982 132.456 42.4803 132.268 42.4278 132.059L36.0086 106.557C35.9764 106.447 35.9672 106.333 35.9814 106.22C35.9955 106.107 36.0328 105.998 36.091 105.899C36.1493 105.8 36.2274 105.713 36.3208 105.643C36.4142 105.573 36.5211 105.521 36.6354 105.491H36.7638C37.0265 105.465 37.2902 105.531 37.5056 105.678C37.721 105.825 37.8734 106.042 37.9343 106.288Z" fill="#43E37F" fill-opacity="0.3"/>
<path d="M36.0916 86.9113C34.249 82.8735 31.6058 78.8067 27.3615 77.1031C24.7485 76.0592 21.8184 76.0375 18.9864 76.226C16.8673 76.2654 14.7767 76.7013 12.8315 77.5091C11.8664 77.9274 11.0198 78.5617 10.3628 79.3588C9.70579 80.156 9.25748 81.0928 9.05548 82.0906C8.96474 83.2618 9.10045 84.4391 9.45574 85.5629L12.3557 97.3356C12.7333 98.8869 13.1562 100.503 14.2815 101.685C15.4175 102.69 16.7871 103.421 18.2765 103.816C23.0493 105.469 27.8751 107.144 32.9047 107.782C37.9343 108.42 43.2736 107.956 47.6915 105.563C49.2699 104.708 50.8785 103.099 50.2441 101.475C49.7457 100.221 48.1597 99.7423 46.7626 99.6626C43.1075 99.4451 42.0955 98.9377 40.2528 95.864C38.5687 93.0151 37.4888 89.8979 36.0916 86.9113Z" fill="#505365"/>
<defs>
<linearGradient id="paint0_linear_567_42" x1="83.2917" y1="-637.557" x2="-8.95774" y2="221.955" gradientUnits="userSpaceOnUse">
<stop offset="0.01"/>
<stop offset="0.08" stop-opacity="0.69"/>
<stop offset="0.21" stop-opacity="0.32"/>
<stop offset="1" stop-opacity="0"/>
</linearGradient>
<linearGradient id="paint1_linear_567_42" x1="273.585" y1="76.9912" x2="-322.884" y2="36.4373" gradientUnits="userSpaceOnUse">
<stop offset="0.01"/>
<stop offset="0.08" stop-opacity="0.69"/>
<stop offset="0.21" stop-opacity="0.32"/>
<stop offset="1" stop-opacity="0"/>
</linearGradient>
<linearGradient id="paint2_linear_567_42" x1="210.774" y1="88.4029" x2="-199.697" y2="-154.197" gradientUnits="userSpaceOnUse">
<stop offset="0.01"/>
<stop offset="0.08" stop-opacity="0.69"/>
<stop offset="0.21" stop-opacity="0.32"/>
<stop offset="1" stop-opacity="0"/>
</linearGradient>
<linearGradient id="paint3_linear_567_42" x1="159.173" y1="71.3023" x2="-0.213412" y2="71.3023" gradientUnits="userSpaceOnUse">
<stop stop-color="#E5C5D5"/>
<stop offset="0.42" stop-color="#EAD4D1"/>
<stop offset="1" stop-color="#F0E9CB"/>
</linearGradient>
<linearGradient id="paint4_linear_567_42" x1="26.0421" y1="-65.0778" x2="106.054" y2="180.059" gradientUnits="userSpaceOnUse">
<stop stop-opacity="0"/>
<stop offset="0.99"/>
</linearGradient>
<linearGradient id="paint5_linear_567_42" x1="0.144281" y1="71.2499" x2="158.908" y2="71.2499" gradientUnits="userSpaceOnUse">
<stop stop-color="#E5C5D5"/>
<stop offset="0.42" stop-color="#EAD4D1"/>
<stop offset="1" stop-color="#F0E9CB"/>
</linearGradient>
<linearGradient id="paint6_linear_567_42" x1="326.831" y1="239.175" x2="44.9541" y2="-152.151" gradientUnits="userSpaceOnUse">
<stop offset="0.01"/>
<stop offset="0.08" stop-opacity="0.69"/>
<stop offset="0.21" stop-opacity="0.32"/>
<stop offset="1" stop-opacity="0"/>
</linearGradient>
<linearGradient id="paint7_linear_567_42" x1="0.108044" y1="71.2803" x2="159.167" y2="71.2803" gradientUnits="userSpaceOnUse">
<stop offset="0.01"/>
<stop offset="0.08" stop-opacity="0.69"/>
<stop offset="0.21" stop-opacity="0.32"/>
<stop offset="1" stop-opacity="0"/>
</linearGradient>
<linearGradient id="paint8_linear_567_42" x1="0.111836" y1="71.2453" x2="159.01" y2="71.2453" gradientUnits="userSpaceOnUse">
<stop stop-color="#E5C5D5"/>
<stop offset="0.42" stop-color="#EAD4D1"/>
<stop offset="1" stop-color="#F0E9CB"/>
</linearGradient>
<linearGradient id="paint9_linear_567_42" x1="266.766" y1="-74.8939" x2="241.162" y2="217.85" gradientUnits="userSpaceOnUse">
<stop stop-color="#E5C5D5"/>
<stop offset="0.42" stop-color="#EAD4D1"/>
<stop offset="1" stop-color="#F0E9CB"/>
</linearGradient>
<linearGradient id="paint10_linear_567_42" x1="43.8964" y1="50.7539" x2="92.3914" y2="202.281" gradientUnits="userSpaceOnUse">
<stop stop-color="#E5C5D5"/>
<stop offset="0.42" stop-color="#EAD4D1"/>
<stop offset="1" stop-color="#F0E9CB"/>
</linearGradient>
<linearGradient id="paint11_linear_567_42" x1="-1.86918" y1="158.962" x2="233.254" y2="69.8428" gradientUnits="userSpaceOnUse">
<stop offset="0.01"/>
<stop offset="0.08" stop-opacity="0.69"/>
<stop offset="0.21" stop-opacity="0.32"/>
<stop offset="1" stop-opacity="0"/>
</linearGradient>
<linearGradient id="paint12_linear_567_42" x1="158.619" y1="71.2588" x2="-0.50868" y2="71.2588" gradientUnits="userSpaceOnUse">
<stop stop-color="#E5C5D5"/>
<stop offset="0.42" stop-color="#EAD4D1"/>
<stop offset="1" stop-color="#F0E9CB"/>
</linearGradient>
<linearGradient id="paint13_linear_567_42" x1="-167.299" y1="238.153" x2="113.009" y2="-152.748" gradientUnits="userSpaceOnUse">
<stop offset="0.01"/>
<stop offset="0.08" stop-opacity="0.69"/>
<stop offset="0.21" stop-opacity="0.32"/>
<stop offset="1" stop-opacity="0"/>
</linearGradient>
</defs>
</svg>
