<svg width="211" height="116" viewBox="0 0 211 116" fill="none" xmlns="http://www.w3.org/2000/svg">
<path d="M107.5 116C163.557 116 209 112.642 209 108.5C209 104.358 163.557 101 107.5 101C51.4431 101 6 104.358 6 108.5C6 112.642 51.4431 116 107.5 116Z" fill="#E6E6E6"/>
<path d="M95.9567 84.0739C95.9567 84.0739 101.504 89.1988 94.3184 88.994C87.1329 88.7893 89.7769 83.3046 95.9567 84.0739Z" fill="#FF0066"/>
<path d="M53.1781 30.6671C53.1781 30.6671 63.588 37.8526 58.6892 40.6227C53.7904 43.3929 50 30 50 30L53.1781 30.6671Z" fill="#24285B"/>
<path d="M53.3994 24.1635C53.3994 24.1635 54.1969 27.3239 53.9539 29.5385C53.9307 29.7527 53.8626 29.9604 53.7536 30.1496C53.6445 30.3387 53.4968 30.5056 53.3189 30.6406C53.141 30.7756 52.9364 30.8759 52.717 30.9358C52.4977 30.9957 52.2679 31.0139 52.041 30.9895C51.306 30.9563 50.5967 30.7242 49.9978 30.3211C49.3989 29.9179 48.9358 29.3607 48.6639 28.7161L47.2058 26.0433C46.9769 25.4795 46.9379 24.8629 47.094 24.2774C47.2501 23.6919 47.5937 23.166 48.0782 22.7713C49.7979 21.2028 53.0193 22.2073 53.3994 24.1635Z" fill="#F4A28C"/>
<path d="M47 28L48.0267 38L54 37.0864L50.8533 30.1761L47 28Z" fill="#F4A28C"/>
<path d="M50 27.0168C50 27.0168 49.8759 25.8024 49.3228 26.0279C48.7698 26.2535 48.9435 28.0172 49.7199 27.9999L50 27.0168Z" fill="#F4A28C"/>
<path d="M54.1961 26L54.9038 27.4C54.9438 27.4797 54.9727 27.5776 54.9879 27.6845C55.0031 27.7915 55.004 27.9041 54.9906 28.0119C54.9772 28.1197 54.9498 28.2192 54.9111 28.3013C54.8724 28.3834 54.8236 28.4454 54.7692 28.4815L54 29L54.1961 26Z" fill="#F4A28C"/>
<path d="M74.6908 75.4259C74.6908 75.4259 96.9261 70.4331 99.8246 79.1327C102.723 87.8323 68.736 86.9769 68.736 86.9769L61 81.5593L74.6908 75.4259Z" fill="#374A69"/>
<path d="M51.6089 37C51.6089 37 64.579 38.1559 73.6165 47.2236C78.9851 52.6042 76.9562 57.089 74.4202 59.8457C73.3563 61.026 72.6444 62.4203 72.3488 63.9026C72.0532 65.3849 72.1833 66.9084 72.7273 68.3356L75.4148 75.6811C75.4148 75.6811 61.068 83.7722 52.0041 82.9399C42.9402 82.1077 14.4178 38.2483 51.6089 37Z" fill="#FF0066"/>
<path d="M33.9817 46.0057C33.9817 46.0057 32.392 50.3012 33.2585 54.4529C34.125 58.6047 38.5617 86.1773 67.9769 78.7307L75 75.2805L67.5469 69.743L53.2856 56.5748L47.0442 46L33.9817 46.0057Z" fill="black"/>
<path d="M45.0497 64.4402C38.8275 47.3343 11.0528 50.1347 8.67448 68.0224C6.22547 86.4878 9.0023 104.551 41.7522 107.859C93.8177 113.109 102.033 99.1714 94.6855 87.923C87.3385 76.6746 50.7833 82.5847 45.3261 65.2395C45.2425 64.9536 45.1525 64.6969 45.0497 64.4402Z" fill="#68E1FD"/>
<path d="M88 74.6731C88 74.6731 94.5318 76.4204 95 71.8354L88 71.3697V74.6731Z" fill="#F4A28C"/>
<path d="M44.0009 46.2227C43.924 42.1899 48.7936 39.5944 52.4201 41.8157C54.9062 43.3362 57.3538 46.4662 58.8274 52.6193C61.7107 64.6405 68.8869 69.8433 88 71.3697V74.7908C88 74.7908 44.7762 84.9767 44.0009 46.2227Z" fill="#F4A28C"/>
<path d="M52.1972 24.9523C52.6092 24.8054 52.9708 24.5645 53.2456 24.2535C53.5204 23.9426 53.6988 23.5727 53.7629 23.1809C53.827 22.7891 53.7746 22.3891 53.6108 22.021C53.4471 21.653 53.1778 21.3298 52.83 21.0839C52.4436 20.8165 52.0177 20.5979 51.5643 20.4345C48.5837 19.3051 41.439 20.1013 41.9136 26.1495C42.3882 32.1978 31.0732 45.9489 41.2808 49.6817C51.4884 53.4146 60 48.4845 60 44.0344C60 39.5844 50.305 38.5397 49.6722 34.6656C49.4127 33.0844 49.1659 31.4128 48.9571 29.984C48.814 28.9454 49.0526 27.8934 49.6369 26.986C50.2211 26.0787 51.1195 25.3651 52.1972 24.9523Z" fill="#374A69"/>
<path d="M27.0403 84.148C23.3999 81.1795 17.6966 84.4335 19.2677 88.6065C21.4966 94.5093 26.6187 100.298 37.872 102.01C63.1569 105.858 60.6916 97.4949 59.0566 93.8471C57.6963 90.8671 40.976 95.514 27.0403 84.148Z" fill="white"/>
<path d="M145.122 67.185C142.142 70.3613 138.306 73.0276 133.833 74.0535C133.209 74.1163 132.632 74.3822 132.211 74.8012C132.064 75.0806 131.992 75.3873 132.001 75.6964C132.01 76.0056 132.099 76.3085 132.262 76.5806C133.389 79.0399 135.391 81.092 137.955 82.4141C140.518 83.7362 143.497 84.2532 146.423 83.8838C148.817 83.4708 151.092 82.6228 153.11 81.3914C155.032 80.3646 156.673 78.9622 157.912 77.2878C159.354 75.1721 159.759 72.6218 159.913 70.1469C160.055 67.9122 160.023 65.6713 159.817 63.4407C159.585 60.9831 157.603 54.9609 153.432 56.1549C151.713 56.6418 150.574 59.9224 149.718 61.2266C148.378 63.3271 146.84 65.3205 145.122 67.185Z" fill="#FF0066"/>
<path d="M145.122 67.185C142.142 70.3613 138.306 73.0276 133.833 74.0535C133.209 74.1163 132.632 74.3822 132.211 74.8012C132.064 75.0806 131.992 75.3873 132.001 75.6964C132.01 76.0056 132.099 76.3085 132.262 76.5806C133.389 79.0399 135.391 81.092 137.955 82.4141C140.518 83.7362 143.497 84.2532 146.423 83.8838C148.817 83.4708 151.092 82.6228 153.11 81.3914C155.032 80.3646 156.673 78.9622 157.912 77.2878C159.354 75.1721 159.759 72.6218 159.913 70.1469C160.055 67.9122 160.023 65.6713 159.817 63.4407C159.585 60.9831 157.603 54.9609 153.432 56.1549C151.713 56.6418 150.574 59.9224 149.718 61.2266C148.378 63.3271 146.84 65.3205 145.122 67.185Z" fill="black"/>
<path d="M140.173 69.9407C140.793 70.0441 141.458 70.0114 142.038 69.849C142.615 69.7198 143.122 69.5052 143.505 69.2275C143.696 69.0883 143.836 68.929 143.918 68.7586C143.999 68.5883 144.02 68.4104 143.98 68.2353C143.971 68.1566 143.931 68.08 143.863 68.0111C143.795 67.9422 143.702 67.8827 143.589 67.8369C143.407 67.7771 143.177 67.7731 142.995 67.7094C142.822 67.6221 142.68 67.5166 142.576 67.3986C142.41 67.2771 142.198 67.1783 141.957 67.1093C141.715 67.0404 141.449 67.0031 141.179 67.0002C140.633 66.9962 140.093 67.0644 139.6 67.1994C139.243 67.2677 138.917 67.3803 138.645 67.5291C138.373 67.6779 138.163 67.8592 138.029 68.06C137.962 68.2884 138.013 68.523 138.175 68.7352C138.338 68.9474 138.605 69.1281 138.944 69.2554C139.638 69.5048 140.412 69.6727 141.221 69.7494" fill="#24285B"/>
<path d="M159.003 24.0346C159.003 24.0346 158.903 27.529 159.788 29.807C159.969 30.2454 160.351 30.6073 160.854 30.8144C161.356 31.0214 161.937 31.0568 162.47 30.9128C163.347 30.7245 164.14 30.3309 164.751 29.7795C165.363 29.2281 165.768 28.5425 165.917 27.8055L166.95 24.6926C167.077 24.0509 166.96 23.3925 166.614 22.8081C166.268 22.2238 165.711 21.7424 165.019 21.4304C162.538 20.1643 158.936 21.8894 159.003 24.0346Z" fill="#F4A28C"/>
<path d="M166.787 24L170 36.9088L162 38L162.876 28.1668L166.787 24Z" fill="#F4A28C"/>
<path d="M160.397 23.1783C161.525 23.1516 162.646 22.9977 163.739 22.7195C163.444 23.2249 163.308 23.8041 163.346 24.385C163.384 24.966 163.595 25.5232 163.952 25.9877C164.287 26.4466 164.775 26.7764 165.332 26.9201C165.888 27.0639 166.478 27.0125 167 26.775L166.648 22.1814C166.619 21.523 166.41 20.8845 166.042 20.3332C165.674 19.7819 165.162 19.3382 164.558 19.0491C164.034 18.8 163.494 18.5825 162.942 18.3978C161.563 17.9503 159.646 18.9642 158.376 18.1372C158.249 18.0568 158.102 18.01 157.95 18.0014C157.799 17.9929 157.648 18.0227 157.511 18.0882C157.375 18.1537 157.258 18.2525 157.172 18.3752C157.086 18.4979 157.033 18.6403 157.02 18.7886C156.899 20.199 157.297 22.3853 159.271 23.031C159.636 23.1393 160.016 23.1891 160.397 23.1783Z" fill="#374A69"/>
<path d="M164.001 26.1601C164.001 26.1601 163.93 24.9617 165.111 25.0009C166.292 25.0402 166.394 26.7593 164.822 27L164.001 26.1601Z" fill="#F4A28C"/>
<path d="M159.548 26L158.15 27.1514C158.064 27.2175 158.013 27.2939 158.002 27.3731C157.991 27.4523 158.021 27.5316 158.087 27.6033C158.154 27.6749 158.256 27.7365 158.384 27.7819C158.511 27.8273 158.659 27.8551 158.813 27.8624L161 28L159.548 26Z" fill="#F4A28C"/>
<path d="M162.227 30.2478C163.317 30.0193 164.281 29.5854 165 29C165 29 165.062 30.9461 162 33L162.227 30.2478Z" fill="#CE8172"/>
<path d="M173.792 83L154.011 81.8249C154.011 81.8249 153.727 80.0621 153.294 77.1948C152.984 75.1324 152.59 72.4942 152.17 69.6151C151.479 64.8381 150.716 59.2973 150.109 54.2089C148.617 41.77 162.919 37.0047 162.919 37.0047L170.239 36C203.495 40.7006 173.792 83 173.792 83Z" fill="#FF0066"/>
<path d="M171.482 65.0862C162.473 74.9903 159.734 81 159.734 81L153.098 77.0886C152.795 75.0872 152.41 72.5271 152 69.7332L157.29 62.68L172.757 47L173.244 47.1026C173.244 47.1026 180.491 55.1821 171.482 65.0862Z" fill="black"/>
<path d="M172.22 44.2476C171.769 42.8454 170.732 41.6417 169.314 40.8742C167.896 40.1066 166.2 39.8308 164.561 40.1013C160.846 40.7254 156.416 42.8878 154.858 49.4808C153.634 54.8067 151.424 59.9229 148.315 64.6284C148.008 65.0859 147.589 65.4786 147.088 65.7786C146.586 66.0787 146.016 66.2786 145.416 66.3643C144.817 66.4499 144.203 66.4192 143.618 66.2743C143.034 66.1293 142.493 65.8737 142.034 65.5257L126.485 53.8222L141.179 73.9745C142.378 75.0691 143.974 75.7676 145.696 75.9515C147.418 76.1354 149.16 75.7932 150.626 74.9832C159.748 69.9396 176.848 58.3643 172.22 44.2476Z" fill="#FF0066"/>
<path d="M172.22 44.2476C171.769 42.8454 170.732 41.6417 169.314 40.8742C167.896 40.1066 166.2 39.8308 164.561 40.1013C160.846 40.7254 156.416 42.8878 154.858 49.4808C153.634 54.8067 151.424 59.9229 148.315 64.6284C148.008 65.0859 147.589 65.4786 147.088 65.7786C146.586 66.0787 146.016 66.2786 145.416 66.3643C144.817 66.4499 144.203 66.4192 143.618 66.2743C143.034 66.1293 142.493 65.8737 142.034 65.5257L126.485 53.8222L141.179 73.9745C142.378 75.0691 143.974 75.7676 145.696 75.9515C147.418 76.1354 149.16 75.7932 150.626 74.9832C159.748 69.9396 176.848 58.3643 172.22 44.2476Z" fill="white"/>
<path d="M128.04 84.0739C128.04 84.0739 122.498 89.1988 129.683 88.994C136.869 88.7893 134.221 83.3046 128.04 84.0739Z" fill="#FF0066"/>
<path d="M151.072 76.9949C151.072 76.9949 126.981 71.1487 124.169 79.4725C121.357 87.7964 154.467 86.9779 154.467 86.9779L162 81.7943L151.072 76.9949Z" fill="#24285B"/>
<path d="M170.534 64.4402C176.826 47.3343 204.919 50.1347 207.318 68.0224C209.794 86.4878 206.986 104.551 173.869 107.859C121.218 113.109 112.911 99.1714 120.34 87.923C127.77 76.6746 164.736 82.5847 170.261 65.2395C170.346 64.9536 170.437 64.6969 170.534 64.4402Z" fill="#68E1FD"/>
<path d="M187.959 84.148C191.6 81.1795 197.304 84.4335 195.732 88.6065C193.51 94.5093 188.381 100.298 177.126 102.01C151.845 105.858 154.311 97.4949 155.94 93.8471C157.268 90.8671 174.016 95.514 187.959 84.148Z" fill="white"/>
<path d="M25.6425 101.496C25.6425 101.496 19.3645 99.8275 18 94.1503C18 94.1503 27.7245 92.2454 28 102L25.6425 101.496Z" fill="#FF0066"/>
<path d="M26.265 100.963C26.265 100.963 21.5674 94.2586 25.7026 88C25.7026 88 33.6166 92.5376 30.0985 101L26.265 100.963Z" fill="#FF0066"/>
<path d="M28 100.982C28 100.982 30.2138 94.2737 36.8856 93C36.8856 93 38.1087 97.3551 32.5559 101L28 100.982Z" fill="#FF0066"/>
<path d="M23 101L24.2117 107.974L31.8678 108L33 101.036L23 101Z" fill="#24285B"/>
</svg>
