<svg width="119" height="120" viewBox="0 0 119 120" fill="none" xmlns="http://www.w3.org/2000/svg">
<g opacity="0.5">
<path d="M14.2109 16.3591C7.93479 25.8441 5.22984 38.4059 3.40553 50.6848C1.52588 63.3876 0.402998 76.2595 0.0468568 89.1862C-0.163848 96.7728 0.178322 105.285 4.42664 110.499C6.01503 112.451 8.01223 113.735 10.0058 114.904C13.559 116.994 17.2544 118.838 21.1318 119.404C27.5574 120.339 33.9416 117.723 40.0916 115.126C50.9258 110.55 62.1904 105.879 73.4947 107.731C78.7371 108.589 83.7868 110.833 88.9968 111.981C94.2068 113.129 99.849 113.075 104.423 109.643C107.605 107.252 110.006 103.415 111.901 99.3235C116.153 90.1424 118.161 79.451 118.803 68.7642C119.12 63.4874 119.115 58.1406 118.328 52.948C117.428 47.0142 115.533 41.4242 113.62 35.9113C111.279 29.1476 108.853 22.3652 105.506 16.3544C102.158 10.3435 97.7888 5.08546 92.4743 2.3711C82.3587 -2.78876 71.2976 1.77492 61.0757 3.85102C55.8531 4.90544 50.4504 5.58578 45.2386 4.0591C42.7299 3.32498 40.7165 1.81467 38.1431 1.69543C35.4291 1.57152 32.5207 2.39681 29.931 3.36706C23.8853 5.63254 18.3188 10.1471 14.2109 16.3591Z" fill="#D8EDFB"/>
<path d="M57.7079 50.5773H49.1077V59.8568H57.7079V50.5773Z" fill="#68E1FD"/>
<path d="M57.7079 50.5773H49.1077V59.8568H57.7079V50.5773Z" fill="url(#paint0_linear_624_87)"/>
<path d="M64.9449 31.5397H42.9903C41.5584 31.5397 40.3976 33.0731 40.3976 34.9647V50.8107C40.3976 52.7023 41.5584 54.2357 42.9903 54.2357H64.9449C66.3768 54.2357 67.5376 52.7023 67.5376 50.8107V34.9647C67.5376 33.0731 66.3768 31.5397 64.9449 31.5397Z" fill="white"/>
<path d="M78.9702 59.7519H33.2886V61.6741H78.9702V59.7519Z" fill="white"/>
<path d="M78.9702 60.8714H33.2886V61.6741H78.9702V60.8714Z" fill="#D9DBE2"/>
<path d="M59.0727 106.235C86.0057 106.235 107.839 102.912 107.839 98.8133C107.839 94.7144 86.0057 91.3916 59.0727 91.3916C32.1397 91.3916 10.3062 94.7144 10.3062 98.8133C10.3062 102.912 32.1397 106.235 59.0727 106.235Z" fill="#FFAACC"/>
<path d="M95.4096 75.8314C95.4096 75.8314 100.425 97.2056 99.8809 97.7296C99.3364 98.2536 98.992 96.8293 98.992 96.8293L93.933 76.9651L95.4096 75.8314Z" fill="#68E1FD"/>
<path d="M84.6279 78.2989L84.581 78.4538L78.8656 97.8249C78.7791 98.1241 78.6486 98.3977 78.4816 98.6299C78.4491 98.6815 78.409 98.7238 78.3637 98.7541C78.3184 98.7844 78.2688 98.8021 78.2181 98.8061C78.1675 98.8101 78.1167 98.8004 78.069 98.7774C78.0212 98.7545 77.9776 98.7189 77.9407 98.6728C77.425 98.1154 82.7943 78.2346 82.7943 78.2346L84.6279 78.2989Z" fill="#68E1FD"/>
<path d="M88.9063 76.877C88.9063 76.877 88.726 99.2515 88.0896 99.5302C87.4531 99.8089 87.4531 98.3131 87.4531 98.3131L87.2367 77.3534L88.9063 76.877Z" fill="#68E1FD"/>
<path d="M94.5135 76.091C94.5135 76.091 99.9729 96.8126 99.4266 97.3271C98.8803 97.8415 98.992 96.8269 98.992 96.8269L93.933 76.9628L94.5135 76.091Z" fill="url(#paint1_linear_624_87)"/>
<path d="M84.5792 78.4538L78.8638 97.8248C78.7773 98.1241 78.6468 98.3977 78.4798 98.6299C78.4996 96.4101 83.364 78.418 83.364 78.418L84.5792 78.4538Z" fill="url(#paint2_linear_624_87)"/>
<path d="M88.9063 76.877C88.9063 76.877 88.726 99.2515 88.0896 99.5302C87.4531 99.8089 87.8461 97.8439 87.8461 97.8439L88.0715 77.1223L88.9063 76.877Z" fill="url(#paint3_linear_624_87)"/>
<path d="M99.9981 70.7177C98.8009 74.3642 96.1073 76.8794 93.2208 78.0084C90.9707 78.8872 88.5998 79.023 86.2415 78.8444C85.5816 78.7983 84.9205 78.7324 84.2582 78.6467C83.1044 78.4919 81.9342 78.2942 80.8543 77.7368C79.7743 77.1795 78.7682 76.2173 78.2201 74.8573C77.8861 73.9621 77.7016 72.9825 77.6793 71.9848C77.5657 69.4268 78.1787 66.7068 79.6625 65.0776C80.8272 63.7915 82.3471 63.2913 83.5551 62.098C84.9073 60.7571 86.2956 59.559 87.7271 58.3538C89.1587 57.1487 90.6119 55.9316 92.2129 55.1646C93.8139 54.3977 95.5989 54.1095 97.2179 54.7883C97.7786 55.0265 98.6423 55.6005 99.4879 58.3348C100.716 62.2433 101.271 66.8378 99.9981 70.7177Z" fill="#FFAACC"/>
<path d="M91.1329 44.8181C90.5578 45.859 88.8053 46.8641 88.8053 46.8641C88.6034 45.8352 89.0343 45.4541 89.0343 45.4541C89.4832 45.5065 90.0728 44.0607 89.8799 43.6058C89.6419 43.0389 89.312 43.2414 89.092 43.4843C88.8651 43.2509 88.6773 42.9579 88.5405 42.6238C88.4036 42.2897 88.3207 41.9217 88.2969 41.5432C88.268 41.0978 88.8504 39.8402 87.7344 39.2948C86.6183 38.7493 85.0461 39.2948 85.0461 39.2948C85.0461 39.2948 84.6405 37.9205 85.9476 37.2631C88.881 35.7816 92.368 38.3087 92.1732 42.6507C92.121 43.8273 92.0615 45.1635 92.6781 46.0138C93.0152 46.4759 93.4912 46.6997 93.9401 46.9332C94.5261 47.2333 95.1211 47.5977 95.5322 48.2289C95.9432 48.86 96.1181 49.827 95.7918 50.5392C95.6367 50.8798 95.3681 51.2061 95.4312 51.5943C95.4763 51.7685 95.5538 51.925 95.6566 52.0492C96.3304 53.004 96.7632 54.2116 96.8952 55.5052C96.9572 56.1492 96.9132 56.8032 96.7664 57.4227C96.6195 58.0421 96.3732 58.6124 96.0442 59.0946C95.1427 60.345 93.7003 60.6713 92.4076 60.4141C91.3619 60.2045 90.327 59.6329 89.6166 58.5968C88.5349 57.0177 88.3996 54.724 88.0985 52.6423C88.0806 52.3854 88.0024 52.1423 87.875 51.9468C87.5595 51.5562 87.0528 51.873 86.6219 51.8587C85.8773 51.8373 85.3779 50.7583 85.3599 49.777C85.3418 48.7957 85.6429 47.8716 85.7944 46.8974C85.9458 45.9233 85.8989 44.7991 85.3346 44.1584C85.1237 43.9202 84.8604 43.7701 84.6333 43.5558C83.6272 42.6031 83.6867 40.4047 84.5449 39.2233C85.4031 38.0419 86.7806 37.7514 88.0012 38.0324C88.982 38.2706 91.196 38.9851 91.6504 40.176C92.1047 41.3669 91.7117 43.7749 91.1329 44.8181Z" fill="#2F3653"/>
<path d="M83.6669 51.0227L78.9377 57.4535L72.6598 53.0806C71.8845 52.4499 70.9863 52.1327 70.0762 52.1683C69.9824 52.1683 69.8562 52.2398 69.8778 52.3589C69.8995 52.478 70.0041 52.4875 70.0203 52.597C70.0365 52.7066 69.9355 52.7733 69.8526 52.7971L68.3525 53.2378C68.1326 53.3044 67.8657 53.4402 67.8531 53.7379C67.8598 53.837 67.8835 53.9328 67.9226 54.0179C67.9617 54.1029 68.015 54.175 68.0785 54.2286C69.0683 55.3171 70.4566 55.5552 71.7403 55.398C71.8647 55.3742 71.991 55.3742 72.1153 55.398C72.2376 55.4383 72.3543 55.5034 72.4615 55.591C72.9462 55.9459 73.4162 56.3346 73.8696 56.7557C75.101 57.8989 76.2026 59.2732 77.4521 60.3831C77.7035 60.6456 78.0036 60.8142 78.3211 60.8714C78.6034 60.8657 78.8812 60.777 79.1342 60.6118C80.9372 59.6591 82.7852 58.642 84.1573 56.8271C84.279 56.6823 84.3782 56.5075 84.4494 56.3126C84.499 56.1154 84.5228 55.9084 84.5197 55.7005C84.5377 54.8288 84.5293 53.9555 84.4944 53.0806C84.4999 52.6823 84.4337 52.2881 84.3015 51.9302C84.2317 51.7533 84.1196 51.6119 83.9826 51.528C83.8457 51.444 83.6916 51.4221 83.5443 51.4657" fill="#FDBAAC"/>
<path d="M80.6758 57.806C80.522 57.9615 80.3557 58.0941 80.1799 58.2014C79.7977 58.4134 79.3668 58.3729 78.9521 58.3586C78.3239 58.3375 77.6954 58.3869 77.0734 58.5063C76.9179 58.5206 76.7671 58.5835 76.6335 58.6897C76.5681 58.7452 76.5181 58.8271 76.4908 58.9232C76.4635 59.0194 76.4604 59.1246 76.4821 59.2232C76.5239 59.3304 76.586 59.4214 76.6624 59.4876C77.1654 60.0235 77.7063 60.5808 78.3481 60.6785C79.1162 60.8118 79.8518 60.2736 80.5117 59.7543L81.8928 58.704C82.0993 58.5708 82.2796 58.3759 82.4192 58.1347C82.6121 57.7417 82.6572 56.6437 82.1884 56.5294C81.8044 56.4293 80.9733 57.5131 80.6758 57.806Z" fill="#DEA095"/>
<path d="M84.3628 49.415C84.4536 49.3762 84.5473 49.3506 84.6423 49.3388C85.1183 49.2792 85.6592 49.434 86.1369 49.4626C86.8094 49.5007 87.4838 49.5222 88.1581 49.4936C89.4436 49.4436 91.553 49.2554 92.7033 51.1132C94.1295 53.4069 92.8998 57.4392 91.9046 60.4641C91.544 61.5931 91.3529 65.2491 91.544 67.9215C91.544 67.9215 87.5415 69.7721 84.0203 68.8075L82.8123 62.8197C82.7456 62.5101 82.5364 62.1814 82.4337 61.886C82.1548 61.0851 81.9514 60.242 81.8279 59.3756C81.6836 58.3753 81.4673 56.7104 81.7918 55.7482C81.8405 55.6005 82.0082 55.4862 82.0226 55.3313C82.0424 55.117 81.8279 54.7597 81.7612 54.5668C81.5414 53.9428 81.3646 53.2939 81.2329 52.628C81.2034 52.5259 81.1996 52.414 81.2221 52.3089C81.2535 52.226 81.3007 52.1554 81.3591 52.104C81.8874 51.5443 82.4174 50.9846 82.9818 50.4796C83.3658 50.1295 83.876 49.6103 84.3628 49.415Z" fill="white"/>
<path d="M88.8215 45.1778C88.5547 46.2996 87.4387 48.2741 86.1622 47.8192C86.3123 48.178 86.3824 48.5856 86.3645 48.9948C86.3467 49.4041 86.2415 49.7983 86.0612 50.1319C86.0612 50.1319 86.4759 51.53 89.2777 49.4626C89.2777 49.4626 88.5205 49.3793 88.726 47.319C88.7876 46.6127 88.9768 45.9363 89.2777 45.3469C89.2433 45.391 89.2007 45.4224 89.1542 45.438C89.1077 45.4536 89.059 45.4528 89.0128 45.4356C88.9666 45.4185 88.9247 45.3857 88.8911 45.3404C88.8576 45.2952 88.8336 45.2391 88.8215 45.1778Z" fill="#FDBAAC"/>
<path d="M88.6935 45.7423C88.6935 45.7423 88.0787 49.1935 87.0366 49.0482C85.9945 48.9029 86.0612 46.8022 86.0612 46.8022L88.6935 45.7423Z" fill="#DEA095"/>
<path d="M94.1349 52.3636C94.2068 51.3049 93.9679 50.2501 93.4678 49.4174C92.8836 48.517 91.9875 48.1121 91.1528 47.6739C90.7922 47.4881 90.4172 47.2476 90.2675 46.7855C90.1684 46.4806 90.19 46.1329 90.1503 45.8042C90.1107 45.4755 89.97 45.1182 89.714 45.073C89.6364 45.067 89.5587 45.0814 89.4854 45.1153C89.412 45.1492 89.3445 45.202 89.2867 45.2707C88.7566 45.809 88.5872 46.7974 88.7079 47.6667C88.8287 48.5361 89.1911 49.3054 89.5662 50.0342C89.9412 50.7631 90.3378 51.4919 90.5506 52.3279C90.711 52.9639 90.7579 53.6403 90.8751 54.2929C91.1347 55.722 92.0452 56.5794 93.1144 55.7648C93.8518 55.2003 94.0826 53.3664 94.1349 52.3636Z" fill="#2F3653"/>
<path d="M85.9386 37.2679C85.9386 37.2679 84.2402 37.3989 83.7354 40.65C83.2306 43.9011 85.6844 43.8464 85.6844 43.8464L87.1754 38.2063L85.9386 37.2679Z" fill="#2F3653"/>
<path d="M87.0709 47.9859C85.533 48.155 84.599 46.2591 84.4259 43.7821C84.4079 43.5105 84.4007 43.2342 84.4007 42.9508C84.3978 42.1432 84.468 41.338 84.6098 40.5523C85.2823 36.7415 89.3805 38.273 89.3805 38.273C92.5915 40.176 89.7429 47.6929 87.0709 47.9859Z" fill="#FDBAAC"/>
<path d="M85.9711 38.1872C86.3713 40.0236 86.9068 42.634 88.2644 43.6415C88.4195 43.7558 88.7062 43.9488 88.8919 43.8988C89.0776 43.8487 89.0722 43.6249 89.2416 43.4224C89.2943 43.3531 89.3619 43.3069 89.4351 43.2903C89.5084 43.2737 89.5838 43.2874 89.6509 43.3295C89.7062 43.3847 89.7504 43.457 89.7797 43.5401C89.8089 43.6231 89.8223 43.7144 89.8186 43.8059C89.8191 44.0312 89.7756 44.2529 89.6922 44.4494C89.6088 44.646 89.4884 44.8107 89.3426 44.9277C89.2082 45.009 89.0796 45.1062 88.9586 45.2183C88.8235 45.3943 88.7426 45.6302 88.7314 45.8804C88.7082 46.2172 88.7583 46.5558 88.8758 46.8562C88.9933 47.1567 89.1735 47.4065 89.3949 47.5762C89.4225 47.5992 89.4542 47.6123 89.4868 47.6143C89.5262 47.6037 89.5617 47.5761 89.5878 47.5357L90.1954 46.8022C90.4848 46.4776 90.7455 46.1109 90.9725 45.7089C91.2515 45.1635 91.402 44.5213 91.4052 43.863C91.4052 43.5653 91.315 43.2652 91.3186 42.9794C91.3567 42.6026 91.4325 42.2342 91.544 41.8838C91.68 41.4288 91.7498 40.9439 91.7496 40.4547C91.7009 39.502 91.1005 38.7446 90.4532 38.3111C89.4292 37.6418 88.2464 37.5656 87.1033 37.5489C86.8754 37.5297 86.6469 37.5701 86.4308 37.668C86.2343 37.8133 86.1532 38.0991 85.9711 38.1872Z" fill="#2F3653"/>
<path d="M88.6935 61.3239L89.8673 64.7299C89.8673 64.7299 92.3914 60.5713 93.3524 56.0816C94.1926 52.1135 92.7033 51.1156 92.7033 51.1156C91.5638 50.563 90.7904 52.709 89.6707 57.0439C89.0541 59.4185 88.6935 61.3239 88.6935 61.3239Z" fill="#FDBAAC"/>
<path d="M89.8673 64.7227C89.8673 64.7227 89.9123 61.9527 88.8901 61.4025C87.8678 60.8523 80.7028 59.3685 80.7028 59.3685L80.0303 60.3926C80.0303 60.3926 87.0655 65.7517 89.8673 64.7227Z" fill="#FDBAAC"/>
<path d="M78.2562 72.042L78.3427 71.9229C77.9948 72.4398 77.7622 72.8113 77.6901 72.9256C77.8668 72.6176 78.0555 72.323 78.2562 72.042Z" fill="#DC9ED5"/>
<path d="M91.9713 72.585C91.7622 74.1975 90.9292 75.5837 89.9142 76.5245C88.8991 77.4653 87.7127 78.0179 86.5246 78.4943C85.8232 78.7777 85.3869 79.9662 84.7541 80.4592C84.5236 80.6086 84.3238 80.8292 84.1717 81.1023C83.9409 81.5953 84.0563 82.2337 84.1717 82.791C84.709 85.2569 85.2499 87.7221 85.7944 90.1865C86.063 91.4107 86.3353 92.7088 86.0792 93.9402C85.8232 95.1715 84.8424 96.2314 83.9283 95.8242C82.141 92.0133 80.3536 88.2024 78.5663 84.3916C78.5663 84.3916 77.6847 79.7899 79.5345 75.8767C80.3332 74.1904 86.5895 67.2308 86.5895 67.2308C88.1887 66.9235 89.815 66.7806 91.3601 66.6639C91.5422 68.6503 92.2309 70.6129 91.9713 72.585Z" fill="#68E1FD"/>
<path d="M86.5949 67.2236C86.5949 67.2236 80.2106 74.0879 79.5399 75.8695C77.6666 80.8403 78.5717 84.3844 78.5717 84.3844C77.0091 87.7046 75.4466 91.0248 73.884 94.3451C72.8022 94.376 71.3437 93.9878 71.2896 92.554C71.2961 92.15 71.3686 91.7527 71.5023 91.3893C72.6802 87.5133 73.8576 83.6389 75.0343 79.7661C75.7321 77.4606 76.455 75.1074 77.5729 73.1305L77.672 72.959V72.9447L77.6865 72.9209C77.7586 72.8065 77.9912 72.4445 78.3391 71.9181V71.9038C79.3542 70.4057 81.3357 67.7238 83.1675 66.6639C83.1675 66.6639 85.2932 67.438 86.5751 67.2308L86.5949 67.2236Z" fill="#68E1FD"/>
<path d="M86.5949 67.2236C86.5949 67.2236 80.2106 74.0879 79.5399 75.8695C77.6666 80.8403 78.5717 84.3844 78.5717 84.3844C77.0091 87.7046 75.4466 91.0248 73.884 94.3451C72.8022 94.376 71.3437 93.9878 71.2896 92.554C71.2961 92.15 71.3686 91.7527 71.5023 91.3893C72.6802 87.5133 73.8576 83.6389 75.0343 79.7661C75.7321 77.4606 76.455 75.1074 77.5729 73.1305L77.672 72.959V72.9447L77.6865 72.9209C77.7586 72.8065 77.9912 72.4445 78.3391 71.9181V71.9038C79.3542 70.4057 81.3357 67.7238 83.1675 66.6639C83.1675 66.6639 85.2932 67.438 86.5751 67.2308L86.5949 67.2236Z" fill="url(#paint4_linear_624_87)"/>
<path d="M83.3171 98.0035C82.8988 98.5132 82.3417 99.0229 82.3615 99.7755C82.3596 99.8499 82.3753 99.9232 82.4066 99.9851C82.4647 100.061 82.5431 100.104 82.6248 100.104C83.9121 100.292 85.1093 99.2563 86.1099 98.1678C86.3623 97.8939 86.6255 97.5795 86.685 97.1556C86.7445 96.7316 86.5751 96.3053 86.429 95.9147C86.192 95.2797 85.9983 94.6181 85.8503 93.9378C85.8953 94.1402 85.2481 94.8595 85.1381 94.9857C84.9073 95.2525 84.5666 95.4454 84.3863 95.7694C84.206 96.0933 84.1681 96.4839 84.0257 96.8054C83.8382 97.2511 83.5991 97.6553 83.3171 98.0035Z" fill="#EB9D80"/>
<path d="M70.0293 94.8167C69.5767 95.0286 69.0521 95.143 68.7672 95.6503C68.7115 95.7404 68.6781 95.851 68.6717 95.9671C68.6717 96.2814 68.9475 96.4434 69.1801 96.5149C70.1086 96.7649 71.0678 96.5887 72.0053 96.4101C72.1523 96.4134 72.2948 96.3433 72.4044 96.214C72.514 96.0847 72.5827 95.9055 72.5967 95.7122L72.9663 94.2069C72.9819 94.1631 72.9863 94.1138 72.9789 94.0664C72.9632 94.0201 72.9366 93.9818 72.9032 93.9568C72.6497 93.7225 72.3799 93.5207 72.0973 93.3542C71.7169 93.1161 71.6916 93.1375 71.4374 93.5352C71.0605 94.117 70.5751 94.5587 70.0293 94.8167Z" fill="#EB9D80"/>
<path d="M79.9347 59.1803C79.1937 59.0255 78.3608 58.8993 77.7622 59.4923C77.4778 59.8151 77.245 60.2094 77.0771 60.6523C76.9599 60.9166 76.8409 61.2334 76.9364 61.5097C77.032 61.786 77.2664 61.8717 77.4773 61.9408C78.1606 62.1599 78.8962 62.3648 79.5507 62.0266C80.0339 61.7884 80.4251 61.2477 80.9318 61.0881C81.0175 61.0726 81.1001 61.0354 81.1752 60.9786C81.2444 60.9025 81.2931 60.7989 81.314 60.6832C81.6187 59.3399 80.6127 59.3066 79.9347 59.1803Z" fill="#FDBAAC"/>
<path d="M71.9963 97.5533C71.9704 97.6233 71.9305 97.6827 71.8809 97.7248C71.8062 97.7595 71.7248 97.7595 71.6501 97.7248C71.2319 97.6504 70.8092 97.6312 70.3881 97.6677C69.5246 97.6497 68.6634 97.5462 67.8116 97.358C67.4402 97.2866 67.0274 97.1842 66.8128 96.7792C66.785 96.7333 66.7675 96.6781 66.7623 96.6197C66.7647 96.5312 66.7909 96.4467 66.8362 96.3815C67.2099 95.7906 67.7005 95.3486 68.2534 95.1048C68.4579 94.9903 68.6768 94.9273 68.8988 94.9191C69.01 94.9163 69.1202 94.9457 69.2218 95.0054C69.3233 95.0651 69.4137 95.1535 69.4866 95.2644C69.6398 95.5217 69.6669 95.8908 69.8346 96.1219C70.0022 96.3529 70.2907 96.3815 70.5431 96.3601C70.8361 96.3461 71.1279 96.3023 71.4158 96.229C71.6339 96.1743 71.9566 95.9766 72.173 96.0504C72.6796 96.2338 72.1387 97.2175 71.9963 97.5533Z" fill="#FFAACC"/>
<path d="M87.0078 98.0273C87.0179 98.1153 87.0091 98.2052 86.9825 98.2869C86.9288 98.3834 86.8519 98.4531 86.7644 98.4846C86.3286 98.7652 85.916 99.1044 85.533 99.4969C84.7107 100.201 83.8494 100.823 82.9565 101.357C82.5707 101.595 82.129 101.85 81.7305 101.648C81.6824 101.627 81.6394 101.59 81.6061 101.54C81.5663 101.455 81.5509 101.354 81.5628 101.255C81.6301 100.381 81.8798 99.5502 82.284 98.8538C82.4233 98.5741 82.6013 98.3316 82.8087 98.1392C82.9124 98.0435 83.0307 97.979 83.1553 97.9502C83.2799 97.9214 83.4077 97.929 83.5299 97.9725C83.7985 98.0868 83.9968 98.4179 84.2727 98.4918C84.5485 98.5656 84.8316 98.356 85.0642 98.1321C85.3352 97.8717 85.5908 97.5842 85.8286 97.2723C86.0089 97.0341 86.2163 96.5816 86.4597 96.4672C87.0186 96.2029 86.9879 97.5843 87.0078 98.0273Z" fill="#FFAACC"/>
<path d="M93.8085 52.466C93.9859 53.1935 94.1067 53.9428 94.1691 54.7026L94.2791 55.7267C94.3181 55.939 94.3093 56.1617 94.2539 56.3674C94.1259 56.7271 93.6084 56.5794 93.3524 56.6342C92.8944 56.7318 92.4383 56.8271 91.9803 56.92C91.0644 57.1058 90.1485 57.2836 89.2326 57.4535C89.1843 56.8388 89.1958 56.2185 89.2669 55.6076C89.3516 55.0265 89.5409 54.481 89.6491 53.907C89.7374 53.4307 89.7699 52.9543 89.8618 52.478C90.0554 51.4992 90.497 50.6375 91.1131 50.0366C92.0777 49.1053 93.493 51.3609 93.7887 52.3755L93.8085 52.466Z" fill="white"/>
<path d="M99.9981 70.7177C98.8009 74.3642 96.1073 76.8794 93.2208 78.0084C90.9707 78.8872 88.5998 79.023 86.2415 78.8444C86.2415 78.6324 86.3353 78.5038 86.5318 78.4919C88.7909 78.3418 89.7266 74.419 90.4045 72.4231C91.0825 70.4271 91.5458 67.9191 95.9577 65.6064C100.256 63.358 99.7313 59.1279 99.9458 59.9806C100.961 63.9915 101.271 66.8378 99.9981 70.7177Z" fill="#2F3653"/>
<path d="M100.306 70.8844C99.1092 74.5286 96.4156 77.0437 93.5291 78.1751C91.279 79.0516 88.2572 79.2016 85.8989 79.0206C85.8989 78.811 86.3353 78.5038 86.5318 78.4919C88.7909 78.3418 89.7771 73.683 90.455 71.6871C91.1329 69.6912 91.755 68.5193 95.9577 65.6064C102.237 61.2572 97.6939 55.3409 97.6146 54.9622C99.1201 55.6029 99.9584 59.6448 100.171 60.4975C101.186 64.5084 101.579 67.0021 100.306 70.8844Z" fill="white"/>
<path d="M91.7766 77.5368C89.8673 78.1799 87.8461 78.2037 85.9873 79.073C86.5769 78.7967 87.8119 79.2255 88.4682 79.1993C89.37 79.1629 90.2686 79.0379 91.1564 78.8253C92.7267 78.449 94.8074 77.8726 96.1019 76.5936C95.2581 75.6456 92.7105 77.2224 91.7766 77.5368Z" fill="#68E1FD"/>
<path d="M92.9215 99.7851C92.8923 99.8091 92.8608 99.8276 92.8277 99.8398C92.769 99.8608 92.7075 99.8649 92.6474 99.8518C91.9785 99.7422 88.6953 79.0897 88.6953 79.0897L89.1443 78.7443C89.1767 78.7205 89.2146 78.6943 89.247 78.6753C89.3614 78.6115 89.4842 78.579 89.6083 78.5795C89.7324 78.5801 89.8551 78.6137 89.9691 78.6784C90.0831 78.7432 90.186 78.8376 90.2716 78.9562C90.3573 79.0747 90.424 79.2149 90.4676 79.3684V79.3922C90.4863 79.4545 90.5002 79.5191 90.5091 79.5851L93.091 98.4989C93.091 98.4989 93.2442 99.4945 92.9215 99.7851Z" fill="#68E1FD"/>
<path d="M92.9954 98.0845C92.9954 98.0845 92.9683 99.2754 92.9215 99.7851C92.8926 100.023 92.8656 100.119 92.8277 99.8398C92.505 97.3413 89.824 82.005 89.2452 78.68C89.3596 78.6163 89.4824 78.5837 89.6065 78.5843C89.7306 78.5848 89.8533 78.6185 89.9673 78.6832C90.0813 78.7479 90.1842 78.8424 90.2699 78.961C90.3555 79.0795 90.4222 79.2197 90.4659 79.3731V79.3969L92.9954 98.0845Z" fill="url(#paint5_linear_624_87)"/>
<path d="M23.7779 75.8314C23.7779 75.8314 18.7711 97.2056 19.312 97.7296C19.8529 98.2536 20.1991 96.8293 20.1991 96.8293L25.2618 76.9651L23.7779 75.8314Z" fill="#68E1FD"/>
<path d="M34.5597 78.2989L34.6065 78.4538L40.3219 97.8248C40.4084 98.1241 40.5389 98.3977 40.7059 98.6299C40.7384 98.6815 40.7785 98.7238 40.8238 98.7541C40.8691 98.7844 40.9187 98.8021 40.9694 98.8061C41.02 98.8101 41.0708 98.8004 41.1186 98.7774C41.1663 98.7545 41.2099 98.7189 41.2468 98.6728C41.7697 98.1154 36.4005 78.2442 36.4005 78.2442L34.5597 78.2989Z" fill="#68E1FD"/>
<path d="M30.292 76.877C30.292 76.877 30.4723 99.2515 31.107 99.5302C31.7416 99.8089 31.7524 98.3131 31.7524 98.3131L31.9688 77.3534L30.292 76.877Z" fill="#68E1FD"/>
<path d="M24.674 76.091C24.674 76.091 19.2147 96.8126 19.7609 97.3271C20.3072 97.8415 20.1955 96.8269 20.1955 96.8269L25.2618 76.9651L24.674 76.091Z" fill="url(#paint6_linear_624_87)"/>
<path d="M34.6065 78.4538L40.3219 97.8248C40.4084 98.1241 40.5389 98.3977 40.7059 98.6299C40.6879 96.4101 35.8217 78.418 35.8217 78.418L34.6065 78.4538Z" fill="url(#paint7_linear_624_87)"/>
<path d="M30.292 76.877C30.292 76.877 30.4723 99.2515 31.107 99.5302C31.7416 99.8089 31.3504 97.8439 31.3504 97.8439L31.125 77.1223L30.292 76.877Z" fill="url(#paint8_linear_624_87)"/>
<path d="M19.1894 70.7177C20.3866 74.3642 23.0802 76.8794 25.9667 78.0084C28.2168 78.8872 30.5877 79.023 32.946 78.8444C33.6059 78.7983 34.264 78.7316 34.9202 78.6443C36.0741 78.4919 37.2443 78.2942 38.3242 77.7368C39.4042 77.1795 40.4103 76.2173 40.9584 74.8573C41.293 73.9623 41.4775 72.9826 41.4992 71.9848C41.6128 69.4268 40.9998 66.7068 39.516 65.0776C38.3513 63.7915 36.8314 63.2913 35.6234 62.098C34.2712 60.7571 32.8829 59.559 31.4513 58.3538C30.0198 57.1487 28.5666 55.9316 26.9656 55.1646C25.3645 54.3977 23.5796 54.1095 21.9606 54.7883C21.3998 55.0265 20.5362 55.6005 19.6906 58.3348C18.4736 62.2433 17.9165 66.8378 19.1894 70.7177Z" fill="#2F3653"/>
<path d="M23.4787 57.4416C23.6945 58.0525 23.8624 58.691 23.9799 59.347C24.0881 60.1473 24.2738 60.9333 24.3801 61.7407C24.5942 63.3598 24.6962 65.0013 24.6848 66.6448C24.6848 67.2951 24.6848 68.0287 25.0364 68.4788C25.2744 68.7813 25.6152 68.879 25.9379 68.9552C26.5743 69.1243 27.1495 69.4577 27.7859 69.6006C28.4795 69.7335 29.1803 69.7893 29.881 69.7674C31.9472 69.7674 35.7911 69.4625 35.6631 65.6564C35.5397 61.3593 35.2533 57.073 34.8049 52.8138C34.6498 51.3704 34.6246 49.7056 34.2874 48.317C34.0097 47.1475 32.9785 47.138 32.1238 47.2571L31.9616 47.2809C31.7957 47.3023 31.6298 47.3309 31.4694 47.3571C30.3316 47.5135 29.1865 47.5581 28.0437 47.4905C26.7582 47.4381 24.6993 47.269 23.4354 48.8696C23.3475 48.9793 23.265 49.0962 23.1884 49.2197C21.9317 51.2466 22.606 54.5358 23.4787 57.4416Z" fill="white"/>
<path d="M28.2709 57.02C28.3809 58.9255 27.9716 60.9571 28.7289 62.5505C28.7636 62.6401 28.8184 62.7133 28.8857 62.7601C28.9945 62.7883 29.1071 62.7717 29.2085 62.7125C29.3251 62.6817 29.4454 62.684 29.5614 62.7192C29.6773 62.7544 29.7863 62.8218 29.8811 62.9168C29.9758 63.0118 30.0542 63.1324 30.1111 63.2704C30.168 63.4085 30.202 63.5609 30.2109 63.7176C30.3906 63.5387 30.5393 63.3113 30.6472 63.0505C30.755 62.7897 30.8196 62.5015 30.8365 62.2052C30.8528 61.8741 30.8365 61.4716 31.0457 61.2906C31.3161 61.0524 31.6659 61.474 31.7236 61.8932C31.7813 62.3124 31.6911 62.7554 31.7813 63.1651C31.8967 63.701 32.3023 64.0511 32.7134 64.1654C33.1318 64.2469 33.5571 64.2469 33.9755 64.1654C34.2792 64.1054 34.5895 64.1488 34.877 64.2916C35.1546 64.4655 35.3692 64.8823 35.2844 65.2729C35.1835 65.7374 34.758 65.8993 34.3974 65.9875L26.8989 67.8357C26.3418 67.9715 25.3573 68.6217 25.3393 67.5333C25.3132 65.9051 25.1203 64.289 24.766 62.7292C24.6235 62.1004 24.6073 61.4573 24.4685 60.8476C24.299 60.1068 23.9871 59.3971 23.796 58.6563C23.4108 57.1671 23.1515 55.6263 23.0225 54.0619C22.9324 52.9615 22.9901 51.6348 23.704 51.0608C24.2197 50.6487 24.9138 50.8226 25.3988 51.299C25.9902 51.8778 26.2624 52.7876 26.8087 53.3973C27.4434 54.1119 27.9374 54.9169 28.1501 56.0054C28.2124 56.3384 28.2529 56.6779 28.2709 57.02Z" fill="#D9DBE2"/>
<path d="M30.7951 50.2296C30.7542 50.3013 30.7231 50.3819 30.7031 50.4677C30.699 50.5615 30.7133 50.655 30.7446 50.7393C31.4405 53.0448 31.8768 55.4695 32.3096 57.8846C32.6918 60.0092 33.0758 62.1504 33.1551 64.3321C33.167 64.4918 33.1579 64.653 33.1281 64.8085C33.0019 65.3468 32.47 65.523 32.2374 65.9875L31.464 64.8204C31.4133 64.7516 31.373 64.6708 31.345 64.5822C31.3215 64.4587 31.3215 64.3294 31.345 64.2059C31.6064 61.8741 31.3161 59.4947 30.9032 57.1987C30.5427 55.2265 30.0973 53.252 30.1244 51.2251C30.1244 50.987 30.1244 50.6964 29.9855 50.5368C29.9067 50.4663 29.8205 50.4118 29.7295 50.3748C29.6263 50.308 29.5341 50.2147 29.4585 50.1003C29.3829 49.986 29.3252 49.8528 29.289 49.7087C29.2527 49.5646 29.2386 49.4123 29.2473 49.2609C29.2561 49.1095 29.2876 48.9618 29.3401 48.8267C29.5042 48.8228 29.6654 48.7682 29.8106 48.6671C29.9576 48.5662 30.1267 48.5367 30.2884 48.5837C30.6454 48.7457 30.9988 49.7865 30.7951 50.2296Z" fill="#43E37F"/>
<path d="M23.4372 48.8743C24.6993 47.2738 26.76 47.4452 28.0456 47.4953C29.1884 47.5628 30.3334 47.5183 31.4712 47.3619C31.6316 47.3357 31.7975 47.3071 31.9634 47.2857C31.2837 46.9189 30.3191 47.1642 29.5943 47.1952C28.4957 47.2428 27.3977 47.3309 26.3003 47.4595C25.2618 47.5858 24.1115 47.8216 23.4372 48.8743Z" fill="white"/>
<path d="M27.3352 42.8865C27.6237 44.0774 28.7884 45.2254 30.1514 44.73C30.1514 44.73 29.6105 46.8736 30.2866 48.1812C30.2866 48.1812 29.8449 49.6746 26.8484 47.4667C26.8484 47.4667 27.6579 47.3786 27.438 45.1825C27.373 44.4274 27.1707 43.7042 26.8484 43.0747C26.8855 43.1219 26.9313 43.1553 26.9813 43.1715C27.0313 43.1878 27.0837 43.1863 27.1331 43.1672C27.1825 43.1481 27.2273 43.1121 27.2627 43.0628C27.2982 43.0135 27.3232 42.9527 27.3352 42.8865Z" fill="#FFDDD0"/>
<path d="M28.8046 45.6565C30.384 46.271 31.6713 44.5514 32.2573 42.0076C32.3204 41.7313 32.3745 41.4407 32.4195 41.1454C32.5554 40.301 32.616 39.4385 32.5998 38.5755C32.5079 34.4097 27.9662 34.8337 27.9662 34.8337C24.299 35.9126 26.0551 44.5895 28.8046 45.6565Z" fill="#FFDDD0"/>
<path d="M38.6271 71.5894L38.5334 71.4608C38.9048 72.0134 39.1554 72.4135 39.2311 72.5326C39.0436 72.2087 38.8399 71.8919 38.6271 71.5894Z" fill="#DC9ED5"/>
<path d="M25.1013 35.1242C25.3748 34.3707 25.831 33.7595 26.3976 33.3879C26.9169 33.0259 27.6741 33.0973 28.0996 32.5329C28.3286 32.2304 28.3737 31.7707 28.5053 31.3801C28.6402 30.9871 28.8663 30.6609 29.1508 30.4488C29.3363 30.3093 29.5435 30.2278 29.7566 30.2106C30.4146 30.1701 31.0078 30.8418 31.262 31.6397C31.4423 31.2467 31.8155 31.0943 32.1635 31.1038C32.964 31.1252 33.6978 31.8731 34.0278 32.8377C34.1632 33.2149 34.2252 33.6308 34.2081 34.0477C34.1899 34.468 34.0521 34.8636 33.8222 35.1552C33.7739 35.2221 33.7108 35.2672 33.6419 35.2838C33.6084 35.2915 33.574 35.2833 33.5446 35.2606C33.5152 35.2379 33.4929 35.2023 33.4815 35.16C33.2543 35.7922 32.9717 36.3869 32.6395 36.932C32.5277 37.1352 32.3797 37.2988 32.2086 37.4084C32.0385 37.4885 31.8545 37.5026 31.6785 37.4489C31.437 37.3897 31.2059 37.2718 30.997 37.1011C30.9601 37.0614 30.9128 37.0426 30.8654 37.0487C30.8185 37.0654 30.7933 37.1273 30.7698 37.1845C30.7051 37.3519 30.6149 37.4997 30.5047 37.6186C30.3945 37.7375 30.2668 37.8249 30.1298 37.8752C29.8896 37.9181 29.6457 37.906 29.4086 37.8395C29.0835 37.7859 28.7547 37.7859 28.4296 37.8395C28.2309 37.862 28.0386 37.9434 27.8671 38.0777C27.7629 38.1808 27.6784 38.3146 27.6202 38.4684C27.562 38.6222 27.5317 38.7918 27.5317 38.9637C27.5317 39.0995 27.6327 40.2189 27.5083 40.2451C27.3081 40.2903 27.2685 39.8521 27.0936 39.7163C26.9187 39.5806 26.7492 39.7568 26.6591 39.9545C26.5851 40.1258 26.5532 40.3231 26.5677 40.5194C26.5823 40.7156 26.6425 40.9011 26.7402 41.0501C26.8008 41.1183 26.8478 41.205 26.8772 41.3026C26.8875 41.4013 26.875 41.5018 26.8412 41.5908L26.5329 42.615C26.1199 41.3264 25.6247 40.0866 25.0526 38.9089C24.8092 38.4326 24.5262 37.9014 24.6344 37.3512C24.7425 36.801 25.1933 36.3985 25.0995 35.8626C25.0815 35.7602 25.0436 35.6649 25.0328 35.5601C25.0243 35.4092 25.048 35.2582 25.1013 35.1242Z" fill="#2F3653"/>
<path d="M27.7048 66.7425C27.7048 66.7425 29.6286 73.0852 31.1719 73.7497C32.7152 74.4142 42.2962 78.2346 42.2962 78.2346L46.369 96.4648L47.422 95.6122C47.8204 95.2882 48.7724 94.8214 49.014 94.295C49.3349 93.6019 48.8517 91.7822 48.7598 90.9939L48.3433 87.4212C47.7832 82.5909 47.2212 77.7599 46.6575 72.928C46.6578 72.689 46.6022 72.4556 46.4983 72.2599C46.3944 72.0642 46.2472 71.9157 46.077 71.8348C44.1922 70.5014 42.2562 69.2986 40.2768 68.2311C39.3068 67.7071 38.3278 67.2212 37.3416 66.7592C37.1469 66.6687 35.7027 65.6254 35.6631 65.6659C35.6504 65.6731 34.6264 66.6901 27.7048 66.7425Z" fill="#2F3653"/>
<path d="M45.226 97.1341C44.7824 95.8384 44.7446 94.3784 44.6148 92.9684C44.5192 91.9061 44.366 90.8557 44.2127 89.8054L42.1177 75.3527C42.1092 75.0451 42.0284 74.7487 41.8866 74.5045C41.7447 74.2604 41.5489 74.0806 41.3262 73.9903C37.9618 71.8205 34.6552 69.5435 31.3197 67.2879C31.3197 67.2879 27.7138 65.5588 25.0364 67.9739C25.0364 67.9739 24.6758 73.7593 26.2192 74.4238C29.6292 75.8925 33.0662 77.2343 36.5303 78.449C36.693 78.4926 36.8467 78.582 36.981 78.711C37.1325 78.9108 37.2376 79.1637 37.2839 79.4398C38.546 84.5154 39.8081 89.5934 40.9602 94.7095C41.0972 95.3129 41.2324 95.9155 41.3658 96.5173C41.4686 96.9769 41.5461 98.1845 41.8003 98.5037C42.1375 98.9538 42.5828 98.5037 43.0336 98.2655L45.4928 96.9555L37.5381 71.4989L36.3806 70.713" fill="#4C516C"/>
<path d="M50.7665 94.6857C51.174 94.6983 51.5802 94.7517 51.9817 94.8452C52.357 94.8998 52.7134 95.0912 53.0111 95.3978C53.1798 95.5928 53.2925 95.8586 53.3303 96.1505C53.3468 96.2959 53.3384 96.4444 53.3056 96.585C53.2729 96.7256 53.2166 96.8547 53.141 96.9627C52.996 97.1275 52.8256 97.2486 52.6415 97.3175C52.2124 97.5176 51.7827 97.7153 51.3524 97.9106C50.4311 98.3298 49.4954 98.7538 48.5218 98.8228C48.4641 98.8333 48.4053 98.8251 48.3505 98.799C48.3084 98.7709 48.2705 98.733 48.2387 98.6871C47.6545 97.932 47.1028 97.046 46.9622 95.9813C46.955 95.9454 46.955 95.9077 46.9622 95.8718C46.9778 95.8322 47.0016 95.7991 47.0307 95.7765C47.6185 95.2512 48.2645 94.8495 48.9455 94.5856C49.5621 94.3498 50.1426 94.669 50.7665 94.6857Z" fill="#2F3653"/>
<path d="M46.1058 97.1294C46.5133 97.1421 46.9196 97.1954 47.321 97.289C47.6963 97.3436 48.0527 97.5349 48.3505 97.8415C48.5192 98.0365 48.6319 98.3023 48.6696 98.5942C48.6862 98.7397 48.6777 98.8882 48.645 99.0288C48.6122 99.1693 48.5559 99.2984 48.4803 99.4064C48.3353 99.5712 48.1649 99.6923 47.9809 99.7613C47.5518 99.9613 47.1221 100.159 46.6918 100.354C45.7705 100.774 44.8347 101.197 43.8611 101.267C43.8005 101.279 43.7384 101.271 43.6808 101.243C43.6387 101.215 43.6009 101.177 43.569 101.131C42.9849 100.376 42.4332 99.4897 42.2925 98.4251C42.2854 98.3892 42.2854 98.3514 42.2925 98.3155C42.3082 98.2759 42.3319 98.2429 42.3611 98.2202C42.9489 97.6949 43.5948 97.2932 44.2758 97.0294C44.9014 96.7936 45.473 97.1103 46.1058 97.1294Z" fill="#2F3653"/>
<path d="M19.1894 70.7177C20.3866 74.3642 23.0802 76.8794 25.9667 78.0084C28.2168 78.8872 30.5877 79.023 32.946 78.8444C32.946 78.6324 32.8522 78.5038 32.6557 78.4919C30.3966 78.3418 29.4609 74.419 28.783 72.4231C28.105 70.4271 27.6417 67.9191 23.2298 65.6064C18.9316 63.358 19.4562 59.1279 19.2417 59.9806C18.2302 63.9915 17.9165 66.8378 19.1894 70.7177Z" fill="#2F3653"/>
<path d="M18.8811 70.8844C20.0783 74.5286 22.7719 77.0437 25.6584 78.1751C27.9085 79.0516 30.9303 79.2016 33.2886 79.0206C33.2886 78.811 32.8522 78.5038 32.6557 78.4919C30.3966 78.3418 29.4104 73.683 28.7325 71.6871C28.0546 69.6912 27.4253 68.5193 23.2298 65.6112C16.9501 61.262 21.4936 55.3456 21.5729 54.9669C20.0674 55.6076 19.2291 59.6495 19.0163 60.5022C18.0013 64.5084 17.6082 67.0021 18.8811 70.8844Z" fill="white"/>
<path d="M27.4109 77.5368C29.3202 78.1799 31.3414 78.2037 33.2002 79.073C32.6106 78.7967 31.3756 79.2255 30.7193 79.1993C29.8181 79.1631 28.9201 79.0381 28.0329 78.8253C26.4607 78.449 24.3819 77.8726 23.0856 76.5936C23.9294 75.6456 26.477 77.2224 27.4109 77.5368Z" fill="#68E1FD"/>
<path d="M26.266 99.7851C26.2952 99.8091 26.3267 99.8276 26.3598 99.8398C26.4186 99.8607 26.48 99.8648 26.5401 99.8518C27.209 99.7422 30.4922 79.0897 30.4922 79.0897L30.0432 78.7443C30.0108 78.7205 29.9729 78.6943 29.9405 78.6753C29.8262 78.6115 29.7033 78.579 29.5792 78.5795C29.4551 78.5801 29.3324 78.6137 29.2184 78.6784C29.1044 78.7432 29.0015 78.8376 28.9159 78.9562C28.8302 79.0747 28.7635 79.2149 28.7199 79.3684V79.3922C28.6998 79.454 28.6852 79.5188 28.6766 79.5851L26.0947 98.4989C26.0947 98.4989 25.9433 99.4945 26.266 99.7851Z" fill="#68E1FD"/>
<path d="M26.1921 98.0845C26.1921 98.0845 26.2192 99.2754 26.266 99.7851C26.2949 100.023 26.3219 100.119 26.3598 99.8398C26.6825 97.3413 29.3635 82.005 29.9423 78.68C29.828 78.6163 29.7051 78.5837 29.581 78.5843C29.4569 78.5848 29.3342 78.6185 29.2202 78.6832C29.1062 78.7479 29.0033 78.8424 28.9177 78.961C28.832 79.0795 28.7653 79.2197 28.7217 79.3731V79.3969L26.1921 98.0845Z" fill="url(#paint9_linear_624_87)"/>
<path d="M29.8665 69.029C29.8268 69.3408 29.7025 69.6227 29.5168 69.8222C29.3168 70.0404 29.0767 70.185 28.8208 70.2414C28.3322 70.3438 27.8328 70.1651 27.3604 69.9698C25.8476 69.3503 24.3767 68.5648 22.963 67.6214C22.4978 67.3118 22.0201 66.964 21.7406 66.3829C21.4323 65.7302 21.4287 64.9085 21.4449 64.1416C21.5148 60.9295 21.7249 57.7255 22.0741 54.5454C22.2256 53.1377 22.213 50.9584 22.8512 49.6151C23.0075 49.2622 23.2292 48.9678 23.4954 48.7595C23.7616 48.5511 24.0636 48.4357 24.3729 48.4242C25.3862 48.3432 26.2246 49.6151 26.4103 50.9298C26.596 52.2445 26.3075 53.5926 26.0497 54.8883C25.6891 56.7557 25.3754 58.6492 25.1482 60.5546C25.0418 61.4025 24.9589 62.3219 25.2672 63.0817C25.4129 63.4097 25.5953 63.7068 25.8081 63.963C26.6655 65.0662 27.6103 66.0444 28.6261 66.8806C29.2409 67.3927 29.9729 68.0835 29.8665 69.029Z" fill="white"/>
<path d="M44.1496 57.8989C44.1001 58.2337 43.9957 58.55 43.8437 58.8257C43.6917 59.1014 43.4958 59.3298 43.2698 59.4947C42.8174 59.8203 42.3315 60.057 41.8274 60.1973L39.7576 60.9119C38.6758 61.2882 37.3723 61.5859 36.57 60.5546C36.4269 60.3808 36.319 60.1625 36.256 59.9196C36.193 59.6767 36.177 59.4168 36.2094 59.1636C36.2318 59.0353 36.2742 58.9144 36.3338 58.8088C36.4863 58.587 36.67 58.4066 36.8747 58.2776C37.4715 57.8105 37.9909 57.1892 38.4018 56.4508C37.1757 55.8458 35.8993 55.2289 34.8734 54.1786C34.6824 53.989 34.5016 53.7821 34.3325 53.5593C33.5781 52.5559 33.0661 51.2794 32.8613 49.8913C32.7711 49.3102 32.6179 48.3384 32.7783 47.762C32.9965 46.9736 33.4076 47.3381 33.9917 47.5596C36.2256 48.4075 38.2918 49.9199 40.138 51.761C41.2023 52.8365 42.2089 54.008 43.1508 55.267C43.6935 55.984 44.256 56.8867 44.1496 57.8989Z" fill="white"/>
<path d="M39.2293 57.3535C38.5081 58.0132 37.7653 58.6492 37.0153 59.2589C36.7971 59.4375 36.4942 59.6114 36.3085 59.3732C36.2571 59.3105 36.2234 59.2265 36.213 59.1351C36.2354 59.0067 36.2778 58.8858 36.3374 58.7802C36.4899 58.5584 36.6736 58.378 36.8783 58.249C37.4751 57.7819 37.9945 57.1606 38.4054 56.4222C37.1757 55.8458 35.8993 55.2289 34.8734 54.1786C34.8734 54.1143 34.8734 54.0499 34.8734 53.9785C34.8734 53.7403 34.8355 52.0064 34.7327 51.923L39.3411 55.691C39.5202 55.8024 39.6643 55.9927 39.7486 56.2293C39.8658 56.6699 39.5304 57.082 39.2293 57.3535Z" fill="#D9DBE2"/>
<path d="M34.7634 60.8976C34.6313 61.3434 34.5611 61.817 34.556 62.2957C34.5036 62.9464 34.5826 63.6039 34.785 64.2011C35.0122 64.7799 35.4828 65.2301 35.9732 65.1538C36.1409 65.121 36.3011 65.0401 36.4425 64.9166C36.5839 64.7932 36.7031 64.6302 36.7917 64.4393C36.9678 64.0548 37.0619 63.6145 37.064 63.1651C37.2893 63.0888 37.4137 62.7697 37.4696 62.4696C37.4996 62.1642 37.5717 61.8688 37.6824 61.5978C37.8194 61.343 38.0556 61.2001 38.171 60.9262C38.2185 60.7966 38.2415 60.6536 38.2381 60.5097C38.2346 60.3658 38.2048 60.2251 38.1511 60.0997C37.8555 59.3447 36.9305 58.6921 36.3247 59.0422C35.719 59.3923 35.0446 60.0473 34.7634 60.8976Z" fill="#FFDDD0"/>
<path d="M28.9506 69.7436C29.3311 70.4914 30.1352 70.5915 30.8095 70.4581C31.4976 70.3268 32.1628 70.0366 32.7747 69.6006C32.9372 69.5114 33.0703 69.3484 33.1497 69.141C33.184 68.9951 33.184 68.839 33.1497 68.6932C33.0943 68.4499 33.0016 68.2242 32.8776 68.0301C32.7536 67.8359 32.6007 67.6774 32.4286 67.5642C32.083 67.3407 31.7161 67.1804 31.3378 67.0879C30.7266 66.9045 30.0757 66.7211 29.4861 66.9926C28.8966 67.2641 28.7866 67.2308 28.7217 68.012C28.6874 68.5788 28.7036 69.2648 28.9506 69.7436Z" fill="#FFDDD0"/>
<path d="M27.1026 46.4711L28.3268 47.3095C28.7585 47.5748 29.1631 47.9109 29.5312 48.3098C29.3081 48.9648 29.1627 49.6613 29.1003 50.3748C28.7782 49.8448 28.4041 49.3738 27.9879 48.9743C27.6002 48.6361 27.1495 48.4265 26.7871 48.0383C26.3598 47.581 26.8844 46.9379 27.1026 46.4711Z" fill="white"/>
<path d="M30.9429 48.0621L31.5144 49.0672C31.5533 49.1249 31.5806 49.1945 31.5938 49.2697C31.1536 48.9971 30.6898 48.7972 30.2127 48.6742C30.1866 48.673 30.1609 48.6643 30.1376 48.6487C30.1142 48.633 30.0937 48.6109 30.0775 48.5837C30.0606 48.5335 30.0575 48.4771 30.0685 48.4242C30.1042 48.0466 30.056 47.6634 29.9296 47.3214C29.8778 47.2147 29.844 47.0944 29.8305 46.9689C29.807 46.4115 30.256 46.9975 30.3606 47.1332C30.5717 47.4236 30.7663 47.734 30.9429 48.0621Z" fill="white"/>
<path d="M67.5376 48.6742V50.8179C67.5378 51.2675 67.471 51.7128 67.3409 52.1284C67.2108 52.5439 67.02 52.9215 66.7794 53.2396C66.5388 53.5576 66.2531 53.81 65.9386 53.9821C65.6242 54.1543 65.2871 54.2429 64.9467 54.2429H42.9903C42.3033 54.2397 41.6453 53.8765 41.1609 53.233C40.6765 52.5895 40.4052 51.7183 40.4067 50.8107V48.6671L67.5376 48.6742Z" fill="#68E1FD"/>
<path d="M29.5168 69.8222C29.3168 70.0404 29.0767 70.185 28.8208 70.2414C28.3322 70.3438 27.8328 70.1651 27.3604 69.9698C25.8476 69.3503 24.3767 68.5648 22.963 67.6214C22.4978 67.3118 22.0201 66.964 21.7406 66.3829C21.4323 65.7302 21.4287 64.9085 21.4449 64.1416C21.5148 60.9295 21.7249 57.7255 22.0741 54.5454C22.2256 53.1377 22.213 50.9584 22.8512 49.6151C23.0392 49.6868 23.2234 49.7743 23.4029 49.877C23.6477 49.9856 23.8578 50.1995 23.9997 50.4844C24.1548 50.8607 24.0899 51.3276 24.0159 51.7515C23.344 55.7981 22.8807 59.9002 22.6295 64.0296C22.596 64.2224 22.6079 64.424 22.6637 64.6075C22.7194 64.7909 22.8163 64.9475 22.9414 65.0562C23.5554 65.7891 24.2105 66.4595 24.9012 67.0617C25.983 68.0144 27.2955 69.1052 28.5828 69.4196C28.9488 69.5125 29.2481 69.5173 29.5168 69.8222Z" fill="#D9DBE2"/>
<path d="M86.6472 14.3312H66.0483C63.7512 14.3312 61.8889 16.7913 61.8889 19.826V22.1221C61.8889 25.1567 63.7512 27.6168 66.0483 27.6168H86.6472C88.9444 27.6168 90.8066 25.1567 90.8066 22.1221V19.826C90.8066 16.7913 88.9444 14.3312 86.6472 14.3312Z" fill="white"/>
<path d="M79.5093 32.0041L76.9022 27.1143H79.5093V32.0041Z" fill="white"/>
</g>
<defs>
<linearGradient id="paint0_linear_624_87" x1="60.1237" y1="-44.4809" x2="57.7063" y2="225.712" gradientUnits="userSpaceOnUse">
<stop offset="0.01"/>
<stop offset="0.08" stop-opacity="0.69"/>
<stop offset="0.21" stop-opacity="0.32"/>
<stop offset="1" stop-opacity="0"/>
</linearGradient>
<linearGradient id="paint1_linear_624_87" x1="0" y1="59.8182" x2="119.027" y2="59.8182" gradientUnits="userSpaceOnUse">
<stop offset="0.01"/>
<stop offset="0.08" stop-opacity="0.69"/>
<stop offset="0.21" stop-opacity="0.32"/>
<stop offset="1" stop-opacity="0"/>
</linearGradient>
<linearGradient id="paint2_linear_624_87" x1="58.9899" y1="-15.362" x2="59.261" y2="212.674" gradientUnits="userSpaceOnUse">
<stop offset="0.01"/>
<stop offset="0.08" stop-opacity="0.69"/>
<stop offset="0.21" stop-opacity="0.32"/>
<stop offset="1" stop-opacity="0"/>
</linearGradient>
<linearGradient id="paint3_linear_624_87" x1="647.671" y1="52.6879" x2="343.202" y2="841.499" gradientUnits="userSpaceOnUse">
<stop offset="0.01"/>
<stop offset="0.08" stop-opacity="0.69"/>
<stop offset="0.21" stop-opacity="0.32"/>
<stop offset="1" stop-opacity="0"/>
</linearGradient>
<linearGradient id="paint4_linear_624_87" x1="204.973" y1="64.6522" x2="-242.044" y2="37.6563" gradientUnits="userSpaceOnUse">
<stop offset="0.01"/>
<stop offset="0.08" stop-opacity="0.69"/>
<stop offset="0.21" stop-opacity="0.32"/>
<stop offset="1" stop-opacity="0"/>
</linearGradient>
<linearGradient id="paint5_linear_624_87" x1="262.944" y1="31.2724" x2="178.239" y2="251.167" gradientUnits="userSpaceOnUse">
<stop offset="0.01"/>
<stop offset="0.08" stop-opacity="0.69"/>
<stop offset="0.21" stop-opacity="0.32"/>
<stop offset="1" stop-opacity="0"/>
</linearGradient>
<linearGradient id="paint6_linear_624_87" x1="118.845" y1="59.8182" x2="-0.0266266" y2="59.8182" gradientUnits="userSpaceOnUse">
<stop offset="0.01"/>
<stop offset="0.08" stop-opacity="0.69"/>
<stop offset="0.21" stop-opacity="0.32"/>
<stop offset="1" stop-opacity="0"/>
</linearGradient>
<linearGradient id="paint7_linear_624_87" x1="60.0452" y1="-15.362" x2="59.7742" y2="212.674" gradientUnits="userSpaceOnUse">
<stop offset="0.01"/>
<stop offset="0.08" stop-opacity="0.69"/>
<stop offset="0.21" stop-opacity="0.32"/>
<stop offset="1" stop-opacity="0"/>
</linearGradient>
<linearGradient id="paint8_linear_624_87" x1="-530.905" y1="52.6879" x2="-226.922" y2="841.94" gradientUnits="userSpaceOnUse">
<stop offset="0.01"/>
<stop offset="0.08" stop-opacity="0.69"/>
<stop offset="0.21" stop-opacity="0.32"/>
<stop offset="1" stop-opacity="0"/>
</linearGradient>
<linearGradient id="paint9_linear_624_87" x1="-144.001" y1="31.2724" x2="-59.2739" y2="251.198" gradientUnits="userSpaceOnUse">
<stop offset="0.01"/>
<stop offset="0.08" stop-opacity="0.69"/>
<stop offset="0.21" stop-opacity="0.32"/>
<stop offset="1" stop-opacity="0"/>
</linearGradient>
</defs>
</svg>
